G04 #@! TF.GenerationSoftware,KiCad,Pcbnew,(5.1.2)-1*
G04 #@! TF.CreationDate,2020-04-17T10:09:39+02:00*
G04 #@! TF.ProjectId,DeltaSDR,44656c74-6153-4445-922e-6b696361645f,rev?*
G04 #@! TF.SameCoordinates,Original*
G04 #@! TF.FileFunction,Legend,Bot*
G04 #@! TF.FilePolarity,Positive*
%FSLAX46Y46*%
G04 Gerber Fmt 4.6, Leading zero omitted, Abs format (unit mm)*
G04 Created by KiCad (PCBNEW (5.1.2)-1) date 2020-04-17 10:09:39*
%MOMM*%
%LPD*%
G04 APERTURE LIST*
%ADD10C,0.010000*%
%ADD11C,0.120000*%
G04 APERTURE END LIST*
D10*
G36*
X189857426Y-116419008D02*
G01*
X191495875Y-113715266D01*
X192360679Y-112151383D01*
X192858430Y-111195875D01*
X193433234Y-110046298D01*
X194065520Y-108743486D01*
X194735718Y-107328275D01*
X195424255Y-105841498D01*
X196102200Y-104344893D01*
X197093278Y-102131884D01*
X184626985Y-93402892D01*
X183627518Y-94891712D01*
X182628050Y-96380532D01*
X184980357Y-99874081D01*
X185548523Y-100724050D01*
X186071771Y-101518611D01*
X186532666Y-102230373D01*
X186913778Y-102831948D01*
X187197674Y-103295944D01*
X187366924Y-103594972D01*
X187406969Y-103686873D01*
X187462868Y-104153699D01*
X187468184Y-104804690D01*
X187426093Y-105575766D01*
X187339774Y-106402847D01*
X187239019Y-107073284D01*
X186952924Y-108378490D01*
X186543762Y-109661923D01*
X185993283Y-110965634D01*
X185283234Y-112331676D01*
X184395366Y-113802098D01*
X184162064Y-114162569D01*
X183034979Y-115764526D01*
X181902649Y-117127639D01*
X180748326Y-118266807D01*
X179555262Y-119196925D01*
X178306707Y-119932892D01*
X177089875Y-120453014D01*
X175685175Y-120824045D01*
X174238773Y-120960908D01*
X172775062Y-120874687D01*
X171318442Y-120576463D01*
X169893306Y-120077319D01*
X168524052Y-119388334D01*
X167235075Y-118520593D01*
X166050771Y-117485177D01*
X164995538Y-116293167D01*
X164093771Y-114955646D01*
X163798382Y-114415376D01*
X163231862Y-113232357D01*
X162738867Y-112019897D01*
X162301345Y-110723786D01*
X161901246Y-109289815D01*
X161520518Y-107663776D01*
X161466831Y-107413464D01*
X161323698Y-106702778D01*
X161188986Y-105951616D01*
X161060011Y-105136871D01*
X160934084Y-104235429D01*
X160808519Y-103224184D01*
X160680628Y-102080023D01*
X160547726Y-100779838D01*
X160407124Y-99300517D01*
X160256136Y-97618951D01*
X160092074Y-95712030D01*
X160054534Y-95266796D01*
X159892573Y-93378545D01*
X159741629Y-91709551D01*
X159597443Y-90225531D01*
X159455757Y-88892203D01*
X159312308Y-87675280D01*
X159162839Y-86540482D01*
X159003091Y-85453526D01*
X158828805Y-84380126D01*
X158635720Y-83286002D01*
X158430081Y-82191387D01*
X157734356Y-79054841D01*
X156889264Y-76114205D01*
X155887902Y-73355105D01*
X154723364Y-70763163D01*
X153388746Y-68324004D01*
X151877145Y-66023253D01*
X150181655Y-63846533D01*
X148958923Y-62471266D01*
X148122253Y-61597941D01*
X147319102Y-60809784D01*
X146501502Y-60065108D01*
X145621487Y-59322227D01*
X144631089Y-58539451D01*
X143482339Y-57675097D01*
X143205914Y-57471548D01*
X140417752Y-55537156D01*
X137638844Y-53831621D01*
X134874763Y-52355691D01*
X132131084Y-51110115D01*
X129413384Y-50095640D01*
X126727234Y-49313013D01*
X124078212Y-48762980D01*
X121471892Y-48446290D01*
X118913848Y-48363690D01*
X116409654Y-48515927D01*
X113964888Y-48903749D01*
X111585121Y-49527902D01*
X109275930Y-50389134D01*
X107042890Y-51488194D01*
X105501131Y-52416941D01*
X103531997Y-53833816D01*
X101615053Y-55481970D01*
X99769064Y-57340888D01*
X98012793Y-59390058D01*
X96365005Y-61608968D01*
X94844464Y-63977104D01*
X94694951Y-64230169D01*
X93282969Y-66840976D01*
X92117929Y-69432352D01*
X91200191Y-72001486D01*
X90530119Y-74545565D01*
X90108074Y-77061779D01*
X89934418Y-79547314D01*
X90009512Y-81999359D01*
X90333717Y-84415102D01*
X90907396Y-86791732D01*
X91550410Y-88673840D01*
X92370844Y-90528836D01*
X93399831Y-92419650D01*
X94606168Y-94298239D01*
X95958647Y-96116563D01*
X97426068Y-97826580D01*
X97653576Y-98070147D01*
X99468036Y-99864980D01*
X101460455Y-101607225D01*
X103591031Y-103270431D01*
X104223731Y-103712601D01*
X111589882Y-93192645D01*
X110527450Y-92440276D01*
X109533739Y-91719177D01*
X108646382Y-91055400D01*
X107903017Y-90474998D01*
X107379531Y-90037834D01*
X105376863Y-88162081D01*
X103622965Y-86274706D01*
X102118438Y-84376966D01*
X100863883Y-82470120D01*
X99859902Y-80555426D01*
X99107094Y-78634139D01*
X98606059Y-76707520D01*
X98357400Y-74776825D01*
X98361715Y-72843311D01*
X98516989Y-71480021D01*
X98921035Y-69712075D01*
X99559169Y-67945091D01*
X100413912Y-66215114D01*
X101467789Y-64558191D01*
X102525246Y-63213158D01*
X103866503Y-61822427D01*
X105283789Y-60669659D01*
X106792506Y-59746157D01*
X108408057Y-59043224D01*
X110145845Y-58552163D01*
X111084808Y-58380402D01*
X112785646Y-58205441D01*
X114510668Y-58199167D01*
X116277622Y-58366006D01*
X118104251Y-58710384D01*
X120008300Y-59236726D01*
X122007516Y-59949457D01*
X124119640Y-60853003D01*
X126362419Y-61951790D01*
X127222013Y-62405008D01*
X127935540Y-62810354D01*
X128793596Y-63334549D01*
X129762224Y-63953831D01*
X130807467Y-64644432D01*
X131895366Y-65382588D01*
X132991965Y-66144536D01*
X134063304Y-66906512D01*
X135075429Y-67644749D01*
X135994378Y-68335484D01*
X136786196Y-68954953D01*
X137416926Y-69479390D01*
X137711919Y-69746140D01*
X139725899Y-71798732D01*
X141502748Y-73912042D01*
X143056472Y-76108772D01*
X144401080Y-78411624D01*
X145550581Y-80843298D01*
X146518979Y-83426498D01*
X146894704Y-84628461D01*
X147122605Y-85480222D01*
X147355548Y-86493390D01*
X147587130Y-87626306D01*
X147810948Y-88837314D01*
X148020600Y-90084758D01*
X148209683Y-91326979D01*
X148371791Y-92522322D01*
X148500525Y-93629128D01*
X148589481Y-94605742D01*
X148632255Y-95410507D01*
X148628593Y-95908919D01*
X148509037Y-96113663D01*
X148178795Y-96415151D01*
X147656456Y-96800821D01*
X146960611Y-97258112D01*
X146109849Y-97774461D01*
X145122762Y-98337305D01*
X144656732Y-98592827D01*
X142508937Y-99658586D01*
X140415456Y-100490250D01*
X138345762Y-101093136D01*
X136269326Y-101472561D01*
X134155620Y-101633841D01*
X131974115Y-101582291D01*
X129694283Y-101323229D01*
X129321538Y-101263409D01*
X127240365Y-100851535D01*
X125204562Y-100311163D01*
X123171743Y-99626926D01*
X121099521Y-98783456D01*
X118945507Y-97765384D01*
X117299963Y-96904676D01*
X116615572Y-96511760D01*
X115774084Y-95993807D01*
X114813135Y-95376867D01*
X113770361Y-94686993D01*
X112683398Y-93950235D01*
X111589882Y-93192645D01*
X104223731Y-103712601D01*
X105819960Y-104828144D01*
X108107440Y-106253913D01*
X110413668Y-107521286D01*
X112698839Y-108603810D01*
X114692986Y-109394037D01*
X117491260Y-110263126D01*
X120303283Y-110880549D01*
X123121651Y-111246421D01*
X125938954Y-111360859D01*
X128747783Y-111223978D01*
X131540735Y-110835894D01*
X134310399Y-110196722D01*
X137049370Y-109306578D01*
X137756823Y-109033543D01*
X139345336Y-108339858D01*
X141040644Y-107490723D01*
X142782299Y-106521862D01*
X144509856Y-105468998D01*
X146162871Y-104367852D01*
X147680898Y-103254153D01*
X148114505Y-102912041D01*
X149275251Y-101978653D01*
X149683836Y-104941129D01*
X150122269Y-107790598D01*
X150621986Y-110407958D01*
X151188801Y-112808965D01*
X151828532Y-115009379D01*
X152546992Y-117024960D01*
X153350001Y-118871465D01*
X154243370Y-120564655D01*
X155232919Y-122120288D01*
X156324462Y-123554123D01*
X156726490Y-124024221D01*
X157671498Y-125007394D01*
X158763231Y-125993996D01*
X159914774Y-126910689D01*
X161039208Y-127684136D01*
X161133290Y-127742484D01*
X162967738Y-128746741D01*
X164799962Y-129500480D01*
X166645077Y-130006588D01*
X168518192Y-130267956D01*
X170434421Y-130287473D01*
X172408875Y-130068028D01*
X172865452Y-129985483D01*
X174928111Y-129458031D01*
X176951959Y-128681154D01*
X178934920Y-127656753D01*
X180874907Y-126386734D01*
X182769842Y-124873001D01*
X184617643Y-123117458D01*
X186416229Y-121122008D01*
X188163517Y-118888558D01*
X189857426Y-116419008D01*
X189857426Y-116419008D01*
G37*
X189857426Y-116419008D02*
X191495875Y-113715266D01*
X192360679Y-112151383D01*
X192858430Y-111195875D01*
X193433234Y-110046298D01*
X194065520Y-108743486D01*
X194735718Y-107328275D01*
X195424255Y-105841498D01*
X196102200Y-104344893D01*
X197093278Y-102131884D01*
X184626985Y-93402892D01*
X183627518Y-94891712D01*
X182628050Y-96380532D01*
X184980357Y-99874081D01*
X185548523Y-100724050D01*
X186071771Y-101518611D01*
X186532666Y-102230373D01*
X186913778Y-102831948D01*
X187197674Y-103295944D01*
X187366924Y-103594972D01*
X187406969Y-103686873D01*
X187462868Y-104153699D01*
X187468184Y-104804690D01*
X187426093Y-105575766D01*
X187339774Y-106402847D01*
X187239019Y-107073284D01*
X186952924Y-108378490D01*
X186543762Y-109661923D01*
X185993283Y-110965634D01*
X185283234Y-112331676D01*
X184395366Y-113802098D01*
X184162064Y-114162569D01*
X183034979Y-115764526D01*
X181902649Y-117127639D01*
X180748326Y-118266807D01*
X179555262Y-119196925D01*
X178306707Y-119932892D01*
X177089875Y-120453014D01*
X175685175Y-120824045D01*
X174238773Y-120960908D01*
X172775062Y-120874687D01*
X171318442Y-120576463D01*
X169893306Y-120077319D01*
X168524052Y-119388334D01*
X167235075Y-118520593D01*
X166050771Y-117485177D01*
X164995538Y-116293167D01*
X164093771Y-114955646D01*
X163798382Y-114415376D01*
X163231862Y-113232357D01*
X162738867Y-112019897D01*
X162301345Y-110723786D01*
X161901246Y-109289815D01*
X161520518Y-107663776D01*
X161466831Y-107413464D01*
X161323698Y-106702778D01*
X161188986Y-105951616D01*
X161060011Y-105136871D01*
X160934084Y-104235429D01*
X160808519Y-103224184D01*
X160680628Y-102080023D01*
X160547726Y-100779838D01*
X160407124Y-99300517D01*
X160256136Y-97618951D01*
X160092074Y-95712030D01*
X160054534Y-95266796D01*
X159892573Y-93378545D01*
X159741629Y-91709551D01*
X159597443Y-90225531D01*
X159455757Y-88892203D01*
X159312308Y-87675280D01*
X159162839Y-86540482D01*
X159003091Y-85453526D01*
X158828805Y-84380126D01*
X158635720Y-83286002D01*
X158430081Y-82191387D01*
X157734356Y-79054841D01*
X156889264Y-76114205D01*
X155887902Y-73355105D01*
X154723364Y-70763163D01*
X153388746Y-68324004D01*
X151877145Y-66023253D01*
X150181655Y-63846533D01*
X148958923Y-62471266D01*
X148122253Y-61597941D01*
X147319102Y-60809784D01*
X146501502Y-60065108D01*
X145621487Y-59322227D01*
X144631089Y-58539451D01*
X143482339Y-57675097D01*
X143205914Y-57471548D01*
X140417752Y-55537156D01*
X137638844Y-53831621D01*
X134874763Y-52355691D01*
X132131084Y-51110115D01*
X129413384Y-50095640D01*
X126727234Y-49313013D01*
X124078212Y-48762980D01*
X121471892Y-48446290D01*
X118913848Y-48363690D01*
X116409654Y-48515927D01*
X113964888Y-48903749D01*
X111585121Y-49527902D01*
X109275930Y-50389134D01*
X107042890Y-51488194D01*
X105501131Y-52416941D01*
X103531997Y-53833816D01*
X101615053Y-55481970D01*
X99769064Y-57340888D01*
X98012793Y-59390058D01*
X96365005Y-61608968D01*
X94844464Y-63977104D01*
X94694951Y-64230169D01*
X93282969Y-66840976D01*
X92117929Y-69432352D01*
X91200191Y-72001486D01*
X90530119Y-74545565D01*
X90108074Y-77061779D01*
X89934418Y-79547314D01*
X90009512Y-81999359D01*
X90333717Y-84415102D01*
X90907396Y-86791732D01*
X91550410Y-88673840D01*
X92370844Y-90528836D01*
X93399831Y-92419650D01*
X94606168Y-94298239D01*
X95958647Y-96116563D01*
X97426068Y-97826580D01*
X97653576Y-98070147D01*
X99468036Y-99864980D01*
X101460455Y-101607225D01*
X103591031Y-103270431D01*
X104223731Y-103712601D01*
X111589882Y-93192645D01*
X110527450Y-92440276D01*
X109533739Y-91719177D01*
X108646382Y-91055400D01*
X107903017Y-90474998D01*
X107379531Y-90037834D01*
X105376863Y-88162081D01*
X103622965Y-86274706D01*
X102118438Y-84376966D01*
X100863883Y-82470120D01*
X99859902Y-80555426D01*
X99107094Y-78634139D01*
X98606059Y-76707520D01*
X98357400Y-74776825D01*
X98361715Y-72843311D01*
X98516989Y-71480021D01*
X98921035Y-69712075D01*
X99559169Y-67945091D01*
X100413912Y-66215114D01*
X101467789Y-64558191D01*
X102525246Y-63213158D01*
X103866503Y-61822427D01*
X105283789Y-60669659D01*
X106792506Y-59746157D01*
X108408057Y-59043224D01*
X110145845Y-58552163D01*
X111084808Y-58380402D01*
X112785646Y-58205441D01*
X114510668Y-58199167D01*
X116277622Y-58366006D01*
X118104251Y-58710384D01*
X120008300Y-59236726D01*
X122007516Y-59949457D01*
X124119640Y-60853003D01*
X126362419Y-61951790D01*
X127222013Y-62405008D01*
X127935540Y-62810354D01*
X128793596Y-63334549D01*
X129762224Y-63953831D01*
X130807467Y-64644432D01*
X131895366Y-65382588D01*
X132991965Y-66144536D01*
X134063304Y-66906512D01*
X135075429Y-67644749D01*
X135994378Y-68335484D01*
X136786196Y-68954953D01*
X137416926Y-69479390D01*
X137711919Y-69746140D01*
X139725899Y-71798732D01*
X141502748Y-73912042D01*
X143056472Y-76108772D01*
X144401080Y-78411624D01*
X145550581Y-80843298D01*
X146518979Y-83426498D01*
X146894704Y-84628461D01*
X147122605Y-85480222D01*
X147355548Y-86493390D01*
X147587130Y-87626306D01*
X147810948Y-88837314D01*
X148020600Y-90084758D01*
X148209683Y-91326979D01*
X148371791Y-92522322D01*
X148500525Y-93629128D01*
X148589481Y-94605742D01*
X148632255Y-95410507D01*
X148628593Y-95908919D01*
X148509037Y-96113663D01*
X148178795Y-96415151D01*
X147656456Y-96800821D01*
X146960611Y-97258112D01*
X146109849Y-97774461D01*
X145122762Y-98337305D01*
X144656732Y-98592827D01*
X142508937Y-99658586D01*
X140415456Y-100490250D01*
X138345762Y-101093136D01*
X136269326Y-101472561D01*
X134155620Y-101633841D01*
X131974115Y-101582291D01*
X129694283Y-101323229D01*
X129321538Y-101263409D01*
X127240365Y-100851535D01*
X125204562Y-100311163D01*
X123171743Y-99626926D01*
X121099521Y-98783456D01*
X118945507Y-97765384D01*
X117299963Y-96904676D01*
X116615572Y-96511760D01*
X115774084Y-95993807D01*
X114813135Y-95376867D01*
X113770361Y-94686993D01*
X112683398Y-93950235D01*
X111589882Y-93192645D01*
X104223731Y-103712601D01*
X105819960Y-104828144D01*
X108107440Y-106253913D01*
X110413668Y-107521286D01*
X112698839Y-108603810D01*
X114692986Y-109394037D01*
X117491260Y-110263126D01*
X120303283Y-110880549D01*
X123121651Y-111246421D01*
X125938954Y-111360859D01*
X128747783Y-111223978D01*
X131540735Y-110835894D01*
X134310399Y-110196722D01*
X137049370Y-109306578D01*
X137756823Y-109033543D01*
X139345336Y-108339858D01*
X141040644Y-107490723D01*
X142782299Y-106521862D01*
X144509856Y-105468998D01*
X146162871Y-104367852D01*
X147680898Y-103254153D01*
X148114505Y-102912041D01*
X149275251Y-101978653D01*
X149683836Y-104941129D01*
X150122269Y-107790598D01*
X150621986Y-110407958D01*
X151188801Y-112808965D01*
X151828532Y-115009379D01*
X152546992Y-117024960D01*
X153350001Y-118871465D01*
X154243370Y-120564655D01*
X155232919Y-122120288D01*
X156324462Y-123554123D01*
X156726490Y-124024221D01*
X157671498Y-125007394D01*
X158763231Y-125993996D01*
X159914774Y-126910689D01*
X161039208Y-127684136D01*
X161133290Y-127742484D01*
X162967738Y-128746741D01*
X164799962Y-129500480D01*
X166645077Y-130006588D01*
X168518192Y-130267956D01*
X170434421Y-130287473D01*
X172408875Y-130068028D01*
X172865452Y-129985483D01*
X174928111Y-129458031D01*
X176951959Y-128681154D01*
X178934920Y-127656753D01*
X180874907Y-126386734D01*
X182769842Y-124873001D01*
X184617643Y-123117458D01*
X186416229Y-121122008D01*
X188163517Y-118888558D01*
X189857426Y-116419008D01*
D11*
X206800000Y-104900000D02*
G75*
G03X206100000Y-104200000I-700000J0D01*
G01*
X205500000Y-104200000D02*
G75*
G03X204800000Y-104900000I0J-700000D01*
G01*
X204800000Y-106300000D02*
G75*
G03X205500000Y-107000000I700000J0D01*
G01*
X206100000Y-107000000D02*
G75*
G03X206800000Y-106300000I0J700000D01*
G01*
X205500000Y-107000000D02*
X206100000Y-107000000D01*
X204800000Y-104900000D02*
X204800000Y-106300000D01*
X206100000Y-104200000D02*
X205500000Y-104200000D01*
X206800000Y-106300000D02*
X206800000Y-104900000D01*
M02*
