G04 #@! TF.GenerationSoftware,KiCad,Pcbnew,(5.1.2)-1*
G04 #@! TF.CreationDate,2020-04-17T10:09:38+02:00*
G04 #@! TF.ProjectId,DeltaSDR,44656c74-6153-4445-922e-6b696361645f,rev?*
G04 #@! TF.SameCoordinates,Original*
G04 #@! TF.FileFunction,Copper,L2,Bot*
G04 #@! TF.FilePolarity,Positive*
%FSLAX46Y46*%
G04 Gerber Fmt 4.6, Leading zero omitted, Abs format (unit mm)*
G04 Created by KiCad (PCBNEW (5.1.2)-1) date 2020-04-17 10:09:38*
%MOMM*%
%LPD*%
G04 APERTURE LIST*
%ADD10C,0.800000*%
%ADD11C,6.400000*%
%ADD12C,0.500000*%
%ADD13C,0.100000*%
%ADD14C,3.500000*%
%ADD15C,3.000000*%
%ADD16R,3.500000X3.500000*%
%ADD17R,5.080000X1.500000*%
%ADD18C,1.400000*%
%ADD19R,1.400000X1.400000*%
%ADD20O,1.700000X1.700000*%
%ADD21R,1.700000X1.700000*%
%ADD22C,0.600000*%
%ADD23C,0.250000*%
%ADD24C,0.500000*%
%ADD25C,0.254000*%
G04 APERTURE END LIST*
D10*
X116697056Y-133302944D03*
X115000000Y-132600000D03*
X113302944Y-133302944D03*
X112600000Y-135000000D03*
X113302944Y-136697056D03*
X115000000Y-137400000D03*
X116697056Y-136697056D03*
X117400000Y-135000000D03*
D11*
X115000000Y-135000000D03*
D10*
X116697056Y-63302944D03*
X115000000Y-62600000D03*
X113302944Y-63302944D03*
X112600000Y-65000000D03*
X113302944Y-66697056D03*
X115000000Y-67400000D03*
X116697056Y-66697056D03*
X117400000Y-65000000D03*
D11*
X115000000Y-65000000D03*
D10*
X206697056Y-133302944D03*
X205000000Y-132600000D03*
X203302944Y-133302944D03*
X202600000Y-135000000D03*
X203302944Y-136697056D03*
X205000000Y-137400000D03*
X206697056Y-136697056D03*
X207400000Y-135000000D03*
D11*
X205000000Y-135000000D03*
D10*
X206697056Y-63302944D03*
X205000000Y-62600000D03*
X203302944Y-63302944D03*
X202600000Y-65000000D03*
X203302944Y-66697056D03*
X205000000Y-67400000D03*
X206697056Y-66697056D03*
X207400000Y-65000000D03*
D11*
X205000000Y-65000000D03*
D12*
X205800000Y-106250000D03*
D13*
G36*
X206550000Y-105750000D02*
G01*
X206550000Y-106250000D01*
X206549398Y-106250000D01*
X206549398Y-106274534D01*
X206544588Y-106323365D01*
X206535016Y-106371490D01*
X206520772Y-106418445D01*
X206501995Y-106463778D01*
X206478864Y-106507051D01*
X206451604Y-106547850D01*
X206420476Y-106585779D01*
X206385779Y-106620476D01*
X206347850Y-106651604D01*
X206307051Y-106678864D01*
X206263778Y-106701995D01*
X206218445Y-106720772D01*
X206171490Y-106735016D01*
X206123365Y-106744588D01*
X206074534Y-106749398D01*
X206050000Y-106749398D01*
X206050000Y-106750000D01*
X205550000Y-106750000D01*
X205550000Y-106749398D01*
X205525466Y-106749398D01*
X205476635Y-106744588D01*
X205428510Y-106735016D01*
X205381555Y-106720772D01*
X205336222Y-106701995D01*
X205292949Y-106678864D01*
X205252150Y-106651604D01*
X205214221Y-106620476D01*
X205179524Y-106585779D01*
X205148396Y-106547850D01*
X205121136Y-106507051D01*
X205098005Y-106463778D01*
X205079228Y-106418445D01*
X205064984Y-106371490D01*
X205055412Y-106323365D01*
X205050602Y-106274534D01*
X205050602Y-106250000D01*
X205050000Y-106250000D01*
X205050000Y-105750000D01*
X206550000Y-105750000D01*
X206550000Y-105750000D01*
G37*
D12*
X205800000Y-104950000D03*
D13*
G36*
X205050602Y-104950000D02*
G01*
X205050602Y-104925466D01*
X205055412Y-104876635D01*
X205064984Y-104828510D01*
X205079228Y-104781555D01*
X205098005Y-104736222D01*
X205121136Y-104692949D01*
X205148396Y-104652150D01*
X205179524Y-104614221D01*
X205214221Y-104579524D01*
X205252150Y-104548396D01*
X205292949Y-104521136D01*
X205336222Y-104498005D01*
X205381555Y-104479228D01*
X205428510Y-104464984D01*
X205476635Y-104455412D01*
X205525466Y-104450602D01*
X205550000Y-104450602D01*
X205550000Y-104450000D01*
X206050000Y-104450000D01*
X206050000Y-104450602D01*
X206074534Y-104450602D01*
X206123365Y-104455412D01*
X206171490Y-104464984D01*
X206218445Y-104479228D01*
X206263778Y-104498005D01*
X206307051Y-104521136D01*
X206347850Y-104548396D01*
X206385779Y-104579524D01*
X206420476Y-104614221D01*
X206451604Y-104652150D01*
X206478864Y-104692949D01*
X206501995Y-104736222D01*
X206520772Y-104781555D01*
X206535016Y-104828510D01*
X206544588Y-104876635D01*
X206549398Y-104925466D01*
X206549398Y-104950000D01*
X206550000Y-104950000D01*
X206550000Y-105450000D01*
X205050000Y-105450000D01*
X205050000Y-104950000D01*
X205050602Y-104950000D01*
X205050602Y-104950000D01*
G37*
G36*
X203760765Y-78554213D02*
G01*
X203845704Y-78566813D01*
X203928999Y-78587677D01*
X204009848Y-78616605D01*
X204087472Y-78653319D01*
X204161124Y-78697464D01*
X204230094Y-78748616D01*
X204293718Y-78806282D01*
X204351384Y-78869906D01*
X204402536Y-78938876D01*
X204446681Y-79012528D01*
X204483395Y-79090152D01*
X204512323Y-79171001D01*
X204533187Y-79254296D01*
X204545787Y-79339235D01*
X204550000Y-79425000D01*
X204550000Y-81175000D01*
X204545787Y-81260765D01*
X204533187Y-81345704D01*
X204512323Y-81428999D01*
X204483395Y-81509848D01*
X204446681Y-81587472D01*
X204402536Y-81661124D01*
X204351384Y-81730094D01*
X204293718Y-81793718D01*
X204230094Y-81851384D01*
X204161124Y-81902536D01*
X204087472Y-81946681D01*
X204009848Y-81983395D01*
X203928999Y-82012323D01*
X203845704Y-82033187D01*
X203760765Y-82045787D01*
X203675000Y-82050000D01*
X201925000Y-82050000D01*
X201839235Y-82045787D01*
X201754296Y-82033187D01*
X201671001Y-82012323D01*
X201590152Y-81983395D01*
X201512528Y-81946681D01*
X201438876Y-81902536D01*
X201369906Y-81851384D01*
X201306282Y-81793718D01*
X201248616Y-81730094D01*
X201197464Y-81661124D01*
X201153319Y-81587472D01*
X201116605Y-81509848D01*
X201087677Y-81428999D01*
X201066813Y-81345704D01*
X201054213Y-81260765D01*
X201050000Y-81175000D01*
X201050000Y-79425000D01*
X201054213Y-79339235D01*
X201066813Y-79254296D01*
X201087677Y-79171001D01*
X201116605Y-79090152D01*
X201153319Y-79012528D01*
X201197464Y-78938876D01*
X201248616Y-78869906D01*
X201306282Y-78806282D01*
X201369906Y-78748616D01*
X201438876Y-78697464D01*
X201512528Y-78653319D01*
X201590152Y-78616605D01*
X201671001Y-78587677D01*
X201754296Y-78566813D01*
X201839235Y-78554213D01*
X201925000Y-78550000D01*
X203675000Y-78550000D01*
X203760765Y-78554213D01*
X203760765Y-78554213D01*
G37*
D14*
X202800000Y-80300000D03*
D13*
G36*
X206623513Y-83253611D02*
G01*
X206696318Y-83264411D01*
X206767714Y-83282295D01*
X206837013Y-83307090D01*
X206903548Y-83338559D01*
X206966678Y-83376398D01*
X207025795Y-83420242D01*
X207080330Y-83469670D01*
X207129758Y-83524205D01*
X207173602Y-83583322D01*
X207211441Y-83646452D01*
X207242910Y-83712987D01*
X207267705Y-83782286D01*
X207285589Y-83853682D01*
X207296389Y-83926487D01*
X207300000Y-84000000D01*
X207300000Y-86000000D01*
X207296389Y-86073513D01*
X207285589Y-86146318D01*
X207267705Y-86217714D01*
X207242910Y-86287013D01*
X207211441Y-86353548D01*
X207173602Y-86416678D01*
X207129758Y-86475795D01*
X207080330Y-86530330D01*
X207025795Y-86579758D01*
X206966678Y-86623602D01*
X206903548Y-86661441D01*
X206837013Y-86692910D01*
X206767714Y-86717705D01*
X206696318Y-86735589D01*
X206623513Y-86746389D01*
X206550000Y-86750000D01*
X205050000Y-86750000D01*
X204976487Y-86746389D01*
X204903682Y-86735589D01*
X204832286Y-86717705D01*
X204762987Y-86692910D01*
X204696452Y-86661441D01*
X204633322Y-86623602D01*
X204574205Y-86579758D01*
X204519670Y-86530330D01*
X204470242Y-86475795D01*
X204426398Y-86416678D01*
X204388559Y-86353548D01*
X204357090Y-86287013D01*
X204332295Y-86217714D01*
X204314411Y-86146318D01*
X204303611Y-86073513D01*
X204300000Y-86000000D01*
X204300000Y-84000000D01*
X204303611Y-83926487D01*
X204314411Y-83853682D01*
X204332295Y-83782286D01*
X204357090Y-83712987D01*
X204388559Y-83646452D01*
X204426398Y-83583322D01*
X204470242Y-83524205D01*
X204519670Y-83469670D01*
X204574205Y-83420242D01*
X204633322Y-83376398D01*
X204696452Y-83338559D01*
X204762987Y-83307090D01*
X204832286Y-83282295D01*
X204903682Y-83264411D01*
X204976487Y-83253611D01*
X205050000Y-83250000D01*
X206550000Y-83250000D01*
X206623513Y-83253611D01*
X206623513Y-83253611D01*
G37*
D15*
X205800000Y-85000000D03*
D16*
X199800000Y-85000000D03*
D17*
X113900000Y-104450000D03*
X113900000Y-95950000D03*
D18*
X201305000Y-110145000D03*
D15*
X204015000Y-114915000D03*
D19*
X201305000Y-107645000D03*
D18*
X204505000Y-110145000D03*
X204505000Y-107645000D03*
D15*
X204015000Y-102875000D03*
D20*
X191360000Y-72100000D03*
X188820000Y-72100000D03*
X186280000Y-72100000D03*
X183740000Y-72100000D03*
D21*
X181200000Y-72100000D03*
D20*
X185420000Y-77200000D03*
X187960000Y-77200000D03*
D21*
X190500000Y-77200000D03*
D22*
X188400000Y-101000000D03*
X180900000Y-99700000D03*
X178500000Y-97239989D03*
X170700000Y-98200000D03*
X170700000Y-94400000D03*
X170600000Y-101500000D03*
X170600000Y-102300000D03*
X157800000Y-96200000D03*
X157800000Y-98300000D03*
X152700000Y-98700000D03*
X156000000Y-99700000D03*
X148900000Y-97400000D03*
X162400000Y-115300000D03*
X148958058Y-106258058D03*
X157100000Y-79800000D03*
X157200000Y-84300000D03*
X158000000Y-74200000D03*
X169400000Y-107200000D03*
X171600000Y-107200000D03*
X189175010Y-83700000D03*
X181700000Y-81000000D03*
X191000000Y-84200000D03*
X124500000Y-79800000D03*
X154900000Y-117900000D03*
X139300000Y-112600000D03*
X136000000Y-112600000D03*
X202700024Y-111000000D03*
X125900000Y-87400000D03*
X154900000Y-116300000D03*
X120700000Y-109300000D03*
X117400000Y-96000000D03*
X113900000Y-106300000D03*
X126200000Y-81700000D03*
X127800000Y-91400000D03*
X131400000Y-91300000D03*
X126599992Y-113400000D03*
X127000000Y-109500000D03*
X124400000Y-112900000D03*
X142000000Y-109600000D03*
X133000000Y-112600000D03*
X130400000Y-112500000D03*
X138200000Y-85000000D03*
X141800002Y-75700000D03*
X120000000Y-137500000D03*
X122500000Y-137500000D03*
X125000000Y-137500000D03*
X127500000Y-137500000D03*
X130000000Y-137500000D03*
X132500000Y-137500000D03*
X135000000Y-137500000D03*
X137500000Y-137500000D03*
X140000000Y-137500000D03*
X142500000Y-137500000D03*
X145000000Y-137500000D03*
X147500000Y-137500000D03*
X150000000Y-137500000D03*
X152500000Y-137500000D03*
X155000000Y-137500000D03*
X157500000Y-137500000D03*
X160000000Y-137500000D03*
X162500000Y-137500000D03*
X165000000Y-137500000D03*
X167500000Y-137500000D03*
X170000000Y-137500000D03*
X172500000Y-137500000D03*
X175000000Y-137500000D03*
X177500000Y-137500000D03*
X180000000Y-137500000D03*
X162600000Y-114000000D03*
X161000000Y-114000000D03*
X160600000Y-116600000D03*
X116200000Y-106400012D03*
X147000000Y-125599992D03*
X148800000Y-125600000D03*
X150800000Y-125600000D03*
X152600000Y-125600000D03*
X144600000Y-125600000D03*
X142400000Y-125600000D03*
X140000000Y-125600000D03*
X137400000Y-125600000D03*
X135400000Y-124200000D03*
X133800000Y-122600000D03*
X144400000Y-122000000D03*
X142400000Y-122000000D03*
X149200000Y-122200000D03*
X134600000Y-113800000D03*
X134600000Y-115200000D03*
X134600000Y-116800000D03*
X134600000Y-111400000D03*
X134600000Y-109600000D03*
X134600000Y-107800000D03*
X134600000Y-105600000D03*
X132600000Y-101000000D03*
X136000000Y-100600000D03*
X134400000Y-99000000D03*
X130600000Y-101000000D03*
X128600000Y-101000000D03*
X126400000Y-101000000D03*
X189999986Y-102600000D03*
X170728987Y-98974990D03*
X178400000Y-108000000D03*
X178400000Y-106400000D03*
X178400000Y-109800000D03*
X182400000Y-108000000D03*
X182400000Y-106200000D03*
X182400000Y-109800000D03*
X180350000Y-105549986D03*
X180350000Y-110449990D03*
X125400000Y-71400000D03*
X127000000Y-71400000D03*
X123800000Y-71400000D03*
X127000000Y-67400000D03*
X125400000Y-67400000D03*
X123800000Y-67400000D03*
X128200000Y-69400000D03*
X122800024Y-69400000D03*
X155400000Y-118700000D03*
X158100000Y-118900000D03*
X156200000Y-129000000D03*
X166400000Y-116000006D03*
X166100000Y-114500000D03*
X164700000Y-114000000D03*
X166000000Y-121400000D03*
X168000000Y-119600004D03*
X167600000Y-120999988D03*
X165800000Y-117400000D03*
X160800000Y-130800000D03*
X151200000Y-130800000D03*
X155000002Y-130800000D03*
X157800000Y-130800000D03*
X148200000Y-130800000D03*
X145200000Y-130800000D03*
X142200000Y-130800000D03*
X139000000Y-130800000D03*
X131200000Y-127600000D03*
X129400000Y-125800000D03*
X127400000Y-123800000D03*
X125600000Y-122000000D03*
X124000000Y-120400000D03*
X122200000Y-118600000D03*
X120400000Y-116800000D03*
X119000000Y-115400000D03*
X119000000Y-113200000D03*
X119000000Y-111000000D03*
X119000000Y-108800000D03*
X119000000Y-106400000D03*
X119000000Y-103800000D03*
X119000000Y-101400000D03*
X148200000Y-133400000D03*
X145200000Y-133400000D03*
X139000000Y-133400000D03*
X142200000Y-133599998D03*
X129200000Y-129200000D03*
X127200000Y-127400000D03*
X125200000Y-125600000D03*
X123400000Y-123800000D03*
X121800000Y-122200000D03*
X119800000Y-120200000D03*
X118000000Y-118400000D03*
X116400000Y-116200000D03*
X116400000Y-113200000D03*
X116400000Y-111000000D03*
X116400000Y-108600000D03*
X130400000Y-114800000D03*
X133000000Y-114800000D03*
X133000000Y-117600000D03*
X136000000Y-117800000D03*
X136000000Y-114800000D03*
X133000000Y-105600000D03*
X135800000Y-105600000D03*
X136000000Y-107400000D03*
X133200000Y-107400000D03*
X119000000Y-98600000D03*
X119000000Y-96600000D03*
X119200000Y-94600000D03*
X120600000Y-92400000D03*
X122600000Y-90200000D03*
X124800000Y-88600000D03*
X127200000Y-88800000D03*
X127400000Y-85500000D03*
X112500000Y-130000000D03*
X112500000Y-127500000D03*
X112500000Y-125000000D03*
X112500000Y-122500000D03*
X112500000Y-120000000D03*
X112500000Y-117500000D03*
X112500000Y-115000000D03*
X112500000Y-110000000D03*
X112500000Y-107500000D03*
X112500000Y-92500000D03*
X112500000Y-90000000D03*
X112500000Y-87500000D03*
X112500000Y-85500000D03*
X112500000Y-82500000D03*
X112500000Y-80000000D03*
X112500000Y-77500000D03*
X112500000Y-75000000D03*
X112500000Y-72500000D03*
X112500000Y-70000000D03*
X120000000Y-62500000D03*
X122500000Y-62500000D03*
X125000000Y-62500000D03*
X127500000Y-62500000D03*
X130000000Y-62500000D03*
X132500000Y-62500000D03*
X135000000Y-62500000D03*
X137500000Y-62500000D03*
X140000000Y-62500000D03*
X142500000Y-62500000D03*
X145000000Y-62500000D03*
X147500000Y-62500000D03*
X151158051Y-133358051D03*
X156185936Y-126524990D03*
X115000000Y-85500000D03*
X117500000Y-85500000D03*
X120000000Y-85500000D03*
X122500000Y-85500000D03*
X125000000Y-85500000D03*
X111000000Y-98500000D03*
X111000000Y-102000000D03*
X113000000Y-98500000D03*
X115000000Y-98500000D03*
X117000000Y-98500000D03*
X113000000Y-102000000D03*
X115000000Y-102000000D03*
X116500000Y-102000000D03*
X111000000Y-106500000D03*
X144000000Y-107000000D03*
X142000000Y-104500000D03*
X139500000Y-102000000D03*
X138000000Y-100500000D03*
X133500000Y-96500000D03*
X131500000Y-96500000D03*
X136000000Y-98500000D03*
X150850000Y-113750000D03*
X148800000Y-111850000D03*
X152449990Y-114000000D03*
X115000000Y-87500000D03*
X117500000Y-87500000D03*
X120000000Y-87500000D03*
X122500000Y-87500000D03*
X120000000Y-90000000D03*
X117500000Y-90000000D03*
X115000000Y-90000000D03*
X115000000Y-92500000D03*
X117500000Y-92500000D03*
X120000000Y-102500000D03*
X120000000Y-105000000D03*
X120000000Y-107500000D03*
X127500000Y-102500000D03*
X127500000Y-105000000D03*
X127500000Y-107500000D03*
X115000000Y-107500000D03*
X115000000Y-110000000D03*
X117500000Y-122500000D03*
X122500000Y-127500000D03*
X127500000Y-132500000D03*
X130000000Y-122500000D03*
X132500000Y-125000000D03*
X135000000Y-127500000D03*
X137500000Y-127500000D03*
X142500000Y-127500000D03*
X145000000Y-127500000D03*
X147500000Y-127500000D03*
X150000000Y-127500000D03*
X140000000Y-127500000D03*
X122500000Y-115000000D03*
X125000000Y-117500000D03*
X125000000Y-115000000D03*
X145000000Y-117500000D03*
X147500000Y-117500000D03*
X147500000Y-115000000D03*
X145000000Y-115000000D03*
X145000000Y-112500000D03*
X142500000Y-107500000D03*
X120000000Y-65000000D03*
X125000000Y-65000000D03*
X130000000Y-65000000D03*
X135000000Y-65000000D03*
X140000000Y-65000000D03*
X145000000Y-65000000D03*
X140000000Y-70000000D03*
X135000000Y-70000000D03*
X130000000Y-70000000D03*
X120000000Y-70000000D03*
X115000000Y-70000000D03*
X115000000Y-75000000D03*
X120000000Y-75000000D03*
X120000000Y-80000000D03*
X115000000Y-80000000D03*
X175000000Y-115000000D03*
X180000000Y-115000000D03*
X185000000Y-115000000D03*
X190000000Y-115000000D03*
X190000000Y-110000000D03*
X190000000Y-105500000D03*
X185000000Y-110000000D03*
X208000000Y-87500000D03*
X208000000Y-90000000D03*
X208000000Y-92500000D03*
X208000000Y-95000000D03*
X208000000Y-100000000D03*
X208000000Y-97500000D03*
X208000000Y-102500000D03*
X208000000Y-105000000D03*
X208000000Y-107500000D03*
X208000000Y-110000000D03*
X208000000Y-112500000D03*
X208000000Y-115000000D03*
X207500000Y-117500000D03*
X207500000Y-120000000D03*
X207500000Y-122500000D03*
X207500000Y-125000000D03*
X207500000Y-127500000D03*
X207500000Y-130000000D03*
X200000000Y-137500000D03*
X197500000Y-137500000D03*
X195000000Y-137500000D03*
X192500000Y-137500000D03*
X190000000Y-137500000D03*
X187500000Y-137500000D03*
X185000000Y-137500000D03*
X182500000Y-137500000D03*
X208000000Y-85000000D03*
X208000000Y-82500000D03*
X207500000Y-77500000D03*
X207500000Y-75000000D03*
X207500000Y-72500000D03*
X207500000Y-70000000D03*
X200000000Y-62500000D03*
X195000000Y-62500000D03*
X197500000Y-62500000D03*
X192500000Y-62500000D03*
X190000000Y-62500000D03*
X185000000Y-62500000D03*
X187500000Y-62500000D03*
X182500000Y-62500000D03*
X180000000Y-62500000D03*
X177500000Y-62500000D03*
X175000000Y-62500000D03*
X172500000Y-62500000D03*
X170000000Y-62500000D03*
X167500000Y-62500000D03*
X165000000Y-62500000D03*
X162500000Y-62500000D03*
X160000000Y-62500000D03*
X157500000Y-62500000D03*
X155000000Y-62500000D03*
X152500000Y-62500000D03*
X150000000Y-62500000D03*
X185000000Y-120000000D03*
X185000000Y-125000000D03*
X185000000Y-130000000D03*
X185000000Y-135000000D03*
X190000000Y-120000000D03*
X195000000Y-120000000D03*
X200000000Y-120000000D03*
X205000000Y-120000000D03*
X184800000Y-79625010D03*
X205000000Y-95000000D03*
X205000000Y-90000000D03*
X205000000Y-75000000D03*
X205000000Y-70000000D03*
X200000000Y-65000000D03*
X195000000Y-65000000D03*
X190000000Y-65000000D03*
X185000000Y-65000000D03*
X180000000Y-65000000D03*
X175000000Y-65000000D03*
X170000000Y-65000000D03*
X165000000Y-65000000D03*
X160000000Y-65000000D03*
X155000000Y-65000000D03*
X150000000Y-65000000D03*
X190000000Y-125000000D03*
X195000000Y-125000000D03*
X200000000Y-125000000D03*
X205000000Y-125000000D03*
X205000000Y-130000000D03*
X200000000Y-130000000D03*
X195000000Y-130000000D03*
X190000000Y-130000000D03*
X190000000Y-135000000D03*
X195000000Y-135000000D03*
X200000000Y-135000000D03*
X125000000Y-130000000D03*
X120000000Y-125000000D03*
X115000000Y-120000000D03*
X115000000Y-125000000D03*
X120000000Y-130000000D03*
X125000000Y-135000000D03*
X120000000Y-135000000D03*
X115000000Y-130000000D03*
X130000000Y-135000000D03*
X180000000Y-120000000D03*
X180000000Y-125000000D03*
X180000000Y-130000000D03*
X180000000Y-135000000D03*
X174000000Y-119000000D03*
X174000000Y-121000000D03*
X174000000Y-123000000D03*
X174000000Y-125000000D03*
X174000000Y-127000000D03*
X174000000Y-129000000D03*
X174000000Y-131000000D03*
X174000000Y-133000000D03*
X172500000Y-130000000D03*
X170000000Y-130000000D03*
X167500000Y-130000000D03*
X167500000Y-127500000D03*
X170000000Y-127500000D03*
X172500000Y-127500000D03*
X172500000Y-125000000D03*
X172500000Y-122500000D03*
X172500000Y-120000000D03*
X172500000Y-117500000D03*
X170000000Y-125000000D03*
X165000000Y-133500000D03*
X167500000Y-133500000D03*
X170000000Y-133500000D03*
X172500000Y-133500000D03*
X170600000Y-118100000D03*
X156200000Y-133400000D03*
X170600000Y-116400000D03*
X165600000Y-124400000D03*
X158600000Y-133400000D03*
X165800000Y-126000000D03*
X161400000Y-133400000D03*
X169400000Y-123600000D03*
X167400000Y-124400000D03*
X170600000Y-121600000D03*
X170600000Y-119800000D03*
X170200000Y-115000000D03*
X166600000Y-128200002D03*
X161200000Y-111600000D03*
X163200000Y-111600000D03*
X168799988Y-113600000D03*
X167200000Y-112000000D03*
X165400000Y-111600000D03*
X176600000Y-88000000D03*
X194100012Y-96700000D03*
X192700014Y-96700000D03*
X193400000Y-96700000D03*
X194000000Y-104000000D03*
X194000000Y-113000000D03*
X170000000Y-112000000D03*
X194000000Y-108000000D03*
X177000000Y-106000000D03*
X176000000Y-110000000D03*
X190000000Y-104000000D03*
X185000000Y-112500000D03*
X190000000Y-112500000D03*
X180000000Y-112500000D03*
X175000000Y-112500000D03*
X173000000Y-115000000D03*
X174200000Y-87000000D03*
X172600000Y-87100032D03*
X173500000Y-75500000D03*
X176000000Y-79500000D03*
X176000000Y-75500000D03*
X171000000Y-75500000D03*
X171000000Y-79500000D03*
X170500000Y-77500000D03*
X176500000Y-77500000D03*
X171000000Y-74000000D03*
X173000000Y-74000000D03*
X175000000Y-74000000D03*
X177000000Y-74000000D03*
X169000000Y-74000000D03*
X169000000Y-72000000D03*
X171000000Y-72000000D03*
X173000000Y-72000000D03*
X175000000Y-72000000D03*
X177000000Y-72000000D03*
X177000000Y-70000000D03*
X175000000Y-70000000D03*
X173000000Y-70000000D03*
X171000000Y-70000000D03*
X169000000Y-70000000D03*
X171000000Y-81000000D03*
X176000000Y-81000000D03*
X173395000Y-81000000D03*
X173400000Y-79400000D03*
X165000000Y-70000000D03*
X167000000Y-70000000D03*
X167000000Y-72000000D03*
X163990000Y-132950000D03*
X165377580Y-131048804D03*
X162900000Y-130400000D03*
X136000000Y-133400000D03*
X133000000Y-133200000D03*
X131000000Y-131200000D03*
X133000000Y-129400000D03*
X136000000Y-130800000D03*
X170400000Y-107100000D03*
X164300000Y-104200000D03*
X159000000Y-106900000D03*
X159200000Y-102800000D03*
X151200000Y-79800000D03*
X165199997Y-79299997D03*
X165200004Y-80200000D03*
X145200000Y-77700000D03*
X130600000Y-85200000D03*
X130600000Y-83600000D03*
X130600000Y-81800000D03*
X130600000Y-80000000D03*
X145000000Y-70000000D03*
X149000000Y-70000000D03*
X143500000Y-96500000D03*
X137500000Y-89450000D03*
X153600000Y-86050000D03*
X149300000Y-86750000D03*
X170900000Y-89700000D03*
X172100000Y-88300000D03*
X159041949Y-100641949D03*
X170400000Y-87200000D03*
X180200000Y-85800000D03*
X183900000Y-85600000D03*
X200200000Y-96100000D03*
X167300000Y-97275000D03*
X185598297Y-89908152D03*
X187737500Y-90361764D03*
X183100000Y-100800000D03*
X188400000Y-102000000D03*
X164600000Y-92000000D03*
X169300010Y-91900000D03*
X132300000Y-86900000D03*
X135390018Y-90090018D03*
X166499996Y-81100000D03*
X168780002Y-81120002D03*
X138155923Y-91105923D03*
X140825010Y-93824990D03*
X140300006Y-83400000D03*
X140300003Y-80300000D03*
X140300000Y-84900000D03*
X165310087Y-87450013D03*
X165300000Y-86074990D03*
X193452500Y-86947500D03*
X185600010Y-91600000D03*
X173400000Y-91200000D03*
X175000000Y-91199986D03*
X134100000Y-90300000D03*
X129600004Y-77200000D03*
X189700000Y-85200000D03*
X189800000Y-87300000D03*
X145000000Y-71999990D03*
X145000000Y-74400008D03*
X156600000Y-122200000D03*
X120400000Y-113000000D03*
X115600000Y-112800000D03*
X152999998Y-133600006D03*
X153000000Y-130000000D03*
X154800000Y-125800000D03*
X175400000Y-117500000D03*
X175400008Y-119400000D03*
X191204449Y-91795549D03*
X192200000Y-91800000D03*
X192800000Y-87489998D03*
X120400000Y-111800000D03*
X114800000Y-111800000D03*
X176400000Y-117499998D03*
X176300000Y-119399998D03*
X154400000Y-122300000D03*
X152600000Y-135200000D03*
X153600000Y-125800000D03*
X152200000Y-130000000D03*
X177400000Y-116149988D03*
X177200000Y-119400000D03*
X188500000Y-91200000D03*
X185574924Y-90759346D03*
X164634478Y-91150704D03*
X170053115Y-92975021D03*
X164600000Y-93000000D03*
X169200000Y-93000000D03*
X141800015Y-79000000D03*
X141904421Y-86200000D03*
X141100000Y-79499984D03*
X141100000Y-86200004D03*
D23*
X139300000Y-112600000D02*
X136000000Y-112600000D01*
X204505000Y-107645000D02*
X202700024Y-109449976D01*
X202700024Y-110575736D02*
X202700024Y-111000000D01*
X202700024Y-109449976D02*
X202700024Y-110575736D01*
X113900000Y-104450000D02*
X113900000Y-106300000D01*
X139300000Y-112600000D02*
X142000000Y-109900000D01*
X142000000Y-109900000D02*
X142000000Y-109600000D01*
X133000000Y-112600000D02*
X130500000Y-112600000D01*
X130500000Y-112600000D02*
X130400000Y-112500000D01*
D24*
X205800000Y-106350000D02*
X204505000Y-107645000D01*
X205800000Y-106250000D02*
X205800000Y-106350000D01*
D23*
X120000000Y-137500000D02*
X122500000Y-137500000D01*
X125000000Y-137500000D02*
X127500000Y-137500000D01*
X130000000Y-137500000D02*
X132500000Y-137500000D01*
X135000000Y-137500000D02*
X137500000Y-137500000D01*
X140000000Y-137500000D02*
X142500000Y-137500000D01*
X145000000Y-137500000D02*
X147500000Y-137500000D01*
X150000000Y-137500000D02*
X152500000Y-137500000D01*
X155000000Y-137500000D02*
X157500000Y-137500000D01*
X160000000Y-137500000D02*
X162500000Y-137500000D01*
X165000000Y-137500000D02*
X167500000Y-137500000D01*
X170000000Y-137500000D02*
X172500000Y-137500000D01*
X175000000Y-137500000D02*
X177500000Y-137500000D01*
X114000012Y-106400012D02*
X113900000Y-106300000D01*
X116200000Y-106400012D02*
X114000012Y-106400012D01*
X148800000Y-125600000D02*
X150800000Y-125600000D01*
X147000000Y-125599992D02*
X144600008Y-125599992D01*
X144600008Y-125599992D02*
X144600000Y-125600000D01*
X142400000Y-125600000D02*
X140000000Y-125600000D01*
X137400000Y-125600000D02*
X136800000Y-125600000D01*
X136800000Y-125600000D02*
X135400000Y-124200000D01*
X144400000Y-122000000D02*
X142400000Y-122000000D01*
X134600000Y-113800000D02*
X134600000Y-115200000D01*
X134600000Y-113800000D02*
X134600000Y-111400000D01*
X134600000Y-109600000D02*
X134600000Y-107800000D01*
X134600000Y-105600000D02*
X134600000Y-103000000D01*
X134600000Y-103000000D02*
X132600000Y-101000000D01*
X132600000Y-101000000D02*
X135600000Y-101000000D01*
X135600000Y-101000000D02*
X136000000Y-100600000D01*
X130600000Y-101000000D02*
X128600000Y-101000000D01*
X178400000Y-108000000D02*
X178400000Y-106400000D01*
X182400000Y-108000000D02*
X182400000Y-106200000D01*
X125400000Y-71400000D02*
X127000000Y-71400000D01*
X125400000Y-67400000D02*
X123800000Y-67400000D01*
X166100000Y-114600000D02*
X166100000Y-114500000D01*
X166400000Y-116000006D02*
X166100001Y-115700007D01*
X166100001Y-115700007D02*
X166100000Y-114600000D01*
X162600000Y-114000000D02*
X164700000Y-114000000D01*
X167600000Y-120000004D02*
X167600000Y-120575724D01*
X167600000Y-120575724D02*
X167600000Y-120999988D01*
X168000000Y-119600004D02*
X167600000Y-120000004D01*
X156200000Y-129000000D02*
X159000000Y-129000000D01*
X159000000Y-129000000D02*
X160500001Y-130500001D01*
X160500001Y-130500001D02*
X160800000Y-130800000D01*
X155000002Y-130800000D02*
X157800000Y-130800000D01*
X151200000Y-130800000D02*
X148200000Y-130800000D01*
X145200000Y-130800000D02*
X142200000Y-130800000D01*
X139000000Y-130800000D02*
X136000000Y-130800000D01*
X133000000Y-129400000D02*
X131200000Y-127600000D01*
X129400000Y-125800000D02*
X127400000Y-123800000D01*
X125600000Y-122000000D02*
X124000000Y-120400000D01*
X122200000Y-118600000D02*
X120400000Y-116800000D01*
X119000000Y-115400000D02*
X119000000Y-113200000D01*
X119000000Y-111000000D02*
X119000000Y-108800000D01*
X119000000Y-106400000D02*
X119000000Y-103800000D01*
X148200000Y-133400000D02*
X145200000Y-133400000D01*
X139000000Y-133400000D02*
X142000002Y-133400000D01*
X142000002Y-133400000D02*
X142200000Y-133599998D01*
X168600000Y-124400000D02*
X169100001Y-123899999D01*
X165800000Y-126000000D02*
X166600000Y-126800000D01*
X170200000Y-115000000D02*
X170600000Y-115400000D01*
X161400000Y-133400000D02*
X158600000Y-133400000D01*
X166600000Y-126800000D02*
X166600000Y-127775738D01*
X170600000Y-115975736D02*
X170600000Y-116400000D01*
X170600000Y-115400000D02*
X170600000Y-115975736D01*
X170600000Y-118100000D02*
X170600000Y-119800000D01*
X167400000Y-124400000D02*
X168600000Y-124400000D01*
X166600000Y-127775738D02*
X166600000Y-128200002D01*
X169100001Y-123899999D02*
X169400000Y-123600000D01*
X170600000Y-119800000D02*
X170600000Y-121600000D01*
X167200000Y-112000000D02*
X168799988Y-113599988D01*
X168799988Y-113599988D02*
X168799988Y-113600000D01*
X162600000Y-114000000D02*
X162600000Y-113000000D01*
X163200000Y-111600000D02*
X165400000Y-111600000D01*
X162600000Y-113000000D02*
X161200000Y-111600000D01*
X194100012Y-96700000D02*
X193400000Y-96700000D01*
X164790000Y-131636384D02*
X165377580Y-131048804D01*
X164790000Y-132620000D02*
X164790000Y-131636384D01*
X163990000Y-132950000D02*
X164460000Y-132950000D01*
X164460000Y-132950000D02*
X164790000Y-132620000D01*
X185598297Y-89908152D02*
X187283888Y-89908152D01*
X187437501Y-90061765D02*
X187737500Y-90361764D01*
X187283888Y-89908152D02*
X187437501Y-90061765D01*
X183100000Y-100800000D02*
X184300000Y-102000000D01*
X184300000Y-102000000D02*
X188400000Y-102000000D01*
X169300010Y-91900000D02*
X164700000Y-91900000D01*
X164700000Y-91900000D02*
X164600000Y-92000000D01*
D24*
X132300000Y-86900000D02*
X135390018Y-89990018D01*
X135390018Y-89990018D02*
X135390018Y-90090018D01*
D23*
X166499996Y-81100000D02*
X168760000Y-81100000D01*
X168760000Y-81100000D02*
X168780002Y-81120002D01*
D24*
X138155923Y-91105923D02*
X138155923Y-91155903D01*
X138155923Y-91155903D02*
X140825010Y-93824990D01*
D23*
X140300003Y-83399997D02*
X140300006Y-83400000D01*
X140300003Y-80300000D02*
X140300003Y-83399997D01*
X140300000Y-83400006D02*
X140300006Y-83400000D01*
X140300000Y-84900000D02*
X140300000Y-83400006D01*
X165310087Y-86085077D02*
X165300000Y-86074990D01*
X165310087Y-87450013D02*
X165310087Y-86085077D01*
X175000000Y-91199986D02*
X173400014Y-91199986D01*
X173400014Y-91199986D02*
X173400000Y-91200000D01*
X174900014Y-91199986D02*
X175000000Y-91199986D01*
X187100000Y-91600000D02*
X185600010Y-91600000D01*
X193452500Y-91472502D02*
X192500001Y-92425001D01*
X192500001Y-92425001D02*
X190725006Y-92425001D01*
X190725006Y-92425001D02*
X190200004Y-91899999D01*
X190200004Y-91899999D02*
X187399999Y-91899999D01*
X193452500Y-86947500D02*
X193452500Y-91472502D01*
X187399999Y-91899999D02*
X187100000Y-91600000D01*
D24*
X204015000Y-103165000D02*
X205800000Y-104950000D01*
D23*
X129600004Y-85800004D02*
X129600004Y-77624264D01*
X129600004Y-77624264D02*
X129600004Y-77200000D01*
X134100000Y-90300000D02*
X129600004Y-85800004D01*
X189700000Y-85200000D02*
X189700000Y-87200000D01*
X189700000Y-87200000D02*
X189800000Y-87300000D01*
X145000000Y-71999990D02*
X145000000Y-74400008D01*
X115825001Y-112574999D02*
X115600000Y-112800000D01*
X120400000Y-113000000D02*
X119974999Y-112574999D01*
X119974999Y-112574999D02*
X115825001Y-112574999D01*
X152999998Y-133600006D02*
X152999998Y-130000002D01*
X152999998Y-130000002D02*
X153000000Y-130000000D01*
X155000000Y-123800000D02*
X155000000Y-125400000D01*
X156600000Y-122200000D02*
X155000000Y-123800000D01*
X155000000Y-125400000D02*
X155000000Y-125600000D01*
X155000000Y-125600000D02*
X154800000Y-125800000D01*
X175400008Y-119400000D02*
X175400008Y-117500008D01*
X175400008Y-117500008D02*
X175400000Y-117500000D01*
X191200000Y-91791100D02*
X191204449Y-91795549D01*
X189800000Y-87300000D02*
X191200000Y-88700000D01*
X191200000Y-88700000D02*
X191200000Y-91791100D01*
X120400000Y-111800000D02*
X114800000Y-111800000D01*
X176300000Y-119399998D02*
X176300000Y-117599998D01*
X176300000Y-117599998D02*
X176400000Y-117499998D01*
X192800000Y-87500000D02*
X192800000Y-87489998D01*
X192182500Y-88117500D02*
X192800000Y-87500000D01*
X192200000Y-91800000D02*
X192182500Y-91782500D01*
X192182500Y-91782500D02*
X192182500Y-88117500D01*
X152200000Y-134800000D02*
X152200000Y-130424264D01*
X152200000Y-130424264D02*
X152200000Y-130000000D01*
X152600000Y-135200000D02*
X152200000Y-134800000D01*
X153600000Y-125600000D02*
X153600000Y-125800000D01*
X154400000Y-122300000D02*
X154400000Y-124800000D01*
X154400000Y-124800000D02*
X153600000Y-125600000D01*
X177200000Y-116349988D02*
X177400000Y-116149988D01*
X177200000Y-119400000D02*
X177200000Y-116349988D01*
X187159346Y-90759346D02*
X185574924Y-90759346D01*
X188500000Y-91200000D02*
X187600000Y-91200000D01*
X187600000Y-91200000D02*
X187159346Y-90759346D01*
X165058742Y-91150704D02*
X164634478Y-91150704D01*
X169675708Y-91150704D02*
X165058742Y-91150704D01*
X170053115Y-91528111D02*
X169675708Y-91150704D01*
X170053115Y-92975021D02*
X170053115Y-91528111D01*
X169200000Y-93000000D02*
X164600000Y-93000000D01*
X141800015Y-79000000D02*
X141800015Y-86095594D01*
X141800015Y-86095594D02*
X141904421Y-86200000D01*
X141100000Y-79499984D02*
X141100000Y-86200004D01*
D25*
G36*
X209340001Y-139340000D02*
G01*
X110660000Y-139340000D01*
X110660000Y-137700881D01*
X112478724Y-137700881D01*
X112838912Y-138190548D01*
X113502882Y-138550849D01*
X114224385Y-138774694D01*
X114975695Y-138853480D01*
X115727938Y-138784178D01*
X116452208Y-138569452D01*
X117120670Y-138217555D01*
X117161088Y-138190548D01*
X117521276Y-137700881D01*
X202478724Y-137700881D01*
X202838912Y-138190548D01*
X203502882Y-138550849D01*
X204224385Y-138774694D01*
X204975695Y-138853480D01*
X205727938Y-138784178D01*
X206452208Y-138569452D01*
X207120670Y-138217555D01*
X207161088Y-138190548D01*
X207521276Y-137700881D01*
X205000000Y-135179605D01*
X202478724Y-137700881D01*
X117521276Y-137700881D01*
X115000000Y-135179605D01*
X112478724Y-137700881D01*
X110660000Y-137700881D01*
X110660000Y-134975695D01*
X111146520Y-134975695D01*
X111215822Y-135727938D01*
X111430548Y-136452208D01*
X111782445Y-137120670D01*
X111809452Y-137161088D01*
X112299119Y-137521276D01*
X114820395Y-135000000D01*
X115179605Y-135000000D01*
X117700881Y-137521276D01*
X118190548Y-137161088D01*
X118550849Y-136497118D01*
X118774694Y-135775615D01*
X118853480Y-135024305D01*
X118784178Y-134272062D01*
X118569452Y-133547792D01*
X118217555Y-132879330D01*
X118190548Y-132838912D01*
X117700881Y-132478724D01*
X115179605Y-135000000D01*
X114820395Y-135000000D01*
X112299119Y-132478724D01*
X111809452Y-132838912D01*
X111449151Y-133502882D01*
X111225306Y-134224385D01*
X111146520Y-134975695D01*
X110660000Y-134975695D01*
X110660000Y-132299119D01*
X112478724Y-132299119D01*
X115000000Y-134820395D01*
X117521276Y-132299119D01*
X117161088Y-131809452D01*
X116497118Y-131449151D01*
X115775615Y-131225306D01*
X115024305Y-131146520D01*
X114272062Y-131215822D01*
X113547792Y-131430548D01*
X112879330Y-131782445D01*
X112838912Y-131809452D01*
X112478724Y-132299119D01*
X110660000Y-132299119D01*
X110660000Y-112527000D01*
X114205076Y-112527000D01*
X114357111Y-112628586D01*
X114527271Y-112699068D01*
X114665000Y-112726464D01*
X114665000Y-112892089D01*
X114700932Y-113072729D01*
X114771414Y-113242889D01*
X114873000Y-113394924D01*
X114873000Y-118000000D01*
X114875440Y-118024776D01*
X114882667Y-118048601D01*
X114894403Y-118070557D01*
X114910197Y-118089803D01*
X132910197Y-136089803D01*
X132929443Y-136105597D01*
X132951399Y-136117333D01*
X132975224Y-136124560D01*
X133000000Y-136127000D01*
X152467693Y-136127000D01*
X152507911Y-136135000D01*
X152692089Y-136135000D01*
X152732307Y-136127000D01*
X176000000Y-136127000D01*
X176024776Y-136124560D01*
X176048601Y-136117333D01*
X176070557Y-136105597D01*
X176089803Y-136089803D01*
X176105597Y-136070557D01*
X176117333Y-136048601D01*
X176124560Y-136024776D01*
X176127000Y-136000000D01*
X176127000Y-134975695D01*
X201146520Y-134975695D01*
X201215822Y-135727938D01*
X201430548Y-136452208D01*
X201782445Y-137120670D01*
X201809452Y-137161088D01*
X202299119Y-137521276D01*
X204820395Y-135000000D01*
X205179605Y-135000000D01*
X207700881Y-137521276D01*
X208190548Y-137161088D01*
X208550849Y-136497118D01*
X208774694Y-135775615D01*
X208853480Y-135024305D01*
X208784178Y-134272062D01*
X208569452Y-133547792D01*
X208217555Y-132879330D01*
X208190548Y-132838912D01*
X207700881Y-132478724D01*
X205179605Y-135000000D01*
X204820395Y-135000000D01*
X202299119Y-132478724D01*
X201809452Y-132838912D01*
X201449151Y-133502882D01*
X201225306Y-134224385D01*
X201146520Y-134975695D01*
X176127000Y-134975695D01*
X176127000Y-132299119D01*
X202478724Y-132299119D01*
X205000000Y-134820395D01*
X207521276Y-132299119D01*
X207161088Y-131809452D01*
X206497118Y-131449151D01*
X205775615Y-131225306D01*
X205024305Y-131146520D01*
X204272062Y-131215822D01*
X203547792Y-131430548D01*
X202879330Y-131782445D01*
X202838912Y-131809452D01*
X202478724Y-132299119D01*
X176127000Y-132299119D01*
X176127000Y-120318904D01*
X176207911Y-120334998D01*
X176392089Y-120334998D01*
X176572729Y-120299066D01*
X176742889Y-120228584D01*
X176749999Y-120223834D01*
X176757111Y-120228586D01*
X176927271Y-120299068D01*
X177107911Y-120335000D01*
X177292089Y-120335000D01*
X177472729Y-120299068D01*
X177642889Y-120228586D01*
X177796028Y-120126262D01*
X177926262Y-119996028D01*
X178028586Y-119842889D01*
X178099068Y-119672729D01*
X178135000Y-119492089D01*
X178135000Y-119307911D01*
X178099068Y-119127271D01*
X178028586Y-118957111D01*
X177960000Y-118854465D01*
X177960000Y-116900323D01*
X177996028Y-116876250D01*
X178126262Y-116746016D01*
X178228586Y-116592877D01*
X178299068Y-116422717D01*
X178335000Y-116242077D01*
X178335000Y-116057899D01*
X178299068Y-115877259D01*
X178228586Y-115707099D01*
X178126262Y-115553960D01*
X177996028Y-115423726D01*
X177842889Y-115321402D01*
X177672729Y-115250920D01*
X177492089Y-115214988D01*
X177307911Y-115214988D01*
X177127271Y-115250920D01*
X176957111Y-115321402D01*
X176803972Y-115423726D01*
X176673738Y-115553960D01*
X176571414Y-115707099D01*
X176500932Y-115877259D01*
X176465000Y-116057899D01*
X176465000Y-116154843D01*
X176450998Y-116201002D01*
X176440001Y-116312655D01*
X176436324Y-116349988D01*
X176440001Y-116387320D01*
X176440001Y-116564998D01*
X176307911Y-116564998D01*
X176127271Y-116600930D01*
X175957111Y-116671412D01*
X175899999Y-116709573D01*
X175842889Y-116671414D01*
X175672729Y-116600932D01*
X175492089Y-116565000D01*
X175307911Y-116565000D01*
X175127271Y-116600932D01*
X174957111Y-116671414D01*
X174803972Y-116773738D01*
X174704710Y-116873000D01*
X174052606Y-116873000D01*
X171884327Y-114704721D01*
X201880000Y-114704721D01*
X201880000Y-115125279D01*
X201962047Y-115537756D01*
X202122988Y-115926302D01*
X202356637Y-116275983D01*
X202654017Y-116573363D01*
X203003698Y-116807012D01*
X203392244Y-116967953D01*
X203804721Y-117050000D01*
X204225279Y-117050000D01*
X204637756Y-116967953D01*
X205026302Y-116807012D01*
X205375983Y-116573363D01*
X205673363Y-116275983D01*
X205907012Y-115926302D01*
X206067953Y-115537756D01*
X206150000Y-115125279D01*
X206150000Y-114704721D01*
X206067953Y-114292244D01*
X205907012Y-113903698D01*
X205673363Y-113554017D01*
X205375983Y-113256637D01*
X205026302Y-113022988D01*
X204637756Y-112862047D01*
X204225279Y-112780000D01*
X203804721Y-112780000D01*
X203392244Y-112862047D01*
X203003698Y-113022988D01*
X202654017Y-113256637D01*
X202356637Y-113554017D01*
X202122988Y-113903698D01*
X201962047Y-114292244D01*
X201880000Y-114704721D01*
X171884327Y-114704721D01*
X168127000Y-110947394D01*
X168127000Y-106945000D01*
X199966928Y-106945000D01*
X199966928Y-108345000D01*
X199979188Y-108469482D01*
X200015498Y-108589180D01*
X200074463Y-108699494D01*
X200153815Y-108796185D01*
X200250506Y-108875537D01*
X200360820Y-108934502D01*
X200480518Y-108970812D01*
X200605000Y-108983072D01*
X200641013Y-108983072D01*
X200453987Y-109108038D01*
X200268038Y-109293987D01*
X200121939Y-109512641D01*
X200021304Y-109755595D01*
X199970000Y-110013514D01*
X199970000Y-110276486D01*
X200021304Y-110534405D01*
X200121939Y-110777359D01*
X200268038Y-110996013D01*
X200453987Y-111181962D01*
X200672641Y-111328061D01*
X200915595Y-111428696D01*
X201173514Y-111480000D01*
X201436486Y-111480000D01*
X201694405Y-111428696D01*
X201937359Y-111328061D01*
X202156013Y-111181962D01*
X202341962Y-110996013D01*
X202488061Y-110777359D01*
X202588696Y-110534405D01*
X202640000Y-110276486D01*
X202640000Y-110013514D01*
X203170000Y-110013514D01*
X203170000Y-110276486D01*
X203221304Y-110534405D01*
X203321939Y-110777359D01*
X203468038Y-110996013D01*
X203653987Y-111181962D01*
X203872641Y-111328061D01*
X204115595Y-111428696D01*
X204373514Y-111480000D01*
X204636486Y-111480000D01*
X204894405Y-111428696D01*
X205137359Y-111328061D01*
X205356013Y-111181962D01*
X205541962Y-110996013D01*
X205688061Y-110777359D01*
X205788696Y-110534405D01*
X205840000Y-110276486D01*
X205840000Y-110013514D01*
X205788696Y-109755595D01*
X205688061Y-109512641D01*
X205541962Y-109293987D01*
X205356013Y-109108038D01*
X205137359Y-108961939D01*
X204974882Y-108894639D01*
X205086366Y-108853935D01*
X205187203Y-108800037D01*
X205246664Y-108566269D01*
X204505000Y-107824605D01*
X203763336Y-108566269D01*
X203822797Y-108800037D01*
X204030404Y-108896592D01*
X203872641Y-108961939D01*
X203653987Y-109108038D01*
X203468038Y-109293987D01*
X203321939Y-109512641D01*
X203221304Y-109755595D01*
X203170000Y-110013514D01*
X202640000Y-110013514D01*
X202588696Y-109755595D01*
X202488061Y-109512641D01*
X202341962Y-109293987D01*
X202156013Y-109108038D01*
X201968987Y-108983072D01*
X202005000Y-108983072D01*
X202129482Y-108970812D01*
X202249180Y-108934502D01*
X202359494Y-108875537D01*
X202456185Y-108796185D01*
X202535537Y-108699494D01*
X202594502Y-108589180D01*
X202630812Y-108469482D01*
X202643072Y-108345000D01*
X202643072Y-107719473D01*
X203165610Y-107719473D01*
X203205875Y-107979344D01*
X203296065Y-108226366D01*
X203349963Y-108327203D01*
X203583731Y-108386664D01*
X204325395Y-107645000D01*
X204684605Y-107645000D01*
X205426269Y-108386664D01*
X205660037Y-108327203D01*
X205770934Y-108088758D01*
X205833183Y-107833260D01*
X205844390Y-107570527D01*
X205804125Y-107310656D01*
X205713935Y-107063634D01*
X205660037Y-106962797D01*
X205426269Y-106903336D01*
X204684605Y-107645000D01*
X204325395Y-107645000D01*
X203583731Y-106903336D01*
X203349963Y-106962797D01*
X203239066Y-107201242D01*
X203176817Y-107456740D01*
X203165610Y-107719473D01*
X202643072Y-107719473D01*
X202643072Y-106945000D01*
X202630812Y-106820518D01*
X202601452Y-106723731D01*
X203763336Y-106723731D01*
X204505000Y-107465395D01*
X205246664Y-106723731D01*
X205187203Y-106489963D01*
X204948758Y-106379066D01*
X204693260Y-106316817D01*
X204430527Y-106305610D01*
X204170656Y-106345875D01*
X203923634Y-106436065D01*
X203822797Y-106489963D01*
X203763336Y-106723731D01*
X202601452Y-106723731D01*
X202594502Y-106700820D01*
X202535537Y-106590506D01*
X202456185Y-106493815D01*
X202359494Y-106414463D01*
X202249180Y-106355498D01*
X202129482Y-106319188D01*
X202005000Y-106306928D01*
X200605000Y-106306928D01*
X200480518Y-106319188D01*
X200360820Y-106355498D01*
X200250506Y-106414463D01*
X200153815Y-106493815D01*
X200074463Y-106590506D01*
X200015498Y-106700820D01*
X199979188Y-106820518D01*
X199966928Y-106945000D01*
X168127000Y-106945000D01*
X168127000Y-106060183D01*
X173580421Y-101598293D01*
X173589803Y-101589803D01*
X173605597Y-101570557D01*
X173617333Y-101548601D01*
X173624560Y-101524776D01*
X173627000Y-101500000D01*
X173627000Y-100707911D01*
X182165000Y-100707911D01*
X182165000Y-100892089D01*
X182200932Y-101072729D01*
X182271414Y-101242889D01*
X182373738Y-101396028D01*
X182503972Y-101526262D01*
X182657111Y-101628586D01*
X182827271Y-101699068D01*
X182948351Y-101723153D01*
X183736201Y-102511003D01*
X183759999Y-102540001D01*
X183875724Y-102634974D01*
X184007753Y-102705546D01*
X184151014Y-102749003D01*
X184262667Y-102760000D01*
X184262676Y-102760000D01*
X184299999Y-102763676D01*
X184337322Y-102760000D01*
X187854465Y-102760000D01*
X187957111Y-102828586D01*
X188127271Y-102899068D01*
X188307911Y-102935000D01*
X188492089Y-102935000D01*
X188672729Y-102899068D01*
X188842889Y-102828586D01*
X188996028Y-102726262D01*
X189057569Y-102664721D01*
X201880000Y-102664721D01*
X201880000Y-103085279D01*
X201962047Y-103497756D01*
X202122988Y-103886302D01*
X202356637Y-104235983D01*
X202654017Y-104533363D01*
X203003698Y-104767012D01*
X203392244Y-104927953D01*
X203804721Y-105010000D01*
X204225279Y-105010000D01*
X204411928Y-104972873D01*
X204411928Y-105450000D01*
X204424188Y-105574482D01*
X204460498Y-105694180D01*
X204519463Y-105804494D01*
X204598815Y-105901185D01*
X204695506Y-105980537D01*
X204805820Y-106039502D01*
X204925518Y-106075812D01*
X205050000Y-106088072D01*
X206550000Y-106088072D01*
X206674482Y-106075812D01*
X206794180Y-106039502D01*
X206904494Y-105980537D01*
X207001185Y-105901185D01*
X207080537Y-105804494D01*
X207139502Y-105694180D01*
X207175812Y-105574482D01*
X207188072Y-105450000D01*
X207188072Y-104950000D01*
X207185664Y-104925550D01*
X207185664Y-104900991D01*
X207173404Y-104776510D01*
X207154282Y-104680377D01*
X207117973Y-104560681D01*
X207080464Y-104470125D01*
X207021498Y-104359808D01*
X206967042Y-104278309D01*
X206887690Y-104181618D01*
X206818382Y-104112310D01*
X206721691Y-104032958D01*
X206640192Y-103978502D01*
X206529875Y-103919536D01*
X206439319Y-103882027D01*
X206319623Y-103845718D01*
X206223490Y-103826596D01*
X206099009Y-103814336D01*
X206074450Y-103814336D01*
X206050000Y-103811928D01*
X205937819Y-103811928D01*
X206067953Y-103497756D01*
X206150000Y-103085279D01*
X206150000Y-102664721D01*
X206067953Y-102252244D01*
X205907012Y-101863698D01*
X205673363Y-101514017D01*
X205375983Y-101216637D01*
X205026302Y-100982988D01*
X204637756Y-100822047D01*
X204225279Y-100740000D01*
X203804721Y-100740000D01*
X203392244Y-100822047D01*
X203003698Y-100982988D01*
X202654017Y-101216637D01*
X202356637Y-101514017D01*
X202122988Y-101863698D01*
X201962047Y-102252244D01*
X201880000Y-102664721D01*
X189057569Y-102664721D01*
X189126262Y-102596028D01*
X189228586Y-102442889D01*
X189299068Y-102272729D01*
X189335000Y-102092089D01*
X189335000Y-101907911D01*
X189299068Y-101727271D01*
X189228586Y-101557111D01*
X189126262Y-101403972D01*
X188996028Y-101273738D01*
X188842889Y-101171414D01*
X188672729Y-101100932D01*
X188492089Y-101065000D01*
X188307911Y-101065000D01*
X188127271Y-101100932D01*
X187957111Y-101171414D01*
X187854465Y-101240000D01*
X184614802Y-101240000D01*
X184023153Y-100648351D01*
X183999068Y-100527271D01*
X183928586Y-100357111D01*
X183826262Y-100203972D01*
X183696028Y-100073738D01*
X183542889Y-99971414D01*
X183372729Y-99900932D01*
X183192089Y-99865000D01*
X183007911Y-99865000D01*
X182827271Y-99900932D01*
X182657111Y-99971414D01*
X182503972Y-100073738D01*
X182373738Y-100203972D01*
X182271414Y-100357111D01*
X182200932Y-100527271D01*
X182165000Y-100707911D01*
X173627000Y-100707911D01*
X173627000Y-92108164D01*
X173672729Y-92099068D01*
X173842889Y-92028586D01*
X173945556Y-91959986D01*
X174454465Y-91959986D01*
X174557111Y-92028572D01*
X174727271Y-92099054D01*
X174907911Y-92134986D01*
X175092089Y-92134986D01*
X175272729Y-92099054D01*
X175442889Y-92028572D01*
X175596028Y-91926248D01*
X175726262Y-91796014D01*
X175828586Y-91642875D01*
X175899068Y-91472715D01*
X175935000Y-91292075D01*
X175935000Y-91107897D01*
X175899068Y-90927257D01*
X175828586Y-90757097D01*
X175768557Y-90667257D01*
X184639924Y-90667257D01*
X184639924Y-90851435D01*
X184675856Y-91032075D01*
X184746338Y-91202235D01*
X184750286Y-91208143D01*
X184700942Y-91327271D01*
X184665010Y-91507911D01*
X184665010Y-91692089D01*
X184700942Y-91872729D01*
X184771424Y-92042889D01*
X184873748Y-92196028D01*
X185003982Y-92326262D01*
X185157121Y-92428586D01*
X185327281Y-92499068D01*
X185507921Y-92535000D01*
X185692099Y-92535000D01*
X185872739Y-92499068D01*
X186042899Y-92428586D01*
X186145545Y-92360000D01*
X186785199Y-92360000D01*
X186836195Y-92410996D01*
X186859998Y-92440000D01*
X186975723Y-92534973D01*
X187107752Y-92605545D01*
X187251013Y-92649002D01*
X187362666Y-92659999D01*
X187362674Y-92659999D01*
X187399999Y-92663675D01*
X187437324Y-92659999D01*
X189885203Y-92659999D01*
X190161206Y-92936003D01*
X190185005Y-92965002D01*
X190214003Y-92988800D01*
X190300729Y-93059975D01*
X190420522Y-93124006D01*
X190432759Y-93130547D01*
X190576020Y-93174004D01*
X190687673Y-93185001D01*
X190687683Y-93185001D01*
X190725006Y-93188677D01*
X190762329Y-93185001D01*
X192462679Y-93185001D01*
X192500001Y-93188677D01*
X192537323Y-93185001D01*
X192537334Y-93185001D01*
X192648987Y-93174004D01*
X192792248Y-93130547D01*
X192924277Y-93059975D01*
X193040002Y-92965002D01*
X193063805Y-92935999D01*
X193963503Y-92036301D01*
X193992501Y-92012503D01*
X194058991Y-91931485D01*
X194087474Y-91896779D01*
X194158046Y-91764749D01*
X194162232Y-91750949D01*
X194201503Y-91621488D01*
X194212500Y-91509835D01*
X194212500Y-91509825D01*
X194216176Y-91472503D01*
X194212500Y-91435180D01*
X194212500Y-87493035D01*
X194281086Y-87390389D01*
X194351568Y-87220229D01*
X194387500Y-87039589D01*
X194387500Y-86855411D01*
X194351568Y-86674771D01*
X194281086Y-86504611D01*
X194178762Y-86351472D01*
X194048528Y-86221238D01*
X193895389Y-86118914D01*
X193725229Y-86048432D01*
X193544589Y-86012500D01*
X193360411Y-86012500D01*
X193179771Y-86048432D01*
X193009611Y-86118914D01*
X192856472Y-86221238D01*
X192726238Y-86351472D01*
X192623914Y-86504611D01*
X192593627Y-86577731D01*
X192527271Y-86590930D01*
X192357111Y-86661412D01*
X192203972Y-86763736D01*
X192073738Y-86893970D01*
X191971414Y-87047109D01*
X191900932Y-87217269D01*
X191874364Y-87350835D01*
X191671498Y-87553701D01*
X191642500Y-87577499D01*
X191618702Y-87606497D01*
X191618701Y-87606498D01*
X191547526Y-87693224D01*
X191476954Y-87825254D01*
X191459057Y-87884255D01*
X190723153Y-87148351D01*
X190699068Y-87027271D01*
X190628586Y-86857111D01*
X190526262Y-86703972D01*
X190460000Y-86637710D01*
X190460000Y-85745535D01*
X190528586Y-85642889D01*
X190599068Y-85472729D01*
X190635000Y-85292089D01*
X190635000Y-85107911D01*
X190599068Y-84927271D01*
X190528586Y-84757111D01*
X190426262Y-84603972D01*
X190296028Y-84473738D01*
X190142889Y-84371414D01*
X189972729Y-84300932D01*
X189792089Y-84265000D01*
X189607911Y-84265000D01*
X189427271Y-84300932D01*
X189257111Y-84371414D01*
X189103972Y-84473738D01*
X188973738Y-84603972D01*
X188871414Y-84757111D01*
X188800932Y-84927271D01*
X188765000Y-85107911D01*
X188765000Y-85292089D01*
X188800932Y-85472729D01*
X188871414Y-85642889D01*
X188940000Y-85745536D01*
X188940001Y-86932950D01*
X188900932Y-87027271D01*
X188865000Y-87207911D01*
X188865000Y-87392089D01*
X188900932Y-87572729D01*
X188971414Y-87742889D01*
X189073738Y-87896028D01*
X189203972Y-88026262D01*
X189357111Y-88128586D01*
X189527271Y-88199068D01*
X189648351Y-88223153D01*
X190440000Y-89014802D01*
X190440001Y-91178603D01*
X190348990Y-91150996D01*
X190237337Y-91139999D01*
X190237326Y-91139999D01*
X190200004Y-91136323D01*
X190162682Y-91139999D01*
X189435000Y-91139999D01*
X189435000Y-91107911D01*
X189399068Y-90927271D01*
X189328586Y-90757111D01*
X189226262Y-90603972D01*
X189096028Y-90473738D01*
X188942889Y-90371414D01*
X188772729Y-90300932D01*
X188672500Y-90280995D01*
X188672500Y-90269675D01*
X188636568Y-90089035D01*
X188566086Y-89918875D01*
X188463762Y-89765736D01*
X188333528Y-89635502D01*
X188180389Y-89533178D01*
X188010229Y-89462696D01*
X187889148Y-89438611D01*
X187847692Y-89397155D01*
X187823889Y-89368151D01*
X187708164Y-89273178D01*
X187576135Y-89202606D01*
X187432874Y-89159149D01*
X187321221Y-89148152D01*
X187321210Y-89148152D01*
X187283888Y-89144476D01*
X187246566Y-89148152D01*
X186143832Y-89148152D01*
X186041186Y-89079566D01*
X185871026Y-89009084D01*
X185690386Y-88973152D01*
X185506208Y-88973152D01*
X185325568Y-89009084D01*
X185155408Y-89079566D01*
X185002269Y-89181890D01*
X184872035Y-89312124D01*
X184769711Y-89465263D01*
X184699229Y-89635423D01*
X184663297Y-89816063D01*
X184663297Y-90000241D01*
X184699229Y-90180881D01*
X184751923Y-90308098D01*
X184746338Y-90316457D01*
X184675856Y-90486617D01*
X184639924Y-90667257D01*
X175768557Y-90667257D01*
X175726262Y-90603958D01*
X175596028Y-90473724D01*
X175442889Y-90371400D01*
X175272729Y-90300918D01*
X175092089Y-90264986D01*
X174907911Y-90264986D01*
X174727271Y-90300918D01*
X174557111Y-90371400D01*
X174454465Y-90439986D01*
X173945514Y-90439986D01*
X173842889Y-90371414D01*
X173672729Y-90300932D01*
X173492089Y-90265000D01*
X173307911Y-90265000D01*
X173127271Y-90300932D01*
X172957111Y-90371414D01*
X172803972Y-90473738D01*
X172673738Y-90603972D01*
X172571414Y-90757111D01*
X172523412Y-90873000D01*
X172500000Y-90873000D01*
X172475224Y-90875440D01*
X172451399Y-90882667D01*
X172429443Y-90894403D01*
X172410197Y-90910197D01*
X172394403Y-90929443D01*
X172382667Y-90951399D01*
X172375440Y-90975224D01*
X172373000Y-91000000D01*
X172373000Y-101189817D01*
X166919579Y-105651707D01*
X166910197Y-105660197D01*
X166894403Y-105679443D01*
X166882667Y-105701399D01*
X166875440Y-105725224D01*
X166873000Y-105750000D01*
X166873000Y-109873000D01*
X149052606Y-109873000D01*
X134127000Y-94947394D01*
X134127000Y-91235000D01*
X134192089Y-91235000D01*
X134372729Y-91199068D01*
X134542889Y-91128586D01*
X134696028Y-91026262D01*
X134826262Y-90896028D01*
X134853140Y-90855803D01*
X134947129Y-90918604D01*
X135117289Y-90989086D01*
X135297929Y-91025018D01*
X135482107Y-91025018D01*
X135538332Y-91013834D01*
X137220923Y-91013834D01*
X137220923Y-91198012D01*
X137256855Y-91378652D01*
X137327337Y-91548812D01*
X137429661Y-91701951D01*
X137559895Y-91832185D01*
X137622374Y-91873932D01*
X139982356Y-94233914D01*
X139996424Y-94267879D01*
X140098748Y-94421018D01*
X140228982Y-94551252D01*
X140382121Y-94653576D01*
X140552281Y-94724058D01*
X140732921Y-94759990D01*
X140917099Y-94759990D01*
X141097739Y-94724058D01*
X141267899Y-94653576D01*
X141421038Y-94551252D01*
X141551272Y-94421018D01*
X141653596Y-94267879D01*
X141724078Y-94097719D01*
X141760010Y-93917079D01*
X141760010Y-93732901D01*
X141724078Y-93552261D01*
X141653596Y-93382101D01*
X141551272Y-93228962D01*
X141421038Y-93098728D01*
X141267899Y-92996404D01*
X141233934Y-92982336D01*
X140159509Y-91907911D01*
X163665000Y-91907911D01*
X163665000Y-92092089D01*
X163700932Y-92272729D01*
X163771414Y-92442889D01*
X163809574Y-92500000D01*
X163771414Y-92557111D01*
X163700932Y-92727271D01*
X163665000Y-92907911D01*
X163665000Y-93092089D01*
X163700932Y-93272729D01*
X163771414Y-93442889D01*
X163873738Y-93596028D01*
X164003972Y-93726262D01*
X164157111Y-93828586D01*
X164327271Y-93899068D01*
X164507911Y-93935000D01*
X164692089Y-93935000D01*
X164872729Y-93899068D01*
X165042889Y-93828586D01*
X165145535Y-93760000D01*
X168654465Y-93760000D01*
X168757111Y-93828586D01*
X168927271Y-93899068D01*
X169107911Y-93935000D01*
X169292089Y-93935000D01*
X169472729Y-93899068D01*
X169642889Y-93828586D01*
X169653467Y-93821518D01*
X169780386Y-93874089D01*
X169961026Y-93910021D01*
X170145204Y-93910021D01*
X170325844Y-93874089D01*
X170496004Y-93803607D01*
X170649143Y-93701283D01*
X170779377Y-93571049D01*
X170881701Y-93417910D01*
X170952183Y-93247750D01*
X170988115Y-93067110D01*
X170988115Y-92882932D01*
X170952183Y-92702292D01*
X170881701Y-92532132D01*
X170813115Y-92429486D01*
X170813115Y-91565433D01*
X170816791Y-91528110D01*
X170813115Y-91490787D01*
X170813115Y-91490778D01*
X170802118Y-91379125D01*
X170758661Y-91235864D01*
X170688089Y-91103835D01*
X170593116Y-90988110D01*
X170564112Y-90964307D01*
X170239512Y-90639707D01*
X170215709Y-90610703D01*
X170099984Y-90515730D01*
X169967955Y-90445158D01*
X169824694Y-90401701D01*
X169713041Y-90390704D01*
X169713030Y-90390704D01*
X169675708Y-90387028D01*
X169638386Y-90390704D01*
X165180013Y-90390704D01*
X165077367Y-90322118D01*
X164907207Y-90251636D01*
X164726567Y-90215704D01*
X164542389Y-90215704D01*
X164361749Y-90251636D01*
X164191589Y-90322118D01*
X164038450Y-90424442D01*
X163908216Y-90554676D01*
X163805892Y-90707815D01*
X163735410Y-90877975D01*
X163699478Y-91058615D01*
X163699478Y-91242793D01*
X163735410Y-91423433D01*
X163783369Y-91539218D01*
X163771414Y-91557111D01*
X163700932Y-91727271D01*
X163665000Y-91907911D01*
X140159509Y-91907911D01*
X139033919Y-90782321D01*
X138984509Y-90663034D01*
X138882185Y-90509895D01*
X138751951Y-90379661D01*
X138598812Y-90277337D01*
X138428652Y-90206855D01*
X138248012Y-90170923D01*
X138063834Y-90170923D01*
X137883194Y-90206855D01*
X137713034Y-90277337D01*
X137559895Y-90379661D01*
X137429661Y-90509895D01*
X137327337Y-90663034D01*
X137256855Y-90833194D01*
X137220923Y-91013834D01*
X135538332Y-91013834D01*
X135662747Y-90989086D01*
X135832907Y-90918604D01*
X135986046Y-90816280D01*
X136116280Y-90686046D01*
X136218604Y-90532907D01*
X136289086Y-90362747D01*
X136325018Y-90182107D01*
X136325018Y-89997929D01*
X136289086Y-89817289D01*
X136218604Y-89647129D01*
X136176746Y-89584484D01*
X136129429Y-89495959D01*
X136072642Y-89426764D01*
X136046550Y-89394971D01*
X136046548Y-89394969D01*
X136018835Y-89361201D01*
X135985068Y-89333489D01*
X133142655Y-86491077D01*
X133128586Y-86457111D01*
X133026262Y-86303972D01*
X132896028Y-86173738D01*
X132742889Y-86071414D01*
X132572729Y-86000932D01*
X132392089Y-85965000D01*
X132207911Y-85965000D01*
X132027271Y-86000932D01*
X131857111Y-86071414D01*
X131703972Y-86173738D01*
X131573738Y-86303972D01*
X131471414Y-86457111D01*
X131430555Y-86555754D01*
X130360004Y-85485203D01*
X130360004Y-84807911D01*
X139365000Y-84807911D01*
X139365000Y-84992089D01*
X139400932Y-85172729D01*
X139471414Y-85342889D01*
X139573738Y-85496028D01*
X139703972Y-85626262D01*
X139857111Y-85728586D01*
X140027271Y-85799068D01*
X140207911Y-85835000D01*
X140239153Y-85835000D01*
X140200932Y-85927275D01*
X140165000Y-86107915D01*
X140165000Y-86292093D01*
X140200932Y-86472733D01*
X140271414Y-86642893D01*
X140373738Y-86796032D01*
X140503972Y-86926266D01*
X140657111Y-87028590D01*
X140827271Y-87099072D01*
X141007911Y-87135004D01*
X141192089Y-87135004D01*
X141372729Y-87099072D01*
X141502215Y-87045437D01*
X141631692Y-87099068D01*
X141812332Y-87135000D01*
X141996510Y-87135000D01*
X142177150Y-87099068D01*
X142347310Y-87028586D01*
X142500449Y-86926262D01*
X142630683Y-86796028D01*
X142733007Y-86642889D01*
X142803489Y-86472729D01*
X142839421Y-86292089D01*
X142839421Y-86107911D01*
X142814555Y-85982901D01*
X164365000Y-85982901D01*
X164365000Y-86167079D01*
X164400932Y-86347719D01*
X164471414Y-86517879D01*
X164550088Y-86635623D01*
X164550087Y-86904477D01*
X164481501Y-87007124D01*
X164411019Y-87177284D01*
X164375087Y-87357924D01*
X164375087Y-87542102D01*
X164411019Y-87722742D01*
X164481501Y-87892902D01*
X164583825Y-88046041D01*
X164714059Y-88176275D01*
X164867198Y-88278599D01*
X165037358Y-88349081D01*
X165217998Y-88385013D01*
X165402176Y-88385013D01*
X165582816Y-88349081D01*
X165752976Y-88278599D01*
X165906115Y-88176275D01*
X166036349Y-88046041D01*
X166138673Y-87892902D01*
X166209155Y-87722742D01*
X166245087Y-87542102D01*
X166245087Y-87357924D01*
X166209155Y-87177284D01*
X166138673Y-87007124D01*
X166070087Y-86904478D01*
X166070087Y-86605429D01*
X166128586Y-86517879D01*
X166199068Y-86347719D01*
X166235000Y-86167079D01*
X166235000Y-85982901D01*
X166199068Y-85802261D01*
X166128586Y-85632101D01*
X166026262Y-85478962D01*
X165896028Y-85348728D01*
X165742889Y-85246404D01*
X165572729Y-85175922D01*
X165392089Y-85139990D01*
X165207911Y-85139990D01*
X165027271Y-85175922D01*
X164857111Y-85246404D01*
X164703972Y-85348728D01*
X164573738Y-85478962D01*
X164471414Y-85632101D01*
X164400932Y-85802261D01*
X164365000Y-85982901D01*
X142814555Y-85982901D01*
X142803489Y-85927271D01*
X142733007Y-85757111D01*
X142630683Y-85603972D01*
X142560015Y-85533304D01*
X142560015Y-83250000D01*
X197411928Y-83250000D01*
X197411928Y-86750000D01*
X197424188Y-86874482D01*
X197460498Y-86994180D01*
X197519463Y-87104494D01*
X197598815Y-87201185D01*
X197695506Y-87280537D01*
X197805820Y-87339502D01*
X197925518Y-87375812D01*
X198050000Y-87388072D01*
X201550000Y-87388072D01*
X201674482Y-87375812D01*
X201794180Y-87339502D01*
X201904494Y-87280537D01*
X202001185Y-87201185D01*
X202080537Y-87104494D01*
X202139502Y-86994180D01*
X202175812Y-86874482D01*
X202188072Y-86750000D01*
X203661928Y-86750000D01*
X203674188Y-86874482D01*
X203710498Y-86994180D01*
X203769463Y-87104494D01*
X203848815Y-87201185D01*
X203945506Y-87280537D01*
X204055820Y-87339502D01*
X204175518Y-87375812D01*
X204300000Y-87388072D01*
X205514250Y-87385000D01*
X205673000Y-87226250D01*
X205673000Y-85127000D01*
X205927000Y-85127000D01*
X205927000Y-87226250D01*
X206085750Y-87385000D01*
X207300000Y-87388072D01*
X207424482Y-87375812D01*
X207544180Y-87339502D01*
X207654494Y-87280537D01*
X207751185Y-87201185D01*
X207830537Y-87104494D01*
X207889502Y-86994180D01*
X207925812Y-86874482D01*
X207938072Y-86750000D01*
X207935000Y-85285750D01*
X207776250Y-85127000D01*
X205927000Y-85127000D01*
X205673000Y-85127000D01*
X203823750Y-85127000D01*
X203665000Y-85285750D01*
X203661928Y-86750000D01*
X202188072Y-86750000D01*
X202188072Y-83250000D01*
X202175812Y-83125518D01*
X202139502Y-83005820D01*
X202080537Y-82895506D01*
X202001185Y-82798815D01*
X201904494Y-82719463D01*
X201842655Y-82686409D01*
X202514250Y-82685000D01*
X202673000Y-82526250D01*
X202673000Y-80427000D01*
X202927000Y-80427000D01*
X202927000Y-82526250D01*
X203085750Y-82685000D01*
X204006367Y-82686931D01*
X203945506Y-82719463D01*
X203848815Y-82798815D01*
X203769463Y-82895506D01*
X203710498Y-83005820D01*
X203674188Y-83125518D01*
X203661928Y-83250000D01*
X203665000Y-84714250D01*
X203823750Y-84873000D01*
X205673000Y-84873000D01*
X205673000Y-82773750D01*
X205927000Y-82773750D01*
X205927000Y-84873000D01*
X207776250Y-84873000D01*
X207935000Y-84714250D01*
X207938072Y-83250000D01*
X207925812Y-83125518D01*
X207889502Y-83005820D01*
X207830537Y-82895506D01*
X207751185Y-82798815D01*
X207654494Y-82719463D01*
X207544180Y-82660498D01*
X207424482Y-82624188D01*
X207300000Y-82611928D01*
X206085750Y-82615000D01*
X205927000Y-82773750D01*
X205673000Y-82773750D01*
X205514250Y-82615000D01*
X204843195Y-82613302D01*
X204904494Y-82580537D01*
X205001185Y-82501185D01*
X205080537Y-82404494D01*
X205139502Y-82294180D01*
X205175812Y-82174482D01*
X205188072Y-82050000D01*
X205185000Y-80585750D01*
X205026250Y-80427000D01*
X202927000Y-80427000D01*
X202673000Y-80427000D01*
X200573750Y-80427000D01*
X200415000Y-80585750D01*
X200411928Y-82050000D01*
X200424188Y-82174482D01*
X200460498Y-82294180D01*
X200519463Y-82404494D01*
X200598815Y-82501185D01*
X200695506Y-82580537D01*
X200754233Y-82611928D01*
X198050000Y-82611928D01*
X197925518Y-82624188D01*
X197805820Y-82660498D01*
X197695506Y-82719463D01*
X197598815Y-82798815D01*
X197519463Y-82895506D01*
X197460498Y-83005820D01*
X197424188Y-83125518D01*
X197411928Y-83250000D01*
X142560015Y-83250000D01*
X142560015Y-81007911D01*
X165564996Y-81007911D01*
X165564996Y-81192089D01*
X165600928Y-81372729D01*
X165671410Y-81542889D01*
X165773734Y-81696028D01*
X165903968Y-81826262D01*
X166057107Y-81928586D01*
X166227267Y-81999068D01*
X166407907Y-82035000D01*
X166592085Y-82035000D01*
X166772725Y-81999068D01*
X166942885Y-81928586D01*
X167045531Y-81860000D01*
X168204531Y-81860000D01*
X168337113Y-81948588D01*
X168507273Y-82019070D01*
X168687913Y-82055002D01*
X168872091Y-82055002D01*
X169052731Y-82019070D01*
X169222891Y-81948588D01*
X169376030Y-81846264D01*
X169506264Y-81716030D01*
X169608588Y-81562891D01*
X169679070Y-81392731D01*
X169715002Y-81212091D01*
X169715002Y-81027913D01*
X169679070Y-80847273D01*
X169608588Y-80677113D01*
X169506264Y-80523974D01*
X169376030Y-80393740D01*
X169222891Y-80291416D01*
X169052731Y-80220934D01*
X168872091Y-80185002D01*
X168687913Y-80185002D01*
X168507273Y-80220934D01*
X168337113Y-80291416D01*
X168264402Y-80340000D01*
X167045531Y-80340000D01*
X166942885Y-80271414D01*
X166772725Y-80200932D01*
X166592085Y-80165000D01*
X166407907Y-80165000D01*
X166227267Y-80200932D01*
X166057107Y-80271414D01*
X165903968Y-80373738D01*
X165773734Y-80503972D01*
X165671410Y-80657111D01*
X165600928Y-80827271D01*
X165564996Y-81007911D01*
X142560015Y-81007911D01*
X142560015Y-79545535D01*
X142628601Y-79442889D01*
X142699083Y-79272729D01*
X142735015Y-79092089D01*
X142735015Y-78907911D01*
X142699083Y-78727271D01*
X142628601Y-78557111D01*
X142526277Y-78403972D01*
X142396043Y-78273738D01*
X142242904Y-78171414D01*
X142072744Y-78100932D01*
X141892104Y-78065000D01*
X141707926Y-78065000D01*
X141527286Y-78100932D01*
X141357126Y-78171414D01*
X141203987Y-78273738D01*
X141073753Y-78403972D01*
X140971429Y-78557111D01*
X140964599Y-78573599D01*
X140827271Y-78600916D01*
X140657111Y-78671398D01*
X140503972Y-78773722D01*
X140373738Y-78903956D01*
X140271414Y-79057095D01*
X140200932Y-79227255D01*
X140172116Y-79372121D01*
X140027274Y-79400932D01*
X139857114Y-79471414D01*
X139703975Y-79573738D01*
X139573741Y-79703972D01*
X139471417Y-79857111D01*
X139400935Y-80027271D01*
X139365003Y-80207911D01*
X139365003Y-80392089D01*
X139400935Y-80572729D01*
X139471417Y-80742889D01*
X139540003Y-80845536D01*
X139540004Y-82854468D01*
X139471420Y-82957111D01*
X139400938Y-83127271D01*
X139365006Y-83307911D01*
X139365006Y-83492089D01*
X139400938Y-83672729D01*
X139471420Y-83842889D01*
X139540001Y-83945527D01*
X139540000Y-84354464D01*
X139471414Y-84457111D01*
X139400932Y-84627271D01*
X139365000Y-84807911D01*
X130360004Y-84807911D01*
X130360004Y-77745535D01*
X130428590Y-77642889D01*
X130464211Y-77556891D01*
X183978519Y-77556891D01*
X184075843Y-77831252D01*
X184224822Y-78081355D01*
X184419731Y-78297588D01*
X184653080Y-78471641D01*
X184915901Y-78596825D01*
X185063110Y-78641476D01*
X185293000Y-78520155D01*
X185293000Y-77327000D01*
X185547000Y-77327000D01*
X185547000Y-78520155D01*
X185776890Y-78641476D01*
X185924099Y-78596825D01*
X186186920Y-78471641D01*
X186420269Y-78297588D01*
X186615178Y-78081355D01*
X186690000Y-77955745D01*
X186764822Y-78081355D01*
X186959731Y-78297588D01*
X187193080Y-78471641D01*
X187455901Y-78596825D01*
X187603110Y-78641476D01*
X187833000Y-78520155D01*
X187833000Y-77327000D01*
X185547000Y-77327000D01*
X185293000Y-77327000D01*
X184099186Y-77327000D01*
X183978519Y-77556891D01*
X130464211Y-77556891D01*
X130499072Y-77472729D01*
X130535004Y-77292089D01*
X130535004Y-77107911D01*
X130499072Y-76927271D01*
X130464212Y-76843109D01*
X183978519Y-76843109D01*
X184099186Y-77073000D01*
X185293000Y-77073000D01*
X185293000Y-75879845D01*
X185547000Y-75879845D01*
X185547000Y-77073000D01*
X187833000Y-77073000D01*
X187833000Y-75879845D01*
X188087000Y-75879845D01*
X188087000Y-77073000D01*
X188107000Y-77073000D01*
X188107000Y-77327000D01*
X188087000Y-77327000D01*
X188087000Y-78520155D01*
X188316890Y-78641476D01*
X188464099Y-78596825D01*
X188726920Y-78471641D01*
X188960269Y-78297588D01*
X189036034Y-78213534D01*
X189060498Y-78294180D01*
X189119463Y-78404494D01*
X189198815Y-78501185D01*
X189295506Y-78580537D01*
X189405820Y-78639502D01*
X189525518Y-78675812D01*
X189650000Y-78688072D01*
X191350000Y-78688072D01*
X191474482Y-78675812D01*
X191594180Y-78639502D01*
X191704494Y-78580537D01*
X191741703Y-78550000D01*
X200411928Y-78550000D01*
X200415000Y-80014250D01*
X200573750Y-80173000D01*
X202673000Y-80173000D01*
X202673000Y-78073750D01*
X202927000Y-78073750D01*
X202927000Y-80173000D01*
X205026250Y-80173000D01*
X205185000Y-80014250D01*
X205188072Y-78550000D01*
X205175812Y-78425518D01*
X205139502Y-78305820D01*
X205080537Y-78195506D01*
X205001185Y-78098815D01*
X204904494Y-78019463D01*
X204794180Y-77960498D01*
X204674482Y-77924188D01*
X204550000Y-77911928D01*
X203085750Y-77915000D01*
X202927000Y-78073750D01*
X202673000Y-78073750D01*
X202514250Y-77915000D01*
X201050000Y-77911928D01*
X200925518Y-77924188D01*
X200805820Y-77960498D01*
X200695506Y-78019463D01*
X200598815Y-78098815D01*
X200519463Y-78195506D01*
X200460498Y-78305820D01*
X200424188Y-78425518D01*
X200411928Y-78550000D01*
X191741703Y-78550000D01*
X191801185Y-78501185D01*
X191880537Y-78404494D01*
X191939502Y-78294180D01*
X191975812Y-78174482D01*
X191988072Y-78050000D01*
X191988072Y-76350000D01*
X191975812Y-76225518D01*
X191939502Y-76105820D01*
X191880537Y-75995506D01*
X191801185Y-75898815D01*
X191704494Y-75819463D01*
X191594180Y-75760498D01*
X191474482Y-75724188D01*
X191350000Y-75711928D01*
X189650000Y-75711928D01*
X189525518Y-75724188D01*
X189405820Y-75760498D01*
X189295506Y-75819463D01*
X189198815Y-75898815D01*
X189119463Y-75995506D01*
X189060498Y-76105820D01*
X189036034Y-76186466D01*
X188960269Y-76102412D01*
X188726920Y-75928359D01*
X188464099Y-75803175D01*
X188316890Y-75758524D01*
X188087000Y-75879845D01*
X187833000Y-75879845D01*
X187603110Y-75758524D01*
X187455901Y-75803175D01*
X187193080Y-75928359D01*
X186959731Y-76102412D01*
X186764822Y-76318645D01*
X186690000Y-76444255D01*
X186615178Y-76318645D01*
X186420269Y-76102412D01*
X186186920Y-75928359D01*
X185924099Y-75803175D01*
X185776890Y-75758524D01*
X185547000Y-75879845D01*
X185293000Y-75879845D01*
X185063110Y-75758524D01*
X184915901Y-75803175D01*
X184653080Y-75928359D01*
X184419731Y-76102412D01*
X184224822Y-76318645D01*
X184075843Y-76568748D01*
X183978519Y-76843109D01*
X130464212Y-76843109D01*
X130428590Y-76757111D01*
X130326266Y-76603972D01*
X130196032Y-76473738D01*
X130042893Y-76371414D01*
X129872733Y-76300932D01*
X129692093Y-76265000D01*
X129507915Y-76265000D01*
X129327275Y-76300932D01*
X129157115Y-76371414D01*
X129003976Y-76473738D01*
X128873742Y-76603972D01*
X128771418Y-76757111D01*
X128700936Y-76927271D01*
X128665004Y-77107911D01*
X128665004Y-77292089D01*
X128700936Y-77472729D01*
X128771418Y-77642889D01*
X128840005Y-77745537D01*
X128840004Y-85762682D01*
X128836328Y-85800004D01*
X128840004Y-85837326D01*
X128840004Y-85837336D01*
X128851001Y-85948989D01*
X128888138Y-86071414D01*
X128894458Y-86092250D01*
X128965030Y-86224280D01*
X128981690Y-86244580D01*
X129060003Y-86340005D01*
X129089007Y-86363808D01*
X132873000Y-90147803D01*
X132873000Y-95000000D01*
X132875440Y-95024776D01*
X132882667Y-95048601D01*
X132894403Y-95070557D01*
X132910197Y-95089803D01*
X148910197Y-111089803D01*
X148929443Y-111105597D01*
X148951399Y-111117333D01*
X148975224Y-111124560D01*
X149000000Y-111127000D01*
X166947394Y-111127000D01*
X173910197Y-118089803D01*
X173929443Y-118105597D01*
X173951399Y-118117333D01*
X173975224Y-118124560D01*
X174000000Y-118127000D01*
X174640009Y-118127000D01*
X174640008Y-118854464D01*
X174571422Y-118957111D01*
X174500940Y-119127271D01*
X174465008Y-119307911D01*
X174465008Y-119492089D01*
X174500940Y-119672729D01*
X174571422Y-119842889D01*
X174673746Y-119996028D01*
X174803980Y-120126262D01*
X174873000Y-120172380D01*
X174873000Y-134873000D01*
X153476588Y-134873000D01*
X153428586Y-134757111D01*
X153326262Y-134603972D01*
X153229886Y-134507596D01*
X153272727Y-134499074D01*
X153442887Y-134428592D01*
X153596026Y-134326268D01*
X153726260Y-134196034D01*
X153828584Y-134042895D01*
X153899066Y-133872735D01*
X153934998Y-133692095D01*
X153934998Y-133507917D01*
X153899066Y-133327277D01*
X153828584Y-133157117D01*
X153759998Y-133054471D01*
X153759998Y-130545538D01*
X153828586Y-130442889D01*
X153899068Y-130272729D01*
X153935000Y-130092089D01*
X153935000Y-129907911D01*
X153899068Y-129727271D01*
X153828586Y-129557111D01*
X153726262Y-129403972D01*
X153596028Y-129273738D01*
X153442889Y-129171414D01*
X153272729Y-129100932D01*
X153092089Y-129065000D01*
X152907911Y-129065000D01*
X152727271Y-129100932D01*
X152600000Y-129153649D01*
X152472729Y-129100932D01*
X152292089Y-129065000D01*
X152107911Y-129065000D01*
X151927271Y-129100932D01*
X151757111Y-129171414D01*
X151603972Y-129273738D01*
X151473738Y-129403972D01*
X151371414Y-129557111D01*
X151300932Y-129727271D01*
X151265000Y-129907911D01*
X151265000Y-130092089D01*
X151300932Y-130272729D01*
X151371414Y-130442889D01*
X151440001Y-130545537D01*
X151440000Y-134762677D01*
X151436324Y-134800000D01*
X151440000Y-134837322D01*
X151440000Y-134837332D01*
X151443513Y-134873000D01*
X133052606Y-134873000D01*
X123887517Y-125707911D01*
X152665000Y-125707911D01*
X152665000Y-125892089D01*
X152700932Y-126072729D01*
X152771414Y-126242889D01*
X152873738Y-126396028D01*
X153003972Y-126526262D01*
X153157111Y-126628586D01*
X153327271Y-126699068D01*
X153507911Y-126735000D01*
X153692089Y-126735000D01*
X153872729Y-126699068D01*
X154042889Y-126628586D01*
X154196028Y-126526262D01*
X154200000Y-126522290D01*
X154203972Y-126526262D01*
X154357111Y-126628586D01*
X154527271Y-126699068D01*
X154707911Y-126735000D01*
X154892089Y-126735000D01*
X155072729Y-126699068D01*
X155242889Y-126628586D01*
X155396028Y-126526262D01*
X155526262Y-126396028D01*
X155628586Y-126242889D01*
X155699068Y-126072729D01*
X155735000Y-125892089D01*
X155735000Y-125795148D01*
X155749003Y-125748986D01*
X155758652Y-125651015D01*
X155760000Y-125637332D01*
X155760000Y-125637325D01*
X155763676Y-125600000D01*
X155760000Y-125562675D01*
X155760000Y-124114801D01*
X156751649Y-123123153D01*
X156872729Y-123099068D01*
X157042889Y-123028586D01*
X157196028Y-122926262D01*
X157326262Y-122796028D01*
X157428586Y-122642889D01*
X157499068Y-122472729D01*
X157535000Y-122292089D01*
X157535000Y-122107911D01*
X157499068Y-121927271D01*
X157428586Y-121757111D01*
X157326262Y-121603972D01*
X157196028Y-121473738D01*
X157042889Y-121371414D01*
X156872729Y-121300932D01*
X156692089Y-121265000D01*
X156507911Y-121265000D01*
X156327271Y-121300932D01*
X156157111Y-121371414D01*
X156003972Y-121473738D01*
X155873738Y-121603972D01*
X155771414Y-121757111D01*
X155700932Y-121927271D01*
X155676847Y-122048351D01*
X155335000Y-122390198D01*
X155335000Y-122207911D01*
X155299068Y-122027271D01*
X155228586Y-121857111D01*
X155126262Y-121703972D01*
X154996028Y-121573738D01*
X154842889Y-121471414D01*
X154672729Y-121400932D01*
X154492089Y-121365000D01*
X154307911Y-121365000D01*
X154127271Y-121400932D01*
X153957111Y-121471414D01*
X153803972Y-121573738D01*
X153673738Y-121703972D01*
X153571414Y-121857111D01*
X153500932Y-122027271D01*
X153465000Y-122207911D01*
X153465000Y-122392089D01*
X153500932Y-122572729D01*
X153571414Y-122742889D01*
X153640000Y-122845536D01*
X153640001Y-124485197D01*
X153147087Y-124978112D01*
X153003972Y-125073738D01*
X152873738Y-125203972D01*
X152771414Y-125357111D01*
X152700932Y-125527271D01*
X152665000Y-125707911D01*
X123887517Y-125707911D01*
X116127000Y-117947394D01*
X116127000Y-113572385D01*
X116196028Y-113526262D01*
X116326262Y-113396028D01*
X116367040Y-113334999D01*
X119526725Y-113334999D01*
X119571414Y-113442889D01*
X119673738Y-113596028D01*
X119803972Y-113726262D01*
X119957111Y-113828586D01*
X120127271Y-113899068D01*
X120307911Y-113935000D01*
X120492089Y-113935000D01*
X120672729Y-113899068D01*
X120842889Y-113828586D01*
X120996028Y-113726262D01*
X121126262Y-113596028D01*
X121228586Y-113442889D01*
X121299068Y-113272729D01*
X121335000Y-113092089D01*
X121335000Y-112907911D01*
X121299068Y-112727271D01*
X121228586Y-112557111D01*
X121126262Y-112403972D01*
X121122290Y-112400000D01*
X121126262Y-112396028D01*
X121228586Y-112242889D01*
X121299068Y-112072729D01*
X121335000Y-111892089D01*
X121335000Y-111707911D01*
X121299068Y-111527271D01*
X121228586Y-111357111D01*
X121126262Y-111203972D01*
X120996028Y-111073738D01*
X120842889Y-110971414D01*
X120672729Y-110900932D01*
X120492089Y-110865000D01*
X120307911Y-110865000D01*
X120127271Y-110900932D01*
X119957111Y-110971414D01*
X119854465Y-111040000D01*
X115345535Y-111040000D01*
X115242889Y-110971414D01*
X115072729Y-110900932D01*
X114892089Y-110865000D01*
X114707911Y-110865000D01*
X114527271Y-110900932D01*
X114357111Y-110971414D01*
X114203972Y-111073738D01*
X114073738Y-111203972D01*
X114027615Y-111273000D01*
X110660000Y-111273000D01*
X110660000Y-105200000D01*
X110721928Y-105200000D01*
X110734188Y-105324482D01*
X110770498Y-105444180D01*
X110829463Y-105554494D01*
X110908815Y-105651185D01*
X111005506Y-105730537D01*
X111115820Y-105789502D01*
X111235518Y-105825812D01*
X111360000Y-105838072D01*
X113614250Y-105835000D01*
X113773000Y-105676250D01*
X113773000Y-104577000D01*
X114027000Y-104577000D01*
X114027000Y-105676250D01*
X114185750Y-105835000D01*
X116440000Y-105838072D01*
X116564482Y-105825812D01*
X116684180Y-105789502D01*
X116794494Y-105730537D01*
X116891185Y-105651185D01*
X116970537Y-105554494D01*
X117029502Y-105444180D01*
X117065812Y-105324482D01*
X117078072Y-105200000D01*
X117075000Y-104735750D01*
X116916250Y-104577000D01*
X114027000Y-104577000D01*
X113773000Y-104577000D01*
X110883750Y-104577000D01*
X110725000Y-104735750D01*
X110721928Y-105200000D01*
X110660000Y-105200000D01*
X110660000Y-103700000D01*
X110721928Y-103700000D01*
X110725000Y-104164250D01*
X110883750Y-104323000D01*
X113773000Y-104323000D01*
X113773000Y-103223750D01*
X114027000Y-103223750D01*
X114027000Y-104323000D01*
X116916250Y-104323000D01*
X117075000Y-104164250D01*
X117078072Y-103700000D01*
X117065812Y-103575518D01*
X117029502Y-103455820D01*
X116970537Y-103345506D01*
X116891185Y-103248815D01*
X116794494Y-103169463D01*
X116684180Y-103110498D01*
X116564482Y-103074188D01*
X116440000Y-103061928D01*
X114185750Y-103065000D01*
X114027000Y-103223750D01*
X113773000Y-103223750D01*
X113614250Y-103065000D01*
X111360000Y-103061928D01*
X111235518Y-103074188D01*
X111115820Y-103110498D01*
X111005506Y-103169463D01*
X110908815Y-103248815D01*
X110829463Y-103345506D01*
X110770498Y-103455820D01*
X110734188Y-103575518D01*
X110721928Y-103700000D01*
X110660000Y-103700000D01*
X110660000Y-96700000D01*
X110721928Y-96700000D01*
X110734188Y-96824482D01*
X110770498Y-96944180D01*
X110829463Y-97054494D01*
X110908815Y-97151185D01*
X111005506Y-97230537D01*
X111115820Y-97289502D01*
X111235518Y-97325812D01*
X111360000Y-97338072D01*
X113614250Y-97335000D01*
X113773000Y-97176250D01*
X113773000Y-96077000D01*
X114027000Y-96077000D01*
X114027000Y-97176250D01*
X114185750Y-97335000D01*
X116440000Y-97338072D01*
X116564482Y-97325812D01*
X116684180Y-97289502D01*
X116794494Y-97230537D01*
X116891185Y-97151185D01*
X116970537Y-97054494D01*
X117029502Y-96944180D01*
X117065812Y-96824482D01*
X117078072Y-96700000D01*
X117075000Y-96235750D01*
X116916250Y-96077000D01*
X114027000Y-96077000D01*
X113773000Y-96077000D01*
X110883750Y-96077000D01*
X110725000Y-96235750D01*
X110721928Y-96700000D01*
X110660000Y-96700000D01*
X110660000Y-95200000D01*
X110721928Y-95200000D01*
X110725000Y-95664250D01*
X110883750Y-95823000D01*
X113773000Y-95823000D01*
X113773000Y-94723750D01*
X114027000Y-94723750D01*
X114027000Y-95823000D01*
X116916250Y-95823000D01*
X117075000Y-95664250D01*
X117078072Y-95200000D01*
X117065812Y-95075518D01*
X117029502Y-94955820D01*
X116970537Y-94845506D01*
X116891185Y-94748815D01*
X116794494Y-94669463D01*
X116684180Y-94610498D01*
X116564482Y-94574188D01*
X116440000Y-94561928D01*
X114185750Y-94565000D01*
X114027000Y-94723750D01*
X113773000Y-94723750D01*
X113614250Y-94565000D01*
X111360000Y-94561928D01*
X111235518Y-94574188D01*
X111115820Y-94610498D01*
X111005506Y-94669463D01*
X110908815Y-94748815D01*
X110829463Y-94845506D01*
X110770498Y-94955820D01*
X110734188Y-95075518D01*
X110721928Y-95200000D01*
X110660000Y-95200000D01*
X110660000Y-71907901D01*
X144065000Y-71907901D01*
X144065000Y-72092079D01*
X144100932Y-72272719D01*
X144171414Y-72442879D01*
X144240000Y-72545526D01*
X144240001Y-73854471D01*
X144171414Y-73957119D01*
X144100932Y-74127279D01*
X144065000Y-74307919D01*
X144065000Y-74492097D01*
X144100932Y-74672737D01*
X144171414Y-74842897D01*
X144273738Y-74996036D01*
X144403972Y-75126270D01*
X144557111Y-75228594D01*
X144727271Y-75299076D01*
X144907911Y-75335008D01*
X145092089Y-75335008D01*
X145272729Y-75299076D01*
X145442889Y-75228594D01*
X145596028Y-75126270D01*
X145726262Y-74996036D01*
X145828586Y-74842897D01*
X145899068Y-74672737D01*
X145935000Y-74492097D01*
X145935000Y-74307919D01*
X145899068Y-74127279D01*
X145828586Y-73957119D01*
X145760000Y-73854473D01*
X145760000Y-72545525D01*
X145828586Y-72442879D01*
X145899068Y-72272719D01*
X145935000Y-72092079D01*
X145935000Y-71907901D01*
X145899068Y-71727261D01*
X145828586Y-71557101D01*
X145726262Y-71403962D01*
X145596028Y-71273728D01*
X145560517Y-71250000D01*
X179711928Y-71250000D01*
X179711928Y-72950000D01*
X179724188Y-73074482D01*
X179760498Y-73194180D01*
X179819463Y-73304494D01*
X179898815Y-73401185D01*
X179995506Y-73480537D01*
X180105820Y-73539502D01*
X180225518Y-73575812D01*
X180350000Y-73588072D01*
X182050000Y-73588072D01*
X182174482Y-73575812D01*
X182294180Y-73539502D01*
X182404494Y-73480537D01*
X182501185Y-73401185D01*
X182580537Y-73304494D01*
X182639502Y-73194180D01*
X182663966Y-73113534D01*
X182739731Y-73197588D01*
X182973080Y-73371641D01*
X183235901Y-73496825D01*
X183383110Y-73541476D01*
X183613000Y-73420155D01*
X183613000Y-72227000D01*
X183593000Y-72227000D01*
X183593000Y-71973000D01*
X183613000Y-71973000D01*
X183613000Y-70779845D01*
X183867000Y-70779845D01*
X183867000Y-71973000D01*
X183887000Y-71973000D01*
X183887000Y-72227000D01*
X183867000Y-72227000D01*
X183867000Y-73420155D01*
X184096890Y-73541476D01*
X184244099Y-73496825D01*
X184506920Y-73371641D01*
X184740269Y-73197588D01*
X184935178Y-72981355D01*
X185004799Y-72864477D01*
X185039294Y-72929014D01*
X185224866Y-73155134D01*
X185450986Y-73340706D01*
X185708966Y-73478599D01*
X185988889Y-73563513D01*
X186207050Y-73585000D01*
X186352950Y-73585000D01*
X186571111Y-73563513D01*
X186851034Y-73478599D01*
X187109014Y-73340706D01*
X187335134Y-73155134D01*
X187520706Y-72929014D01*
X187550000Y-72874209D01*
X187579294Y-72929014D01*
X187764866Y-73155134D01*
X187990986Y-73340706D01*
X188248966Y-73478599D01*
X188528889Y-73563513D01*
X188747050Y-73585000D01*
X188892950Y-73585000D01*
X189111111Y-73563513D01*
X189391034Y-73478599D01*
X189649014Y-73340706D01*
X189875134Y-73155134D01*
X190060706Y-72929014D01*
X190090000Y-72874209D01*
X190119294Y-72929014D01*
X190304866Y-73155134D01*
X190530986Y-73340706D01*
X190788966Y-73478599D01*
X191068889Y-73563513D01*
X191287050Y-73585000D01*
X191432950Y-73585000D01*
X191651111Y-73563513D01*
X191931034Y-73478599D01*
X192189014Y-73340706D01*
X192415134Y-73155134D01*
X192600706Y-72929014D01*
X192738599Y-72671034D01*
X192823513Y-72391111D01*
X192852185Y-72100000D01*
X192823513Y-71808889D01*
X192738599Y-71528966D01*
X192600706Y-71270986D01*
X192415134Y-71044866D01*
X192189014Y-70859294D01*
X191931034Y-70721401D01*
X191651111Y-70636487D01*
X191432950Y-70615000D01*
X191287050Y-70615000D01*
X191068889Y-70636487D01*
X190788966Y-70721401D01*
X190530986Y-70859294D01*
X190304866Y-71044866D01*
X190119294Y-71270986D01*
X190090000Y-71325791D01*
X190060706Y-71270986D01*
X189875134Y-71044866D01*
X189649014Y-70859294D01*
X189391034Y-70721401D01*
X189111111Y-70636487D01*
X188892950Y-70615000D01*
X188747050Y-70615000D01*
X188528889Y-70636487D01*
X188248966Y-70721401D01*
X187990986Y-70859294D01*
X187764866Y-71044866D01*
X187579294Y-71270986D01*
X187550000Y-71325791D01*
X187520706Y-71270986D01*
X187335134Y-71044866D01*
X187109014Y-70859294D01*
X186851034Y-70721401D01*
X186571111Y-70636487D01*
X186352950Y-70615000D01*
X186207050Y-70615000D01*
X185988889Y-70636487D01*
X185708966Y-70721401D01*
X185450986Y-70859294D01*
X185224866Y-71044866D01*
X185039294Y-71270986D01*
X185004799Y-71335523D01*
X184935178Y-71218645D01*
X184740269Y-71002412D01*
X184506920Y-70828359D01*
X184244099Y-70703175D01*
X184096890Y-70658524D01*
X183867000Y-70779845D01*
X183613000Y-70779845D01*
X183383110Y-70658524D01*
X183235901Y-70703175D01*
X182973080Y-70828359D01*
X182739731Y-71002412D01*
X182663966Y-71086466D01*
X182639502Y-71005820D01*
X182580537Y-70895506D01*
X182501185Y-70798815D01*
X182404494Y-70719463D01*
X182294180Y-70660498D01*
X182174482Y-70624188D01*
X182050000Y-70611928D01*
X180350000Y-70611928D01*
X180225518Y-70624188D01*
X180105820Y-70660498D01*
X179995506Y-70719463D01*
X179898815Y-70798815D01*
X179819463Y-70895506D01*
X179760498Y-71005820D01*
X179724188Y-71125518D01*
X179711928Y-71250000D01*
X145560517Y-71250000D01*
X145442889Y-71171404D01*
X145272729Y-71100922D01*
X145092089Y-71064990D01*
X144907911Y-71064990D01*
X144727271Y-71100922D01*
X144557111Y-71171404D01*
X144403972Y-71273728D01*
X144273738Y-71403962D01*
X144171414Y-71557101D01*
X144100932Y-71727261D01*
X144065000Y-71907901D01*
X110660000Y-71907901D01*
X110660000Y-67700881D01*
X112478724Y-67700881D01*
X112838912Y-68190548D01*
X113502882Y-68550849D01*
X114224385Y-68774694D01*
X114975695Y-68853480D01*
X115727938Y-68784178D01*
X116452208Y-68569452D01*
X117120670Y-68217555D01*
X117161088Y-68190548D01*
X117521276Y-67700881D01*
X202478724Y-67700881D01*
X202838912Y-68190548D01*
X203502882Y-68550849D01*
X204224385Y-68774694D01*
X204975695Y-68853480D01*
X205727938Y-68784178D01*
X206452208Y-68569452D01*
X207120670Y-68217555D01*
X207161088Y-68190548D01*
X207521276Y-67700881D01*
X205000000Y-65179605D01*
X202478724Y-67700881D01*
X117521276Y-67700881D01*
X115000000Y-65179605D01*
X112478724Y-67700881D01*
X110660000Y-67700881D01*
X110660000Y-64975695D01*
X111146520Y-64975695D01*
X111215822Y-65727938D01*
X111430548Y-66452208D01*
X111782445Y-67120670D01*
X111809452Y-67161088D01*
X112299119Y-67521276D01*
X114820395Y-65000000D01*
X115179605Y-65000000D01*
X117700881Y-67521276D01*
X118190548Y-67161088D01*
X118550849Y-66497118D01*
X118774694Y-65775615D01*
X118853480Y-65024305D01*
X118849002Y-64975695D01*
X201146520Y-64975695D01*
X201215822Y-65727938D01*
X201430548Y-66452208D01*
X201782445Y-67120670D01*
X201809452Y-67161088D01*
X202299119Y-67521276D01*
X204820395Y-65000000D01*
X205179605Y-65000000D01*
X207700881Y-67521276D01*
X208190548Y-67161088D01*
X208550849Y-66497118D01*
X208774694Y-65775615D01*
X208853480Y-65024305D01*
X208784178Y-64272062D01*
X208569452Y-63547792D01*
X208217555Y-62879330D01*
X208190548Y-62838912D01*
X207700881Y-62478724D01*
X205179605Y-65000000D01*
X204820395Y-65000000D01*
X202299119Y-62478724D01*
X201809452Y-62838912D01*
X201449151Y-63502882D01*
X201225306Y-64224385D01*
X201146520Y-64975695D01*
X118849002Y-64975695D01*
X118784178Y-64272062D01*
X118569452Y-63547792D01*
X118217555Y-62879330D01*
X118190548Y-62838912D01*
X117700881Y-62478724D01*
X115179605Y-65000000D01*
X114820395Y-65000000D01*
X112299119Y-62478724D01*
X111809452Y-62838912D01*
X111449151Y-63502882D01*
X111225306Y-64224385D01*
X111146520Y-64975695D01*
X110660000Y-64975695D01*
X110660000Y-62299119D01*
X112478724Y-62299119D01*
X115000000Y-64820395D01*
X117521276Y-62299119D01*
X202478724Y-62299119D01*
X205000000Y-64820395D01*
X207521276Y-62299119D01*
X207161088Y-61809452D01*
X206497118Y-61449151D01*
X205775615Y-61225306D01*
X205024305Y-61146520D01*
X204272062Y-61215822D01*
X203547792Y-61430548D01*
X202879330Y-61782445D01*
X202838912Y-61809452D01*
X202478724Y-62299119D01*
X117521276Y-62299119D01*
X117161088Y-61809452D01*
X116497118Y-61449151D01*
X115775615Y-61225306D01*
X115024305Y-61146520D01*
X114272062Y-61215822D01*
X113547792Y-61430548D01*
X112879330Y-61782445D01*
X112838912Y-61809452D01*
X112478724Y-62299119D01*
X110660000Y-62299119D01*
X110660000Y-60660000D01*
X209340000Y-60660000D01*
X209340001Y-139340000D01*
X209340001Y-139340000D01*
G37*
X209340001Y-139340000D02*
X110660000Y-139340000D01*
X110660000Y-137700881D01*
X112478724Y-137700881D01*
X112838912Y-138190548D01*
X113502882Y-138550849D01*
X114224385Y-138774694D01*
X114975695Y-138853480D01*
X115727938Y-138784178D01*
X116452208Y-138569452D01*
X117120670Y-138217555D01*
X117161088Y-138190548D01*
X117521276Y-137700881D01*
X202478724Y-137700881D01*
X202838912Y-138190548D01*
X203502882Y-138550849D01*
X204224385Y-138774694D01*
X204975695Y-138853480D01*
X205727938Y-138784178D01*
X206452208Y-138569452D01*
X207120670Y-138217555D01*
X207161088Y-138190548D01*
X207521276Y-137700881D01*
X205000000Y-135179605D01*
X202478724Y-137700881D01*
X117521276Y-137700881D01*
X115000000Y-135179605D01*
X112478724Y-137700881D01*
X110660000Y-137700881D01*
X110660000Y-134975695D01*
X111146520Y-134975695D01*
X111215822Y-135727938D01*
X111430548Y-136452208D01*
X111782445Y-137120670D01*
X111809452Y-137161088D01*
X112299119Y-137521276D01*
X114820395Y-135000000D01*
X115179605Y-135000000D01*
X117700881Y-137521276D01*
X118190548Y-137161088D01*
X118550849Y-136497118D01*
X118774694Y-135775615D01*
X118853480Y-135024305D01*
X118784178Y-134272062D01*
X118569452Y-133547792D01*
X118217555Y-132879330D01*
X118190548Y-132838912D01*
X117700881Y-132478724D01*
X115179605Y-135000000D01*
X114820395Y-135000000D01*
X112299119Y-132478724D01*
X111809452Y-132838912D01*
X111449151Y-133502882D01*
X111225306Y-134224385D01*
X111146520Y-134975695D01*
X110660000Y-134975695D01*
X110660000Y-132299119D01*
X112478724Y-132299119D01*
X115000000Y-134820395D01*
X117521276Y-132299119D01*
X117161088Y-131809452D01*
X116497118Y-131449151D01*
X115775615Y-131225306D01*
X115024305Y-131146520D01*
X114272062Y-131215822D01*
X113547792Y-131430548D01*
X112879330Y-131782445D01*
X112838912Y-131809452D01*
X112478724Y-132299119D01*
X110660000Y-132299119D01*
X110660000Y-112527000D01*
X114205076Y-112527000D01*
X114357111Y-112628586D01*
X114527271Y-112699068D01*
X114665000Y-112726464D01*
X114665000Y-112892089D01*
X114700932Y-113072729D01*
X114771414Y-113242889D01*
X114873000Y-113394924D01*
X114873000Y-118000000D01*
X114875440Y-118024776D01*
X114882667Y-118048601D01*
X114894403Y-118070557D01*
X114910197Y-118089803D01*
X132910197Y-136089803D01*
X132929443Y-136105597D01*
X132951399Y-136117333D01*
X132975224Y-136124560D01*
X133000000Y-136127000D01*
X152467693Y-136127000D01*
X152507911Y-136135000D01*
X152692089Y-136135000D01*
X152732307Y-136127000D01*
X176000000Y-136127000D01*
X176024776Y-136124560D01*
X176048601Y-136117333D01*
X176070557Y-136105597D01*
X176089803Y-136089803D01*
X176105597Y-136070557D01*
X176117333Y-136048601D01*
X176124560Y-136024776D01*
X176127000Y-136000000D01*
X176127000Y-134975695D01*
X201146520Y-134975695D01*
X201215822Y-135727938D01*
X201430548Y-136452208D01*
X201782445Y-137120670D01*
X201809452Y-137161088D01*
X202299119Y-137521276D01*
X204820395Y-135000000D01*
X205179605Y-135000000D01*
X207700881Y-137521276D01*
X208190548Y-137161088D01*
X208550849Y-136497118D01*
X208774694Y-135775615D01*
X208853480Y-135024305D01*
X208784178Y-134272062D01*
X208569452Y-133547792D01*
X208217555Y-132879330D01*
X208190548Y-132838912D01*
X207700881Y-132478724D01*
X205179605Y-135000000D01*
X204820395Y-135000000D01*
X202299119Y-132478724D01*
X201809452Y-132838912D01*
X201449151Y-133502882D01*
X201225306Y-134224385D01*
X201146520Y-134975695D01*
X176127000Y-134975695D01*
X176127000Y-132299119D01*
X202478724Y-132299119D01*
X205000000Y-134820395D01*
X207521276Y-132299119D01*
X207161088Y-131809452D01*
X206497118Y-131449151D01*
X205775615Y-131225306D01*
X205024305Y-131146520D01*
X204272062Y-131215822D01*
X203547792Y-131430548D01*
X202879330Y-131782445D01*
X202838912Y-131809452D01*
X202478724Y-132299119D01*
X176127000Y-132299119D01*
X176127000Y-120318904D01*
X176207911Y-120334998D01*
X176392089Y-120334998D01*
X176572729Y-120299066D01*
X176742889Y-120228584D01*
X176749999Y-120223834D01*
X176757111Y-120228586D01*
X176927271Y-120299068D01*
X177107911Y-120335000D01*
X177292089Y-120335000D01*
X177472729Y-120299068D01*
X177642889Y-120228586D01*
X177796028Y-120126262D01*
X177926262Y-119996028D01*
X178028586Y-119842889D01*
X178099068Y-119672729D01*
X178135000Y-119492089D01*
X178135000Y-119307911D01*
X178099068Y-119127271D01*
X178028586Y-118957111D01*
X177960000Y-118854465D01*
X177960000Y-116900323D01*
X177996028Y-116876250D01*
X178126262Y-116746016D01*
X178228586Y-116592877D01*
X178299068Y-116422717D01*
X178335000Y-116242077D01*
X178335000Y-116057899D01*
X178299068Y-115877259D01*
X178228586Y-115707099D01*
X178126262Y-115553960D01*
X177996028Y-115423726D01*
X177842889Y-115321402D01*
X177672729Y-115250920D01*
X177492089Y-115214988D01*
X177307911Y-115214988D01*
X177127271Y-115250920D01*
X176957111Y-115321402D01*
X176803972Y-115423726D01*
X176673738Y-115553960D01*
X176571414Y-115707099D01*
X176500932Y-115877259D01*
X176465000Y-116057899D01*
X176465000Y-116154843D01*
X176450998Y-116201002D01*
X176440001Y-116312655D01*
X176436324Y-116349988D01*
X176440001Y-116387320D01*
X176440001Y-116564998D01*
X176307911Y-116564998D01*
X176127271Y-116600930D01*
X175957111Y-116671412D01*
X175899999Y-116709573D01*
X175842889Y-116671414D01*
X175672729Y-116600932D01*
X175492089Y-116565000D01*
X175307911Y-116565000D01*
X175127271Y-116600932D01*
X174957111Y-116671414D01*
X174803972Y-116773738D01*
X174704710Y-116873000D01*
X174052606Y-116873000D01*
X171884327Y-114704721D01*
X201880000Y-114704721D01*
X201880000Y-115125279D01*
X201962047Y-115537756D01*
X202122988Y-115926302D01*
X202356637Y-116275983D01*
X202654017Y-116573363D01*
X203003698Y-116807012D01*
X203392244Y-116967953D01*
X203804721Y-117050000D01*
X204225279Y-117050000D01*
X204637756Y-116967953D01*
X205026302Y-116807012D01*
X205375983Y-116573363D01*
X205673363Y-116275983D01*
X205907012Y-115926302D01*
X206067953Y-115537756D01*
X206150000Y-115125279D01*
X206150000Y-114704721D01*
X206067953Y-114292244D01*
X205907012Y-113903698D01*
X205673363Y-113554017D01*
X205375983Y-113256637D01*
X205026302Y-113022988D01*
X204637756Y-112862047D01*
X204225279Y-112780000D01*
X203804721Y-112780000D01*
X203392244Y-112862047D01*
X203003698Y-113022988D01*
X202654017Y-113256637D01*
X202356637Y-113554017D01*
X202122988Y-113903698D01*
X201962047Y-114292244D01*
X201880000Y-114704721D01*
X171884327Y-114704721D01*
X168127000Y-110947394D01*
X168127000Y-106945000D01*
X199966928Y-106945000D01*
X199966928Y-108345000D01*
X199979188Y-108469482D01*
X200015498Y-108589180D01*
X200074463Y-108699494D01*
X200153815Y-108796185D01*
X200250506Y-108875537D01*
X200360820Y-108934502D01*
X200480518Y-108970812D01*
X200605000Y-108983072D01*
X200641013Y-108983072D01*
X200453987Y-109108038D01*
X200268038Y-109293987D01*
X200121939Y-109512641D01*
X200021304Y-109755595D01*
X199970000Y-110013514D01*
X199970000Y-110276486D01*
X200021304Y-110534405D01*
X200121939Y-110777359D01*
X200268038Y-110996013D01*
X200453987Y-111181962D01*
X200672641Y-111328061D01*
X200915595Y-111428696D01*
X201173514Y-111480000D01*
X201436486Y-111480000D01*
X201694405Y-111428696D01*
X201937359Y-111328061D01*
X202156013Y-111181962D01*
X202341962Y-110996013D01*
X202488061Y-110777359D01*
X202588696Y-110534405D01*
X202640000Y-110276486D01*
X202640000Y-110013514D01*
X203170000Y-110013514D01*
X203170000Y-110276486D01*
X203221304Y-110534405D01*
X203321939Y-110777359D01*
X203468038Y-110996013D01*
X203653987Y-111181962D01*
X203872641Y-111328061D01*
X204115595Y-111428696D01*
X204373514Y-111480000D01*
X204636486Y-111480000D01*
X204894405Y-111428696D01*
X205137359Y-111328061D01*
X205356013Y-111181962D01*
X205541962Y-110996013D01*
X205688061Y-110777359D01*
X205788696Y-110534405D01*
X205840000Y-110276486D01*
X205840000Y-110013514D01*
X205788696Y-109755595D01*
X205688061Y-109512641D01*
X205541962Y-109293987D01*
X205356013Y-109108038D01*
X205137359Y-108961939D01*
X204974882Y-108894639D01*
X205086366Y-108853935D01*
X205187203Y-108800037D01*
X205246664Y-108566269D01*
X204505000Y-107824605D01*
X203763336Y-108566269D01*
X203822797Y-108800037D01*
X204030404Y-108896592D01*
X203872641Y-108961939D01*
X203653987Y-109108038D01*
X203468038Y-109293987D01*
X203321939Y-109512641D01*
X203221304Y-109755595D01*
X203170000Y-110013514D01*
X202640000Y-110013514D01*
X202588696Y-109755595D01*
X202488061Y-109512641D01*
X202341962Y-109293987D01*
X202156013Y-109108038D01*
X201968987Y-108983072D01*
X202005000Y-108983072D01*
X202129482Y-108970812D01*
X202249180Y-108934502D01*
X202359494Y-108875537D01*
X202456185Y-108796185D01*
X202535537Y-108699494D01*
X202594502Y-108589180D01*
X202630812Y-108469482D01*
X202643072Y-108345000D01*
X202643072Y-107719473D01*
X203165610Y-107719473D01*
X203205875Y-107979344D01*
X203296065Y-108226366D01*
X203349963Y-108327203D01*
X203583731Y-108386664D01*
X204325395Y-107645000D01*
X204684605Y-107645000D01*
X205426269Y-108386664D01*
X205660037Y-108327203D01*
X205770934Y-108088758D01*
X205833183Y-107833260D01*
X205844390Y-107570527D01*
X205804125Y-107310656D01*
X205713935Y-107063634D01*
X205660037Y-106962797D01*
X205426269Y-106903336D01*
X204684605Y-107645000D01*
X204325395Y-107645000D01*
X203583731Y-106903336D01*
X203349963Y-106962797D01*
X203239066Y-107201242D01*
X203176817Y-107456740D01*
X203165610Y-107719473D01*
X202643072Y-107719473D01*
X202643072Y-106945000D01*
X202630812Y-106820518D01*
X202601452Y-106723731D01*
X203763336Y-106723731D01*
X204505000Y-107465395D01*
X205246664Y-106723731D01*
X205187203Y-106489963D01*
X204948758Y-106379066D01*
X204693260Y-106316817D01*
X204430527Y-106305610D01*
X204170656Y-106345875D01*
X203923634Y-106436065D01*
X203822797Y-106489963D01*
X203763336Y-106723731D01*
X202601452Y-106723731D01*
X202594502Y-106700820D01*
X202535537Y-106590506D01*
X202456185Y-106493815D01*
X202359494Y-106414463D01*
X202249180Y-106355498D01*
X202129482Y-106319188D01*
X202005000Y-106306928D01*
X200605000Y-106306928D01*
X200480518Y-106319188D01*
X200360820Y-106355498D01*
X200250506Y-106414463D01*
X200153815Y-106493815D01*
X200074463Y-106590506D01*
X200015498Y-106700820D01*
X199979188Y-106820518D01*
X199966928Y-106945000D01*
X168127000Y-106945000D01*
X168127000Y-106060183D01*
X173580421Y-101598293D01*
X173589803Y-101589803D01*
X173605597Y-101570557D01*
X173617333Y-101548601D01*
X173624560Y-101524776D01*
X173627000Y-101500000D01*
X173627000Y-100707911D01*
X182165000Y-100707911D01*
X182165000Y-100892089D01*
X182200932Y-101072729D01*
X182271414Y-101242889D01*
X182373738Y-101396028D01*
X182503972Y-101526262D01*
X182657111Y-101628586D01*
X182827271Y-101699068D01*
X182948351Y-101723153D01*
X183736201Y-102511003D01*
X183759999Y-102540001D01*
X183875724Y-102634974D01*
X184007753Y-102705546D01*
X184151014Y-102749003D01*
X184262667Y-102760000D01*
X184262676Y-102760000D01*
X184299999Y-102763676D01*
X184337322Y-102760000D01*
X187854465Y-102760000D01*
X187957111Y-102828586D01*
X188127271Y-102899068D01*
X188307911Y-102935000D01*
X188492089Y-102935000D01*
X188672729Y-102899068D01*
X188842889Y-102828586D01*
X188996028Y-102726262D01*
X189057569Y-102664721D01*
X201880000Y-102664721D01*
X201880000Y-103085279D01*
X201962047Y-103497756D01*
X202122988Y-103886302D01*
X202356637Y-104235983D01*
X202654017Y-104533363D01*
X203003698Y-104767012D01*
X203392244Y-104927953D01*
X203804721Y-105010000D01*
X204225279Y-105010000D01*
X204411928Y-104972873D01*
X204411928Y-105450000D01*
X204424188Y-105574482D01*
X204460498Y-105694180D01*
X204519463Y-105804494D01*
X204598815Y-105901185D01*
X204695506Y-105980537D01*
X204805820Y-106039502D01*
X204925518Y-106075812D01*
X205050000Y-106088072D01*
X206550000Y-106088072D01*
X206674482Y-106075812D01*
X206794180Y-106039502D01*
X206904494Y-105980537D01*
X207001185Y-105901185D01*
X207080537Y-105804494D01*
X207139502Y-105694180D01*
X207175812Y-105574482D01*
X207188072Y-105450000D01*
X207188072Y-104950000D01*
X207185664Y-104925550D01*
X207185664Y-104900991D01*
X207173404Y-104776510D01*
X207154282Y-104680377D01*
X207117973Y-104560681D01*
X207080464Y-104470125D01*
X207021498Y-104359808D01*
X206967042Y-104278309D01*
X206887690Y-104181618D01*
X206818382Y-104112310D01*
X206721691Y-104032958D01*
X206640192Y-103978502D01*
X206529875Y-103919536D01*
X206439319Y-103882027D01*
X206319623Y-103845718D01*
X206223490Y-103826596D01*
X206099009Y-103814336D01*
X206074450Y-103814336D01*
X206050000Y-103811928D01*
X205937819Y-103811928D01*
X206067953Y-103497756D01*
X206150000Y-103085279D01*
X206150000Y-102664721D01*
X206067953Y-102252244D01*
X205907012Y-101863698D01*
X205673363Y-101514017D01*
X205375983Y-101216637D01*
X205026302Y-100982988D01*
X204637756Y-100822047D01*
X204225279Y-100740000D01*
X203804721Y-100740000D01*
X203392244Y-100822047D01*
X203003698Y-100982988D01*
X202654017Y-101216637D01*
X202356637Y-101514017D01*
X202122988Y-101863698D01*
X201962047Y-102252244D01*
X201880000Y-102664721D01*
X189057569Y-102664721D01*
X189126262Y-102596028D01*
X189228586Y-102442889D01*
X189299068Y-102272729D01*
X189335000Y-102092089D01*
X189335000Y-101907911D01*
X189299068Y-101727271D01*
X189228586Y-101557111D01*
X189126262Y-101403972D01*
X188996028Y-101273738D01*
X188842889Y-101171414D01*
X188672729Y-101100932D01*
X188492089Y-101065000D01*
X188307911Y-101065000D01*
X188127271Y-101100932D01*
X187957111Y-101171414D01*
X187854465Y-101240000D01*
X184614802Y-101240000D01*
X184023153Y-100648351D01*
X183999068Y-100527271D01*
X183928586Y-100357111D01*
X183826262Y-100203972D01*
X183696028Y-100073738D01*
X183542889Y-99971414D01*
X183372729Y-99900932D01*
X183192089Y-99865000D01*
X183007911Y-99865000D01*
X182827271Y-99900932D01*
X182657111Y-99971414D01*
X182503972Y-100073738D01*
X182373738Y-100203972D01*
X182271414Y-100357111D01*
X182200932Y-100527271D01*
X182165000Y-100707911D01*
X173627000Y-100707911D01*
X173627000Y-92108164D01*
X173672729Y-92099068D01*
X173842889Y-92028586D01*
X173945556Y-91959986D01*
X174454465Y-91959986D01*
X174557111Y-92028572D01*
X174727271Y-92099054D01*
X174907911Y-92134986D01*
X175092089Y-92134986D01*
X175272729Y-92099054D01*
X175442889Y-92028572D01*
X175596028Y-91926248D01*
X175726262Y-91796014D01*
X175828586Y-91642875D01*
X175899068Y-91472715D01*
X175935000Y-91292075D01*
X175935000Y-91107897D01*
X175899068Y-90927257D01*
X175828586Y-90757097D01*
X175768557Y-90667257D01*
X184639924Y-90667257D01*
X184639924Y-90851435D01*
X184675856Y-91032075D01*
X184746338Y-91202235D01*
X184750286Y-91208143D01*
X184700942Y-91327271D01*
X184665010Y-91507911D01*
X184665010Y-91692089D01*
X184700942Y-91872729D01*
X184771424Y-92042889D01*
X184873748Y-92196028D01*
X185003982Y-92326262D01*
X185157121Y-92428586D01*
X185327281Y-92499068D01*
X185507921Y-92535000D01*
X185692099Y-92535000D01*
X185872739Y-92499068D01*
X186042899Y-92428586D01*
X186145545Y-92360000D01*
X186785199Y-92360000D01*
X186836195Y-92410996D01*
X186859998Y-92440000D01*
X186975723Y-92534973D01*
X187107752Y-92605545D01*
X187251013Y-92649002D01*
X187362666Y-92659999D01*
X187362674Y-92659999D01*
X187399999Y-92663675D01*
X187437324Y-92659999D01*
X189885203Y-92659999D01*
X190161206Y-92936003D01*
X190185005Y-92965002D01*
X190214003Y-92988800D01*
X190300729Y-93059975D01*
X190420522Y-93124006D01*
X190432759Y-93130547D01*
X190576020Y-93174004D01*
X190687673Y-93185001D01*
X190687683Y-93185001D01*
X190725006Y-93188677D01*
X190762329Y-93185001D01*
X192462679Y-93185001D01*
X192500001Y-93188677D01*
X192537323Y-93185001D01*
X192537334Y-93185001D01*
X192648987Y-93174004D01*
X192792248Y-93130547D01*
X192924277Y-93059975D01*
X193040002Y-92965002D01*
X193063805Y-92935999D01*
X193963503Y-92036301D01*
X193992501Y-92012503D01*
X194058991Y-91931485D01*
X194087474Y-91896779D01*
X194158046Y-91764749D01*
X194162232Y-91750949D01*
X194201503Y-91621488D01*
X194212500Y-91509835D01*
X194212500Y-91509825D01*
X194216176Y-91472503D01*
X194212500Y-91435180D01*
X194212500Y-87493035D01*
X194281086Y-87390389D01*
X194351568Y-87220229D01*
X194387500Y-87039589D01*
X194387500Y-86855411D01*
X194351568Y-86674771D01*
X194281086Y-86504611D01*
X194178762Y-86351472D01*
X194048528Y-86221238D01*
X193895389Y-86118914D01*
X193725229Y-86048432D01*
X193544589Y-86012500D01*
X193360411Y-86012500D01*
X193179771Y-86048432D01*
X193009611Y-86118914D01*
X192856472Y-86221238D01*
X192726238Y-86351472D01*
X192623914Y-86504611D01*
X192593627Y-86577731D01*
X192527271Y-86590930D01*
X192357111Y-86661412D01*
X192203972Y-86763736D01*
X192073738Y-86893970D01*
X191971414Y-87047109D01*
X191900932Y-87217269D01*
X191874364Y-87350835D01*
X191671498Y-87553701D01*
X191642500Y-87577499D01*
X191618702Y-87606497D01*
X191618701Y-87606498D01*
X191547526Y-87693224D01*
X191476954Y-87825254D01*
X191459057Y-87884255D01*
X190723153Y-87148351D01*
X190699068Y-87027271D01*
X190628586Y-86857111D01*
X190526262Y-86703972D01*
X190460000Y-86637710D01*
X190460000Y-85745535D01*
X190528586Y-85642889D01*
X190599068Y-85472729D01*
X190635000Y-85292089D01*
X190635000Y-85107911D01*
X190599068Y-84927271D01*
X190528586Y-84757111D01*
X190426262Y-84603972D01*
X190296028Y-84473738D01*
X190142889Y-84371414D01*
X189972729Y-84300932D01*
X189792089Y-84265000D01*
X189607911Y-84265000D01*
X189427271Y-84300932D01*
X189257111Y-84371414D01*
X189103972Y-84473738D01*
X188973738Y-84603972D01*
X188871414Y-84757111D01*
X188800932Y-84927271D01*
X188765000Y-85107911D01*
X188765000Y-85292089D01*
X188800932Y-85472729D01*
X188871414Y-85642889D01*
X188940000Y-85745536D01*
X188940001Y-86932950D01*
X188900932Y-87027271D01*
X188865000Y-87207911D01*
X188865000Y-87392089D01*
X188900932Y-87572729D01*
X188971414Y-87742889D01*
X189073738Y-87896028D01*
X189203972Y-88026262D01*
X189357111Y-88128586D01*
X189527271Y-88199068D01*
X189648351Y-88223153D01*
X190440000Y-89014802D01*
X190440001Y-91178603D01*
X190348990Y-91150996D01*
X190237337Y-91139999D01*
X190237326Y-91139999D01*
X190200004Y-91136323D01*
X190162682Y-91139999D01*
X189435000Y-91139999D01*
X189435000Y-91107911D01*
X189399068Y-90927271D01*
X189328586Y-90757111D01*
X189226262Y-90603972D01*
X189096028Y-90473738D01*
X188942889Y-90371414D01*
X188772729Y-90300932D01*
X188672500Y-90280995D01*
X188672500Y-90269675D01*
X188636568Y-90089035D01*
X188566086Y-89918875D01*
X188463762Y-89765736D01*
X188333528Y-89635502D01*
X188180389Y-89533178D01*
X188010229Y-89462696D01*
X187889148Y-89438611D01*
X187847692Y-89397155D01*
X187823889Y-89368151D01*
X187708164Y-89273178D01*
X187576135Y-89202606D01*
X187432874Y-89159149D01*
X187321221Y-89148152D01*
X187321210Y-89148152D01*
X187283888Y-89144476D01*
X187246566Y-89148152D01*
X186143832Y-89148152D01*
X186041186Y-89079566D01*
X185871026Y-89009084D01*
X185690386Y-88973152D01*
X185506208Y-88973152D01*
X185325568Y-89009084D01*
X185155408Y-89079566D01*
X185002269Y-89181890D01*
X184872035Y-89312124D01*
X184769711Y-89465263D01*
X184699229Y-89635423D01*
X184663297Y-89816063D01*
X184663297Y-90000241D01*
X184699229Y-90180881D01*
X184751923Y-90308098D01*
X184746338Y-90316457D01*
X184675856Y-90486617D01*
X184639924Y-90667257D01*
X175768557Y-90667257D01*
X175726262Y-90603958D01*
X175596028Y-90473724D01*
X175442889Y-90371400D01*
X175272729Y-90300918D01*
X175092089Y-90264986D01*
X174907911Y-90264986D01*
X174727271Y-90300918D01*
X174557111Y-90371400D01*
X174454465Y-90439986D01*
X173945514Y-90439986D01*
X173842889Y-90371414D01*
X173672729Y-90300932D01*
X173492089Y-90265000D01*
X173307911Y-90265000D01*
X173127271Y-90300932D01*
X172957111Y-90371414D01*
X172803972Y-90473738D01*
X172673738Y-90603972D01*
X172571414Y-90757111D01*
X172523412Y-90873000D01*
X172500000Y-90873000D01*
X172475224Y-90875440D01*
X172451399Y-90882667D01*
X172429443Y-90894403D01*
X172410197Y-90910197D01*
X172394403Y-90929443D01*
X172382667Y-90951399D01*
X172375440Y-90975224D01*
X172373000Y-91000000D01*
X172373000Y-101189817D01*
X166919579Y-105651707D01*
X166910197Y-105660197D01*
X166894403Y-105679443D01*
X166882667Y-105701399D01*
X166875440Y-105725224D01*
X166873000Y-105750000D01*
X166873000Y-109873000D01*
X149052606Y-109873000D01*
X134127000Y-94947394D01*
X134127000Y-91235000D01*
X134192089Y-91235000D01*
X134372729Y-91199068D01*
X134542889Y-91128586D01*
X134696028Y-91026262D01*
X134826262Y-90896028D01*
X134853140Y-90855803D01*
X134947129Y-90918604D01*
X135117289Y-90989086D01*
X135297929Y-91025018D01*
X135482107Y-91025018D01*
X135538332Y-91013834D01*
X137220923Y-91013834D01*
X137220923Y-91198012D01*
X137256855Y-91378652D01*
X137327337Y-91548812D01*
X137429661Y-91701951D01*
X137559895Y-91832185D01*
X137622374Y-91873932D01*
X139982356Y-94233914D01*
X139996424Y-94267879D01*
X140098748Y-94421018D01*
X140228982Y-94551252D01*
X140382121Y-94653576D01*
X140552281Y-94724058D01*
X140732921Y-94759990D01*
X140917099Y-94759990D01*
X141097739Y-94724058D01*
X141267899Y-94653576D01*
X141421038Y-94551252D01*
X141551272Y-94421018D01*
X141653596Y-94267879D01*
X141724078Y-94097719D01*
X141760010Y-93917079D01*
X141760010Y-93732901D01*
X141724078Y-93552261D01*
X141653596Y-93382101D01*
X141551272Y-93228962D01*
X141421038Y-93098728D01*
X141267899Y-92996404D01*
X141233934Y-92982336D01*
X140159509Y-91907911D01*
X163665000Y-91907911D01*
X163665000Y-92092089D01*
X163700932Y-92272729D01*
X163771414Y-92442889D01*
X163809574Y-92500000D01*
X163771414Y-92557111D01*
X163700932Y-92727271D01*
X163665000Y-92907911D01*
X163665000Y-93092089D01*
X163700932Y-93272729D01*
X163771414Y-93442889D01*
X163873738Y-93596028D01*
X164003972Y-93726262D01*
X164157111Y-93828586D01*
X164327271Y-93899068D01*
X164507911Y-93935000D01*
X164692089Y-93935000D01*
X164872729Y-93899068D01*
X165042889Y-93828586D01*
X165145535Y-93760000D01*
X168654465Y-93760000D01*
X168757111Y-93828586D01*
X168927271Y-93899068D01*
X169107911Y-93935000D01*
X169292089Y-93935000D01*
X169472729Y-93899068D01*
X169642889Y-93828586D01*
X169653467Y-93821518D01*
X169780386Y-93874089D01*
X169961026Y-93910021D01*
X170145204Y-93910021D01*
X170325844Y-93874089D01*
X170496004Y-93803607D01*
X170649143Y-93701283D01*
X170779377Y-93571049D01*
X170881701Y-93417910D01*
X170952183Y-93247750D01*
X170988115Y-93067110D01*
X170988115Y-92882932D01*
X170952183Y-92702292D01*
X170881701Y-92532132D01*
X170813115Y-92429486D01*
X170813115Y-91565433D01*
X170816791Y-91528110D01*
X170813115Y-91490787D01*
X170813115Y-91490778D01*
X170802118Y-91379125D01*
X170758661Y-91235864D01*
X170688089Y-91103835D01*
X170593116Y-90988110D01*
X170564112Y-90964307D01*
X170239512Y-90639707D01*
X170215709Y-90610703D01*
X170099984Y-90515730D01*
X169967955Y-90445158D01*
X169824694Y-90401701D01*
X169713041Y-90390704D01*
X169713030Y-90390704D01*
X169675708Y-90387028D01*
X169638386Y-90390704D01*
X165180013Y-90390704D01*
X165077367Y-90322118D01*
X164907207Y-90251636D01*
X164726567Y-90215704D01*
X164542389Y-90215704D01*
X164361749Y-90251636D01*
X164191589Y-90322118D01*
X164038450Y-90424442D01*
X163908216Y-90554676D01*
X163805892Y-90707815D01*
X163735410Y-90877975D01*
X163699478Y-91058615D01*
X163699478Y-91242793D01*
X163735410Y-91423433D01*
X163783369Y-91539218D01*
X163771414Y-91557111D01*
X163700932Y-91727271D01*
X163665000Y-91907911D01*
X140159509Y-91907911D01*
X139033919Y-90782321D01*
X138984509Y-90663034D01*
X138882185Y-90509895D01*
X138751951Y-90379661D01*
X138598812Y-90277337D01*
X138428652Y-90206855D01*
X138248012Y-90170923D01*
X138063834Y-90170923D01*
X137883194Y-90206855D01*
X137713034Y-90277337D01*
X137559895Y-90379661D01*
X137429661Y-90509895D01*
X137327337Y-90663034D01*
X137256855Y-90833194D01*
X137220923Y-91013834D01*
X135538332Y-91013834D01*
X135662747Y-90989086D01*
X135832907Y-90918604D01*
X135986046Y-90816280D01*
X136116280Y-90686046D01*
X136218604Y-90532907D01*
X136289086Y-90362747D01*
X136325018Y-90182107D01*
X136325018Y-89997929D01*
X136289086Y-89817289D01*
X136218604Y-89647129D01*
X136176746Y-89584484D01*
X136129429Y-89495959D01*
X136072642Y-89426764D01*
X136046550Y-89394971D01*
X136046548Y-89394969D01*
X136018835Y-89361201D01*
X135985068Y-89333489D01*
X133142655Y-86491077D01*
X133128586Y-86457111D01*
X133026262Y-86303972D01*
X132896028Y-86173738D01*
X132742889Y-86071414D01*
X132572729Y-86000932D01*
X132392089Y-85965000D01*
X132207911Y-85965000D01*
X132027271Y-86000932D01*
X131857111Y-86071414D01*
X131703972Y-86173738D01*
X131573738Y-86303972D01*
X131471414Y-86457111D01*
X131430555Y-86555754D01*
X130360004Y-85485203D01*
X130360004Y-84807911D01*
X139365000Y-84807911D01*
X139365000Y-84992089D01*
X139400932Y-85172729D01*
X139471414Y-85342889D01*
X139573738Y-85496028D01*
X139703972Y-85626262D01*
X139857111Y-85728586D01*
X140027271Y-85799068D01*
X140207911Y-85835000D01*
X140239153Y-85835000D01*
X140200932Y-85927275D01*
X140165000Y-86107915D01*
X140165000Y-86292093D01*
X140200932Y-86472733D01*
X140271414Y-86642893D01*
X140373738Y-86796032D01*
X140503972Y-86926266D01*
X140657111Y-87028590D01*
X140827271Y-87099072D01*
X141007911Y-87135004D01*
X141192089Y-87135004D01*
X141372729Y-87099072D01*
X141502215Y-87045437D01*
X141631692Y-87099068D01*
X141812332Y-87135000D01*
X141996510Y-87135000D01*
X142177150Y-87099068D01*
X142347310Y-87028586D01*
X142500449Y-86926262D01*
X142630683Y-86796028D01*
X142733007Y-86642889D01*
X142803489Y-86472729D01*
X142839421Y-86292089D01*
X142839421Y-86107911D01*
X142814555Y-85982901D01*
X164365000Y-85982901D01*
X164365000Y-86167079D01*
X164400932Y-86347719D01*
X164471414Y-86517879D01*
X164550088Y-86635623D01*
X164550087Y-86904477D01*
X164481501Y-87007124D01*
X164411019Y-87177284D01*
X164375087Y-87357924D01*
X164375087Y-87542102D01*
X164411019Y-87722742D01*
X164481501Y-87892902D01*
X164583825Y-88046041D01*
X164714059Y-88176275D01*
X164867198Y-88278599D01*
X165037358Y-88349081D01*
X165217998Y-88385013D01*
X165402176Y-88385013D01*
X165582816Y-88349081D01*
X165752976Y-88278599D01*
X165906115Y-88176275D01*
X166036349Y-88046041D01*
X166138673Y-87892902D01*
X166209155Y-87722742D01*
X166245087Y-87542102D01*
X166245087Y-87357924D01*
X166209155Y-87177284D01*
X166138673Y-87007124D01*
X166070087Y-86904478D01*
X166070087Y-86605429D01*
X166128586Y-86517879D01*
X166199068Y-86347719D01*
X166235000Y-86167079D01*
X166235000Y-85982901D01*
X166199068Y-85802261D01*
X166128586Y-85632101D01*
X166026262Y-85478962D01*
X165896028Y-85348728D01*
X165742889Y-85246404D01*
X165572729Y-85175922D01*
X165392089Y-85139990D01*
X165207911Y-85139990D01*
X165027271Y-85175922D01*
X164857111Y-85246404D01*
X164703972Y-85348728D01*
X164573738Y-85478962D01*
X164471414Y-85632101D01*
X164400932Y-85802261D01*
X164365000Y-85982901D01*
X142814555Y-85982901D01*
X142803489Y-85927271D01*
X142733007Y-85757111D01*
X142630683Y-85603972D01*
X142560015Y-85533304D01*
X142560015Y-83250000D01*
X197411928Y-83250000D01*
X197411928Y-86750000D01*
X197424188Y-86874482D01*
X197460498Y-86994180D01*
X197519463Y-87104494D01*
X197598815Y-87201185D01*
X197695506Y-87280537D01*
X197805820Y-87339502D01*
X197925518Y-87375812D01*
X198050000Y-87388072D01*
X201550000Y-87388072D01*
X201674482Y-87375812D01*
X201794180Y-87339502D01*
X201904494Y-87280537D01*
X202001185Y-87201185D01*
X202080537Y-87104494D01*
X202139502Y-86994180D01*
X202175812Y-86874482D01*
X202188072Y-86750000D01*
X203661928Y-86750000D01*
X203674188Y-86874482D01*
X203710498Y-86994180D01*
X203769463Y-87104494D01*
X203848815Y-87201185D01*
X203945506Y-87280537D01*
X204055820Y-87339502D01*
X204175518Y-87375812D01*
X204300000Y-87388072D01*
X205514250Y-87385000D01*
X205673000Y-87226250D01*
X205673000Y-85127000D01*
X205927000Y-85127000D01*
X205927000Y-87226250D01*
X206085750Y-87385000D01*
X207300000Y-87388072D01*
X207424482Y-87375812D01*
X207544180Y-87339502D01*
X207654494Y-87280537D01*
X207751185Y-87201185D01*
X207830537Y-87104494D01*
X207889502Y-86994180D01*
X207925812Y-86874482D01*
X207938072Y-86750000D01*
X207935000Y-85285750D01*
X207776250Y-85127000D01*
X205927000Y-85127000D01*
X205673000Y-85127000D01*
X203823750Y-85127000D01*
X203665000Y-85285750D01*
X203661928Y-86750000D01*
X202188072Y-86750000D01*
X202188072Y-83250000D01*
X202175812Y-83125518D01*
X202139502Y-83005820D01*
X202080537Y-82895506D01*
X202001185Y-82798815D01*
X201904494Y-82719463D01*
X201842655Y-82686409D01*
X202514250Y-82685000D01*
X202673000Y-82526250D01*
X202673000Y-80427000D01*
X202927000Y-80427000D01*
X202927000Y-82526250D01*
X203085750Y-82685000D01*
X204006367Y-82686931D01*
X203945506Y-82719463D01*
X203848815Y-82798815D01*
X203769463Y-82895506D01*
X203710498Y-83005820D01*
X203674188Y-83125518D01*
X203661928Y-83250000D01*
X203665000Y-84714250D01*
X203823750Y-84873000D01*
X205673000Y-84873000D01*
X205673000Y-82773750D01*
X205927000Y-82773750D01*
X205927000Y-84873000D01*
X207776250Y-84873000D01*
X207935000Y-84714250D01*
X207938072Y-83250000D01*
X207925812Y-83125518D01*
X207889502Y-83005820D01*
X207830537Y-82895506D01*
X207751185Y-82798815D01*
X207654494Y-82719463D01*
X207544180Y-82660498D01*
X207424482Y-82624188D01*
X207300000Y-82611928D01*
X206085750Y-82615000D01*
X205927000Y-82773750D01*
X205673000Y-82773750D01*
X205514250Y-82615000D01*
X204843195Y-82613302D01*
X204904494Y-82580537D01*
X205001185Y-82501185D01*
X205080537Y-82404494D01*
X205139502Y-82294180D01*
X205175812Y-82174482D01*
X205188072Y-82050000D01*
X205185000Y-80585750D01*
X205026250Y-80427000D01*
X202927000Y-80427000D01*
X202673000Y-80427000D01*
X200573750Y-80427000D01*
X200415000Y-80585750D01*
X200411928Y-82050000D01*
X200424188Y-82174482D01*
X200460498Y-82294180D01*
X200519463Y-82404494D01*
X200598815Y-82501185D01*
X200695506Y-82580537D01*
X200754233Y-82611928D01*
X198050000Y-82611928D01*
X197925518Y-82624188D01*
X197805820Y-82660498D01*
X197695506Y-82719463D01*
X197598815Y-82798815D01*
X197519463Y-82895506D01*
X197460498Y-83005820D01*
X197424188Y-83125518D01*
X197411928Y-83250000D01*
X142560015Y-83250000D01*
X142560015Y-81007911D01*
X165564996Y-81007911D01*
X165564996Y-81192089D01*
X165600928Y-81372729D01*
X165671410Y-81542889D01*
X165773734Y-81696028D01*
X165903968Y-81826262D01*
X166057107Y-81928586D01*
X166227267Y-81999068D01*
X166407907Y-82035000D01*
X166592085Y-82035000D01*
X166772725Y-81999068D01*
X166942885Y-81928586D01*
X167045531Y-81860000D01*
X168204531Y-81860000D01*
X168337113Y-81948588D01*
X168507273Y-82019070D01*
X168687913Y-82055002D01*
X168872091Y-82055002D01*
X169052731Y-82019070D01*
X169222891Y-81948588D01*
X169376030Y-81846264D01*
X169506264Y-81716030D01*
X169608588Y-81562891D01*
X169679070Y-81392731D01*
X169715002Y-81212091D01*
X169715002Y-81027913D01*
X169679070Y-80847273D01*
X169608588Y-80677113D01*
X169506264Y-80523974D01*
X169376030Y-80393740D01*
X169222891Y-80291416D01*
X169052731Y-80220934D01*
X168872091Y-80185002D01*
X168687913Y-80185002D01*
X168507273Y-80220934D01*
X168337113Y-80291416D01*
X168264402Y-80340000D01*
X167045531Y-80340000D01*
X166942885Y-80271414D01*
X166772725Y-80200932D01*
X166592085Y-80165000D01*
X166407907Y-80165000D01*
X166227267Y-80200932D01*
X166057107Y-80271414D01*
X165903968Y-80373738D01*
X165773734Y-80503972D01*
X165671410Y-80657111D01*
X165600928Y-80827271D01*
X165564996Y-81007911D01*
X142560015Y-81007911D01*
X142560015Y-79545535D01*
X142628601Y-79442889D01*
X142699083Y-79272729D01*
X142735015Y-79092089D01*
X142735015Y-78907911D01*
X142699083Y-78727271D01*
X142628601Y-78557111D01*
X142526277Y-78403972D01*
X142396043Y-78273738D01*
X142242904Y-78171414D01*
X142072744Y-78100932D01*
X141892104Y-78065000D01*
X141707926Y-78065000D01*
X141527286Y-78100932D01*
X141357126Y-78171414D01*
X141203987Y-78273738D01*
X141073753Y-78403972D01*
X140971429Y-78557111D01*
X140964599Y-78573599D01*
X140827271Y-78600916D01*
X140657111Y-78671398D01*
X140503972Y-78773722D01*
X140373738Y-78903956D01*
X140271414Y-79057095D01*
X140200932Y-79227255D01*
X140172116Y-79372121D01*
X140027274Y-79400932D01*
X139857114Y-79471414D01*
X139703975Y-79573738D01*
X139573741Y-79703972D01*
X139471417Y-79857111D01*
X139400935Y-80027271D01*
X139365003Y-80207911D01*
X139365003Y-80392089D01*
X139400935Y-80572729D01*
X139471417Y-80742889D01*
X139540003Y-80845536D01*
X139540004Y-82854468D01*
X139471420Y-82957111D01*
X139400938Y-83127271D01*
X139365006Y-83307911D01*
X139365006Y-83492089D01*
X139400938Y-83672729D01*
X139471420Y-83842889D01*
X139540001Y-83945527D01*
X139540000Y-84354464D01*
X139471414Y-84457111D01*
X139400932Y-84627271D01*
X139365000Y-84807911D01*
X130360004Y-84807911D01*
X130360004Y-77745535D01*
X130428590Y-77642889D01*
X130464211Y-77556891D01*
X183978519Y-77556891D01*
X184075843Y-77831252D01*
X184224822Y-78081355D01*
X184419731Y-78297588D01*
X184653080Y-78471641D01*
X184915901Y-78596825D01*
X185063110Y-78641476D01*
X185293000Y-78520155D01*
X185293000Y-77327000D01*
X185547000Y-77327000D01*
X185547000Y-78520155D01*
X185776890Y-78641476D01*
X185924099Y-78596825D01*
X186186920Y-78471641D01*
X186420269Y-78297588D01*
X186615178Y-78081355D01*
X186690000Y-77955745D01*
X186764822Y-78081355D01*
X186959731Y-78297588D01*
X187193080Y-78471641D01*
X187455901Y-78596825D01*
X187603110Y-78641476D01*
X187833000Y-78520155D01*
X187833000Y-77327000D01*
X185547000Y-77327000D01*
X185293000Y-77327000D01*
X184099186Y-77327000D01*
X183978519Y-77556891D01*
X130464211Y-77556891D01*
X130499072Y-77472729D01*
X130535004Y-77292089D01*
X130535004Y-77107911D01*
X130499072Y-76927271D01*
X130464212Y-76843109D01*
X183978519Y-76843109D01*
X184099186Y-77073000D01*
X185293000Y-77073000D01*
X185293000Y-75879845D01*
X185547000Y-75879845D01*
X185547000Y-77073000D01*
X187833000Y-77073000D01*
X187833000Y-75879845D01*
X188087000Y-75879845D01*
X188087000Y-77073000D01*
X188107000Y-77073000D01*
X188107000Y-77327000D01*
X188087000Y-77327000D01*
X188087000Y-78520155D01*
X188316890Y-78641476D01*
X188464099Y-78596825D01*
X188726920Y-78471641D01*
X188960269Y-78297588D01*
X189036034Y-78213534D01*
X189060498Y-78294180D01*
X189119463Y-78404494D01*
X189198815Y-78501185D01*
X189295506Y-78580537D01*
X189405820Y-78639502D01*
X189525518Y-78675812D01*
X189650000Y-78688072D01*
X191350000Y-78688072D01*
X191474482Y-78675812D01*
X191594180Y-78639502D01*
X191704494Y-78580537D01*
X191741703Y-78550000D01*
X200411928Y-78550000D01*
X200415000Y-80014250D01*
X200573750Y-80173000D01*
X202673000Y-80173000D01*
X202673000Y-78073750D01*
X202927000Y-78073750D01*
X202927000Y-80173000D01*
X205026250Y-80173000D01*
X205185000Y-80014250D01*
X205188072Y-78550000D01*
X205175812Y-78425518D01*
X205139502Y-78305820D01*
X205080537Y-78195506D01*
X205001185Y-78098815D01*
X204904494Y-78019463D01*
X204794180Y-77960498D01*
X204674482Y-77924188D01*
X204550000Y-77911928D01*
X203085750Y-77915000D01*
X202927000Y-78073750D01*
X202673000Y-78073750D01*
X202514250Y-77915000D01*
X201050000Y-77911928D01*
X200925518Y-77924188D01*
X200805820Y-77960498D01*
X200695506Y-78019463D01*
X200598815Y-78098815D01*
X200519463Y-78195506D01*
X200460498Y-78305820D01*
X200424188Y-78425518D01*
X200411928Y-78550000D01*
X191741703Y-78550000D01*
X191801185Y-78501185D01*
X191880537Y-78404494D01*
X191939502Y-78294180D01*
X191975812Y-78174482D01*
X191988072Y-78050000D01*
X191988072Y-76350000D01*
X191975812Y-76225518D01*
X191939502Y-76105820D01*
X191880537Y-75995506D01*
X191801185Y-75898815D01*
X191704494Y-75819463D01*
X191594180Y-75760498D01*
X191474482Y-75724188D01*
X191350000Y-75711928D01*
X189650000Y-75711928D01*
X189525518Y-75724188D01*
X189405820Y-75760498D01*
X189295506Y-75819463D01*
X189198815Y-75898815D01*
X189119463Y-75995506D01*
X189060498Y-76105820D01*
X189036034Y-76186466D01*
X188960269Y-76102412D01*
X188726920Y-75928359D01*
X188464099Y-75803175D01*
X188316890Y-75758524D01*
X188087000Y-75879845D01*
X187833000Y-75879845D01*
X187603110Y-75758524D01*
X187455901Y-75803175D01*
X187193080Y-75928359D01*
X186959731Y-76102412D01*
X186764822Y-76318645D01*
X186690000Y-76444255D01*
X186615178Y-76318645D01*
X186420269Y-76102412D01*
X186186920Y-75928359D01*
X185924099Y-75803175D01*
X185776890Y-75758524D01*
X185547000Y-75879845D01*
X185293000Y-75879845D01*
X185063110Y-75758524D01*
X184915901Y-75803175D01*
X184653080Y-75928359D01*
X184419731Y-76102412D01*
X184224822Y-76318645D01*
X184075843Y-76568748D01*
X183978519Y-76843109D01*
X130464212Y-76843109D01*
X130428590Y-76757111D01*
X130326266Y-76603972D01*
X130196032Y-76473738D01*
X130042893Y-76371414D01*
X129872733Y-76300932D01*
X129692093Y-76265000D01*
X129507915Y-76265000D01*
X129327275Y-76300932D01*
X129157115Y-76371414D01*
X129003976Y-76473738D01*
X128873742Y-76603972D01*
X128771418Y-76757111D01*
X128700936Y-76927271D01*
X128665004Y-77107911D01*
X128665004Y-77292089D01*
X128700936Y-77472729D01*
X128771418Y-77642889D01*
X128840005Y-77745537D01*
X128840004Y-85762682D01*
X128836328Y-85800004D01*
X128840004Y-85837326D01*
X128840004Y-85837336D01*
X128851001Y-85948989D01*
X128888138Y-86071414D01*
X128894458Y-86092250D01*
X128965030Y-86224280D01*
X128981690Y-86244580D01*
X129060003Y-86340005D01*
X129089007Y-86363808D01*
X132873000Y-90147803D01*
X132873000Y-95000000D01*
X132875440Y-95024776D01*
X132882667Y-95048601D01*
X132894403Y-95070557D01*
X132910197Y-95089803D01*
X148910197Y-111089803D01*
X148929443Y-111105597D01*
X148951399Y-111117333D01*
X148975224Y-111124560D01*
X149000000Y-111127000D01*
X166947394Y-111127000D01*
X173910197Y-118089803D01*
X173929443Y-118105597D01*
X173951399Y-118117333D01*
X173975224Y-118124560D01*
X174000000Y-118127000D01*
X174640009Y-118127000D01*
X174640008Y-118854464D01*
X174571422Y-118957111D01*
X174500940Y-119127271D01*
X174465008Y-119307911D01*
X174465008Y-119492089D01*
X174500940Y-119672729D01*
X174571422Y-119842889D01*
X174673746Y-119996028D01*
X174803980Y-120126262D01*
X174873000Y-120172380D01*
X174873000Y-134873000D01*
X153476588Y-134873000D01*
X153428586Y-134757111D01*
X153326262Y-134603972D01*
X153229886Y-134507596D01*
X153272727Y-134499074D01*
X153442887Y-134428592D01*
X153596026Y-134326268D01*
X153726260Y-134196034D01*
X153828584Y-134042895D01*
X153899066Y-133872735D01*
X153934998Y-133692095D01*
X153934998Y-133507917D01*
X153899066Y-133327277D01*
X153828584Y-133157117D01*
X153759998Y-133054471D01*
X153759998Y-130545538D01*
X153828586Y-130442889D01*
X153899068Y-130272729D01*
X153935000Y-130092089D01*
X153935000Y-129907911D01*
X153899068Y-129727271D01*
X153828586Y-129557111D01*
X153726262Y-129403972D01*
X153596028Y-129273738D01*
X153442889Y-129171414D01*
X153272729Y-129100932D01*
X153092089Y-129065000D01*
X152907911Y-129065000D01*
X152727271Y-129100932D01*
X152600000Y-129153649D01*
X152472729Y-129100932D01*
X152292089Y-129065000D01*
X152107911Y-129065000D01*
X151927271Y-129100932D01*
X151757111Y-129171414D01*
X151603972Y-129273738D01*
X151473738Y-129403972D01*
X151371414Y-129557111D01*
X151300932Y-129727271D01*
X151265000Y-129907911D01*
X151265000Y-130092089D01*
X151300932Y-130272729D01*
X151371414Y-130442889D01*
X151440001Y-130545537D01*
X151440000Y-134762677D01*
X151436324Y-134800000D01*
X151440000Y-134837322D01*
X151440000Y-134837332D01*
X151443513Y-134873000D01*
X133052606Y-134873000D01*
X123887517Y-125707911D01*
X152665000Y-125707911D01*
X152665000Y-125892089D01*
X152700932Y-126072729D01*
X152771414Y-126242889D01*
X152873738Y-126396028D01*
X153003972Y-126526262D01*
X153157111Y-126628586D01*
X153327271Y-126699068D01*
X153507911Y-126735000D01*
X153692089Y-126735000D01*
X153872729Y-126699068D01*
X154042889Y-126628586D01*
X154196028Y-126526262D01*
X154200000Y-126522290D01*
X154203972Y-126526262D01*
X154357111Y-126628586D01*
X154527271Y-126699068D01*
X154707911Y-126735000D01*
X154892089Y-126735000D01*
X155072729Y-126699068D01*
X155242889Y-126628586D01*
X155396028Y-126526262D01*
X155526262Y-126396028D01*
X155628586Y-126242889D01*
X155699068Y-126072729D01*
X155735000Y-125892089D01*
X155735000Y-125795148D01*
X155749003Y-125748986D01*
X155758652Y-125651015D01*
X155760000Y-125637332D01*
X155760000Y-125637325D01*
X155763676Y-125600000D01*
X155760000Y-125562675D01*
X155760000Y-124114801D01*
X156751649Y-123123153D01*
X156872729Y-123099068D01*
X157042889Y-123028586D01*
X157196028Y-122926262D01*
X157326262Y-122796028D01*
X157428586Y-122642889D01*
X157499068Y-122472729D01*
X157535000Y-122292089D01*
X157535000Y-122107911D01*
X157499068Y-121927271D01*
X157428586Y-121757111D01*
X157326262Y-121603972D01*
X157196028Y-121473738D01*
X157042889Y-121371414D01*
X156872729Y-121300932D01*
X156692089Y-121265000D01*
X156507911Y-121265000D01*
X156327271Y-121300932D01*
X156157111Y-121371414D01*
X156003972Y-121473738D01*
X155873738Y-121603972D01*
X155771414Y-121757111D01*
X155700932Y-121927271D01*
X155676847Y-122048351D01*
X155335000Y-122390198D01*
X155335000Y-122207911D01*
X155299068Y-122027271D01*
X155228586Y-121857111D01*
X155126262Y-121703972D01*
X154996028Y-121573738D01*
X154842889Y-121471414D01*
X154672729Y-121400932D01*
X154492089Y-121365000D01*
X154307911Y-121365000D01*
X154127271Y-121400932D01*
X153957111Y-121471414D01*
X153803972Y-121573738D01*
X153673738Y-121703972D01*
X153571414Y-121857111D01*
X153500932Y-122027271D01*
X153465000Y-122207911D01*
X153465000Y-122392089D01*
X153500932Y-122572729D01*
X153571414Y-122742889D01*
X153640000Y-122845536D01*
X153640001Y-124485197D01*
X153147087Y-124978112D01*
X153003972Y-125073738D01*
X152873738Y-125203972D01*
X152771414Y-125357111D01*
X152700932Y-125527271D01*
X152665000Y-125707911D01*
X123887517Y-125707911D01*
X116127000Y-117947394D01*
X116127000Y-113572385D01*
X116196028Y-113526262D01*
X116326262Y-113396028D01*
X116367040Y-113334999D01*
X119526725Y-113334999D01*
X119571414Y-113442889D01*
X119673738Y-113596028D01*
X119803972Y-113726262D01*
X119957111Y-113828586D01*
X120127271Y-113899068D01*
X120307911Y-113935000D01*
X120492089Y-113935000D01*
X120672729Y-113899068D01*
X120842889Y-113828586D01*
X120996028Y-113726262D01*
X121126262Y-113596028D01*
X121228586Y-113442889D01*
X121299068Y-113272729D01*
X121335000Y-113092089D01*
X121335000Y-112907911D01*
X121299068Y-112727271D01*
X121228586Y-112557111D01*
X121126262Y-112403972D01*
X121122290Y-112400000D01*
X121126262Y-112396028D01*
X121228586Y-112242889D01*
X121299068Y-112072729D01*
X121335000Y-111892089D01*
X121335000Y-111707911D01*
X121299068Y-111527271D01*
X121228586Y-111357111D01*
X121126262Y-111203972D01*
X120996028Y-111073738D01*
X120842889Y-110971414D01*
X120672729Y-110900932D01*
X120492089Y-110865000D01*
X120307911Y-110865000D01*
X120127271Y-110900932D01*
X119957111Y-110971414D01*
X119854465Y-111040000D01*
X115345535Y-111040000D01*
X115242889Y-110971414D01*
X115072729Y-110900932D01*
X114892089Y-110865000D01*
X114707911Y-110865000D01*
X114527271Y-110900932D01*
X114357111Y-110971414D01*
X114203972Y-111073738D01*
X114073738Y-111203972D01*
X114027615Y-111273000D01*
X110660000Y-111273000D01*
X110660000Y-105200000D01*
X110721928Y-105200000D01*
X110734188Y-105324482D01*
X110770498Y-105444180D01*
X110829463Y-105554494D01*
X110908815Y-105651185D01*
X111005506Y-105730537D01*
X111115820Y-105789502D01*
X111235518Y-105825812D01*
X111360000Y-105838072D01*
X113614250Y-105835000D01*
X113773000Y-105676250D01*
X113773000Y-104577000D01*
X114027000Y-104577000D01*
X114027000Y-105676250D01*
X114185750Y-105835000D01*
X116440000Y-105838072D01*
X116564482Y-105825812D01*
X116684180Y-105789502D01*
X116794494Y-105730537D01*
X116891185Y-105651185D01*
X116970537Y-105554494D01*
X117029502Y-105444180D01*
X117065812Y-105324482D01*
X117078072Y-105200000D01*
X117075000Y-104735750D01*
X116916250Y-104577000D01*
X114027000Y-104577000D01*
X113773000Y-104577000D01*
X110883750Y-104577000D01*
X110725000Y-104735750D01*
X110721928Y-105200000D01*
X110660000Y-105200000D01*
X110660000Y-103700000D01*
X110721928Y-103700000D01*
X110725000Y-104164250D01*
X110883750Y-104323000D01*
X113773000Y-104323000D01*
X113773000Y-103223750D01*
X114027000Y-103223750D01*
X114027000Y-104323000D01*
X116916250Y-104323000D01*
X117075000Y-104164250D01*
X117078072Y-103700000D01*
X117065812Y-103575518D01*
X117029502Y-103455820D01*
X116970537Y-103345506D01*
X116891185Y-103248815D01*
X116794494Y-103169463D01*
X116684180Y-103110498D01*
X116564482Y-103074188D01*
X116440000Y-103061928D01*
X114185750Y-103065000D01*
X114027000Y-103223750D01*
X113773000Y-103223750D01*
X113614250Y-103065000D01*
X111360000Y-103061928D01*
X111235518Y-103074188D01*
X111115820Y-103110498D01*
X111005506Y-103169463D01*
X110908815Y-103248815D01*
X110829463Y-103345506D01*
X110770498Y-103455820D01*
X110734188Y-103575518D01*
X110721928Y-103700000D01*
X110660000Y-103700000D01*
X110660000Y-96700000D01*
X110721928Y-96700000D01*
X110734188Y-96824482D01*
X110770498Y-96944180D01*
X110829463Y-97054494D01*
X110908815Y-97151185D01*
X111005506Y-97230537D01*
X111115820Y-97289502D01*
X111235518Y-97325812D01*
X111360000Y-97338072D01*
X113614250Y-97335000D01*
X113773000Y-97176250D01*
X113773000Y-96077000D01*
X114027000Y-96077000D01*
X114027000Y-97176250D01*
X114185750Y-97335000D01*
X116440000Y-97338072D01*
X116564482Y-97325812D01*
X116684180Y-97289502D01*
X116794494Y-97230537D01*
X116891185Y-97151185D01*
X116970537Y-97054494D01*
X117029502Y-96944180D01*
X117065812Y-96824482D01*
X117078072Y-96700000D01*
X117075000Y-96235750D01*
X116916250Y-96077000D01*
X114027000Y-96077000D01*
X113773000Y-96077000D01*
X110883750Y-96077000D01*
X110725000Y-96235750D01*
X110721928Y-96700000D01*
X110660000Y-96700000D01*
X110660000Y-95200000D01*
X110721928Y-95200000D01*
X110725000Y-95664250D01*
X110883750Y-95823000D01*
X113773000Y-95823000D01*
X113773000Y-94723750D01*
X114027000Y-94723750D01*
X114027000Y-95823000D01*
X116916250Y-95823000D01*
X117075000Y-95664250D01*
X117078072Y-95200000D01*
X117065812Y-95075518D01*
X117029502Y-94955820D01*
X116970537Y-94845506D01*
X116891185Y-94748815D01*
X116794494Y-94669463D01*
X116684180Y-94610498D01*
X116564482Y-94574188D01*
X116440000Y-94561928D01*
X114185750Y-94565000D01*
X114027000Y-94723750D01*
X113773000Y-94723750D01*
X113614250Y-94565000D01*
X111360000Y-94561928D01*
X111235518Y-94574188D01*
X111115820Y-94610498D01*
X111005506Y-94669463D01*
X110908815Y-94748815D01*
X110829463Y-94845506D01*
X110770498Y-94955820D01*
X110734188Y-95075518D01*
X110721928Y-95200000D01*
X110660000Y-95200000D01*
X110660000Y-71907901D01*
X144065000Y-71907901D01*
X144065000Y-72092079D01*
X144100932Y-72272719D01*
X144171414Y-72442879D01*
X144240000Y-72545526D01*
X144240001Y-73854471D01*
X144171414Y-73957119D01*
X144100932Y-74127279D01*
X144065000Y-74307919D01*
X144065000Y-74492097D01*
X144100932Y-74672737D01*
X144171414Y-74842897D01*
X144273738Y-74996036D01*
X144403972Y-75126270D01*
X144557111Y-75228594D01*
X144727271Y-75299076D01*
X144907911Y-75335008D01*
X145092089Y-75335008D01*
X145272729Y-75299076D01*
X145442889Y-75228594D01*
X145596028Y-75126270D01*
X145726262Y-74996036D01*
X145828586Y-74842897D01*
X145899068Y-74672737D01*
X145935000Y-74492097D01*
X145935000Y-74307919D01*
X145899068Y-74127279D01*
X145828586Y-73957119D01*
X145760000Y-73854473D01*
X145760000Y-72545525D01*
X145828586Y-72442879D01*
X145899068Y-72272719D01*
X145935000Y-72092079D01*
X145935000Y-71907901D01*
X145899068Y-71727261D01*
X145828586Y-71557101D01*
X145726262Y-71403962D01*
X145596028Y-71273728D01*
X145560517Y-71250000D01*
X179711928Y-71250000D01*
X179711928Y-72950000D01*
X179724188Y-73074482D01*
X179760498Y-73194180D01*
X179819463Y-73304494D01*
X179898815Y-73401185D01*
X179995506Y-73480537D01*
X180105820Y-73539502D01*
X180225518Y-73575812D01*
X180350000Y-73588072D01*
X182050000Y-73588072D01*
X182174482Y-73575812D01*
X182294180Y-73539502D01*
X182404494Y-73480537D01*
X182501185Y-73401185D01*
X182580537Y-73304494D01*
X182639502Y-73194180D01*
X182663966Y-73113534D01*
X182739731Y-73197588D01*
X182973080Y-73371641D01*
X183235901Y-73496825D01*
X183383110Y-73541476D01*
X183613000Y-73420155D01*
X183613000Y-72227000D01*
X183593000Y-72227000D01*
X183593000Y-71973000D01*
X183613000Y-71973000D01*
X183613000Y-70779845D01*
X183867000Y-70779845D01*
X183867000Y-71973000D01*
X183887000Y-71973000D01*
X183887000Y-72227000D01*
X183867000Y-72227000D01*
X183867000Y-73420155D01*
X184096890Y-73541476D01*
X184244099Y-73496825D01*
X184506920Y-73371641D01*
X184740269Y-73197588D01*
X184935178Y-72981355D01*
X185004799Y-72864477D01*
X185039294Y-72929014D01*
X185224866Y-73155134D01*
X185450986Y-73340706D01*
X185708966Y-73478599D01*
X185988889Y-73563513D01*
X186207050Y-73585000D01*
X186352950Y-73585000D01*
X186571111Y-73563513D01*
X186851034Y-73478599D01*
X187109014Y-73340706D01*
X187335134Y-73155134D01*
X187520706Y-72929014D01*
X187550000Y-72874209D01*
X187579294Y-72929014D01*
X187764866Y-73155134D01*
X187990986Y-73340706D01*
X188248966Y-73478599D01*
X188528889Y-73563513D01*
X188747050Y-73585000D01*
X188892950Y-73585000D01*
X189111111Y-73563513D01*
X189391034Y-73478599D01*
X189649014Y-73340706D01*
X189875134Y-73155134D01*
X190060706Y-72929014D01*
X190090000Y-72874209D01*
X190119294Y-72929014D01*
X190304866Y-73155134D01*
X190530986Y-73340706D01*
X190788966Y-73478599D01*
X191068889Y-73563513D01*
X191287050Y-73585000D01*
X191432950Y-73585000D01*
X191651111Y-73563513D01*
X191931034Y-73478599D01*
X192189014Y-73340706D01*
X192415134Y-73155134D01*
X192600706Y-72929014D01*
X192738599Y-72671034D01*
X192823513Y-72391111D01*
X192852185Y-72100000D01*
X192823513Y-71808889D01*
X192738599Y-71528966D01*
X192600706Y-71270986D01*
X192415134Y-71044866D01*
X192189014Y-70859294D01*
X191931034Y-70721401D01*
X191651111Y-70636487D01*
X191432950Y-70615000D01*
X191287050Y-70615000D01*
X191068889Y-70636487D01*
X190788966Y-70721401D01*
X190530986Y-70859294D01*
X190304866Y-71044866D01*
X190119294Y-71270986D01*
X190090000Y-71325791D01*
X190060706Y-71270986D01*
X189875134Y-71044866D01*
X189649014Y-70859294D01*
X189391034Y-70721401D01*
X189111111Y-70636487D01*
X188892950Y-70615000D01*
X188747050Y-70615000D01*
X188528889Y-70636487D01*
X188248966Y-70721401D01*
X187990986Y-70859294D01*
X187764866Y-71044866D01*
X187579294Y-71270986D01*
X187550000Y-71325791D01*
X187520706Y-71270986D01*
X187335134Y-71044866D01*
X187109014Y-70859294D01*
X186851034Y-70721401D01*
X186571111Y-70636487D01*
X186352950Y-70615000D01*
X186207050Y-70615000D01*
X185988889Y-70636487D01*
X185708966Y-70721401D01*
X185450986Y-70859294D01*
X185224866Y-71044866D01*
X185039294Y-71270986D01*
X185004799Y-71335523D01*
X184935178Y-71218645D01*
X184740269Y-71002412D01*
X184506920Y-70828359D01*
X184244099Y-70703175D01*
X184096890Y-70658524D01*
X183867000Y-70779845D01*
X183613000Y-70779845D01*
X183383110Y-70658524D01*
X183235901Y-70703175D01*
X182973080Y-70828359D01*
X182739731Y-71002412D01*
X182663966Y-71086466D01*
X182639502Y-71005820D01*
X182580537Y-70895506D01*
X182501185Y-70798815D01*
X182404494Y-70719463D01*
X182294180Y-70660498D01*
X182174482Y-70624188D01*
X182050000Y-70611928D01*
X180350000Y-70611928D01*
X180225518Y-70624188D01*
X180105820Y-70660498D01*
X179995506Y-70719463D01*
X179898815Y-70798815D01*
X179819463Y-70895506D01*
X179760498Y-71005820D01*
X179724188Y-71125518D01*
X179711928Y-71250000D01*
X145560517Y-71250000D01*
X145442889Y-71171404D01*
X145272729Y-71100922D01*
X145092089Y-71064990D01*
X144907911Y-71064990D01*
X144727271Y-71100922D01*
X144557111Y-71171404D01*
X144403972Y-71273728D01*
X144273738Y-71403962D01*
X144171414Y-71557101D01*
X144100932Y-71727261D01*
X144065000Y-71907901D01*
X110660000Y-71907901D01*
X110660000Y-67700881D01*
X112478724Y-67700881D01*
X112838912Y-68190548D01*
X113502882Y-68550849D01*
X114224385Y-68774694D01*
X114975695Y-68853480D01*
X115727938Y-68784178D01*
X116452208Y-68569452D01*
X117120670Y-68217555D01*
X117161088Y-68190548D01*
X117521276Y-67700881D01*
X202478724Y-67700881D01*
X202838912Y-68190548D01*
X203502882Y-68550849D01*
X204224385Y-68774694D01*
X204975695Y-68853480D01*
X205727938Y-68784178D01*
X206452208Y-68569452D01*
X207120670Y-68217555D01*
X207161088Y-68190548D01*
X207521276Y-67700881D01*
X205000000Y-65179605D01*
X202478724Y-67700881D01*
X117521276Y-67700881D01*
X115000000Y-65179605D01*
X112478724Y-67700881D01*
X110660000Y-67700881D01*
X110660000Y-64975695D01*
X111146520Y-64975695D01*
X111215822Y-65727938D01*
X111430548Y-66452208D01*
X111782445Y-67120670D01*
X111809452Y-67161088D01*
X112299119Y-67521276D01*
X114820395Y-65000000D01*
X115179605Y-65000000D01*
X117700881Y-67521276D01*
X118190548Y-67161088D01*
X118550849Y-66497118D01*
X118774694Y-65775615D01*
X118853480Y-65024305D01*
X118849002Y-64975695D01*
X201146520Y-64975695D01*
X201215822Y-65727938D01*
X201430548Y-66452208D01*
X201782445Y-67120670D01*
X201809452Y-67161088D01*
X202299119Y-67521276D01*
X204820395Y-65000000D01*
X205179605Y-65000000D01*
X207700881Y-67521276D01*
X208190548Y-67161088D01*
X208550849Y-66497118D01*
X208774694Y-65775615D01*
X208853480Y-65024305D01*
X208784178Y-64272062D01*
X208569452Y-63547792D01*
X208217555Y-62879330D01*
X208190548Y-62838912D01*
X207700881Y-62478724D01*
X205179605Y-65000000D01*
X204820395Y-65000000D01*
X202299119Y-62478724D01*
X201809452Y-62838912D01*
X201449151Y-63502882D01*
X201225306Y-64224385D01*
X201146520Y-64975695D01*
X118849002Y-64975695D01*
X118784178Y-64272062D01*
X118569452Y-63547792D01*
X118217555Y-62879330D01*
X118190548Y-62838912D01*
X117700881Y-62478724D01*
X115179605Y-65000000D01*
X114820395Y-65000000D01*
X112299119Y-62478724D01*
X111809452Y-62838912D01*
X111449151Y-63502882D01*
X111225306Y-64224385D01*
X111146520Y-64975695D01*
X110660000Y-64975695D01*
X110660000Y-62299119D01*
X112478724Y-62299119D01*
X115000000Y-64820395D01*
X117521276Y-62299119D01*
X202478724Y-62299119D01*
X205000000Y-64820395D01*
X207521276Y-62299119D01*
X207161088Y-61809452D01*
X206497118Y-61449151D01*
X205775615Y-61225306D01*
X205024305Y-61146520D01*
X204272062Y-61215822D01*
X203547792Y-61430548D01*
X202879330Y-61782445D01*
X202838912Y-61809452D01*
X202478724Y-62299119D01*
X117521276Y-62299119D01*
X117161088Y-61809452D01*
X116497118Y-61449151D01*
X115775615Y-61225306D01*
X115024305Y-61146520D01*
X114272062Y-61215822D01*
X113547792Y-61430548D01*
X112879330Y-61782445D01*
X112838912Y-61809452D01*
X112478724Y-62299119D01*
X110660000Y-62299119D01*
X110660000Y-60660000D01*
X209340000Y-60660000D01*
X209340001Y-139340000D01*
M02*
