M48
; DRILL file {KiCad (5.1.2)-1} date 17/04/2020 10:09:46
; FORMAT={-:-/ absolute / metric / decimal}
; #@! TF.CreationDate,2020-04-17T10:09:46+02:00
; #@! TF.GenerationSoftware,Kicad,Pcbnew,(5.1.2)-1
; #@! TF.FileFunction,Plated,1,2,PTH
FMAT,2
METRIC
T1C0.300
T2C0.500
T3C0.920
T4C1.000
T5C2.300
T6C3.200
%
G90
G05
T1
X111.0Y-98.5
X111.0Y-102.0
X111.0Y-106.5
X112.5Y-70.0
X112.5Y-72.5
X112.5Y-75.0
X112.5Y-77.5
X112.5Y-80.0
X112.5Y-82.5
X112.5Y-85.5
X112.5Y-87.5
X112.5Y-90.0
X112.5Y-92.5
X112.5Y-107.5
X112.5Y-110.0
X112.5Y-115.0
X112.5Y-117.5
X112.5Y-120.0
X112.5Y-122.5
X112.5Y-125.0
X112.5Y-127.5
X112.5Y-130.0
X113.0Y-98.5
X113.0Y-102.0
X113.9Y-106.3
X114.8Y-111.8
X115.0Y-70.0
X115.0Y-75.0
X115.0Y-80.0
X115.0Y-85.5
X115.0Y-87.5
X115.0Y-90.0
X115.0Y-92.5
X115.0Y-98.5
X115.0Y-102.0
X115.0Y-107.5
X115.0Y-110.0
X115.0Y-120.0
X115.0Y-125.0
X115.0Y-130.0
X115.6Y-112.8
X116.2Y-106.4
X116.4Y-108.6
X116.4Y-111.0
X116.4Y-113.2
X116.4Y-116.2
X116.5Y-102.0
X117.0Y-98.5
X117.4Y-96.0
X117.5Y-85.5
X117.5Y-87.5
X117.5Y-90.0
X117.5Y-92.5
X117.5Y-122.5
X118.0Y-118.4
X119.0Y-96.6
X119.0Y-98.6
X119.0Y-101.4
X119.0Y-103.8
X119.0Y-106.4
X119.0Y-108.8
X119.0Y-111.0
X119.0Y-113.2
X119.0Y-115.4
X119.2Y-94.6
X119.8Y-120.2
X120.0Y-62.5
X120.0Y-65.0
X120.0Y-70.0
X120.0Y-75.0
X120.0Y-80.0
X120.0Y-85.5
X120.0Y-87.5
X120.0Y-90.0
X120.0Y-102.5
X120.0Y-105.0
X120.0Y-107.5
X120.0Y-125.0
X120.0Y-130.0
X120.0Y-135.0
X120.0Y-137.5
X120.4Y-111.8
X120.4Y-113.0
X120.4Y-116.8
X120.6Y-92.4
X120.7Y-109.3
X121.8Y-122.2
X122.2Y-118.6
X122.5Y-62.5
X122.5Y-85.5
X122.5Y-87.5
X122.5Y-115.0
X122.5Y-127.5
X122.5Y-137.5
X122.6Y-90.2
X122.8Y-69.4
X123.4Y-123.8
X123.8Y-67.4
X123.8Y-71.4
X124.0Y-120.4
X124.4Y-112.9
X124.5Y-79.8
X124.8Y-88.6
X125.0Y-62.5
X125.0Y-65.0
X125.0Y-85.5
X125.0Y-115.0
X125.0Y-117.5
X125.0Y-130.0
X125.0Y-135.0
X125.0Y-137.5
X125.2Y-125.6
X125.4Y-67.4
X125.4Y-71.4
X125.6Y-122.0
X125.9Y-87.4
X126.2Y-81.7
X126.4Y-101.0
X126.6Y-113.4
X127.0Y-67.4
X127.0Y-71.4
X127.0Y-109.5
X127.2Y-88.8
X127.2Y-127.4
X127.4Y-85.5
X127.4Y-123.8
X127.5Y-62.5
X127.5Y-102.5
X127.5Y-105.0
X127.5Y-107.5
X127.5Y-132.5
X127.5Y-137.5
X127.8Y-91.4
X128.2Y-69.4
X128.6Y-101.0
X129.2Y-129.2
X129.4Y-125.8
X129.6Y-77.2
X130.0Y-62.5
X130.0Y-65.0
X130.0Y-70.0
X130.0Y-122.5
X130.0Y-135.0
X130.0Y-137.5
X130.4Y-112.5
X130.4Y-114.8
X130.6Y-80.0
X130.6Y-81.8
X130.6Y-83.6
X130.6Y-85.2
X130.6Y-101.0
X131.0Y-131.2
X131.2Y-127.6
X131.4Y-91.3
X131.5Y-96.5
X132.3Y-86.9
X132.5Y-62.5
X132.5Y-125.0
X132.5Y-137.5
X132.6Y-101.0
X133.0Y-105.6
X133.0Y-112.6
X133.0Y-114.8
X133.0Y-117.6
X133.0Y-129.4
X133.0Y-133.2
X133.2Y-107.4
X133.5Y-96.5
X133.8Y-122.6
X134.1Y-90.3
X134.4Y-99.0
X134.6Y-105.6
X134.6Y-107.8
X134.6Y-109.6
X134.6Y-111.4
X134.6Y-113.8
X134.6Y-115.2
X134.6Y-116.8
X135.0Y-62.5
X135.0Y-65.0
X135.0Y-70.0
X135.0Y-127.5
X135.0Y-137.5
X135.39Y-90.09
X135.4Y-124.2
X135.8Y-105.6
X136.0Y-98.5
X136.0Y-100.6
X136.0Y-107.4
X136.0Y-112.6
X136.0Y-114.8
X136.0Y-117.8
X136.0Y-130.8
X136.0Y-133.4
X137.4Y-125.6
X137.5Y-62.5
X137.5Y-89.45
X137.5Y-127.5
X137.5Y-137.5
X138.0Y-100.5
X138.156Y-91.106
X138.2Y-85.0
X139.0Y-130.8
X139.0Y-133.4
X139.3Y-112.6
X139.5Y-102.0
X140.0Y-62.5
X140.0Y-65.0
X140.0Y-70.0
X140.0Y-125.6
X140.0Y-127.5
X140.0Y-137.5
X140.3Y-84.9
X140.3Y-80.3
X140.3Y-83.4
X140.825Y-93.825
X141.1Y-79.5
X141.1Y-86.2
X141.8Y-75.7
X141.8Y-79.0
X141.904Y-86.2
X142.0Y-104.5
X142.0Y-109.6
X142.2Y-130.8
X142.2Y-133.6
X142.4Y-122.0
X142.4Y-125.6
X142.5Y-62.5
X142.5Y-107.5
X142.5Y-127.5
X142.5Y-137.5
X143.5Y-96.5
X144.0Y-107.0
X144.4Y-122.0
X144.6Y-125.6
X145.0Y-62.5
X145.0Y-65.0
X145.0Y-70.0
X145.0Y-72.0
X145.0Y-74.4
X145.0Y-112.5
X145.0Y-115.0
X145.0Y-117.5
X145.0Y-127.5
X145.0Y-137.5
X145.2Y-77.7
X145.2Y-130.8
X145.2Y-133.4
X147.0Y-125.6
X147.5Y-62.5
X147.5Y-115.0
X147.5Y-117.5
X147.5Y-127.5
X147.5Y-137.5
X148.2Y-130.8
X148.2Y-133.4
X148.8Y-111.85
X148.8Y-125.6
X148.9Y-97.4
X148.958Y-106.258
X149.0Y-70.0
X149.2Y-122.2
X149.3Y-86.75
X150.0Y-62.5
X150.0Y-65.0
X150.0Y-127.5
X150.0Y-137.5
X150.8Y-125.6
X150.85Y-113.75
X151.158Y-133.358
X151.2Y-79.8
X151.2Y-130.8
X152.2Y-130.0
X152.45Y-114.0
X152.5Y-62.5
X152.5Y-137.5
X152.6Y-125.6
X152.6Y-135.2
X152.7Y-98.7
X153.0Y-133.6
X153.0Y-130.0
X153.6Y-86.05
X153.6Y-125.8
X154.4Y-122.3
X154.8Y-125.8
X154.9Y-116.3
X154.9Y-117.9
X155.0Y-62.5
X155.0Y-65.0
X155.0Y-137.5
X155.0Y-130.8
X155.4Y-118.7
X156.0Y-99.7
X156.186Y-126.525
X156.2Y-129.0
X156.2Y-133.4
X156.6Y-122.2
X157.1Y-79.8
X157.2Y-84.3
X157.5Y-62.5
X157.5Y-137.5
X157.8Y-96.2
X157.8Y-98.3
X157.8Y-130.8
X158.0Y-74.2
X158.1Y-118.9
X158.6Y-133.4
X159.0Y-106.9
X159.042Y-100.642
X159.2Y-102.8
X160.0Y-62.5
X160.0Y-65.0
X160.0Y-137.5
X160.6Y-116.6
X160.8Y-130.8
X161.0Y-114.0
X161.2Y-111.6
X161.4Y-133.4
X162.4Y-115.3
X162.5Y-62.5
X162.5Y-137.5
X162.6Y-114.0
X162.9Y-130.4
X163.2Y-111.6
X163.99Y-132.95
X164.3Y-104.2
X164.6Y-92.0
X164.6Y-93.0
X164.634Y-91.151
X164.7Y-114.0
X165.0Y-62.5
X165.0Y-65.0
X165.0Y-70.0
X165.0Y-133.5
X165.0Y-137.5
X165.2Y-79.3
X165.2Y-80.2
X165.3Y-86.075
X165.31Y-87.45
X165.378Y-131.049
X165.4Y-111.6
X165.6Y-124.4
X165.8Y-117.4
X165.8Y-126.0
X166.0Y-121.4
X166.1Y-114.5
X166.4Y-116.0
X166.5Y-81.1
X166.6Y-128.2
X167.0Y-70.0
X167.0Y-72.0
X167.2Y-112.0
X167.3Y-97.275
X167.4Y-124.4
X167.5Y-62.5
X167.5Y-127.5
X167.5Y-130.0
X167.5Y-133.5
X167.5Y-137.5
X167.6Y-121.0
X168.0Y-119.6
X168.78Y-81.12
X168.8Y-113.6
X169.0Y-70.0
X169.0Y-72.0
X169.0Y-74.0
X169.2Y-93.0
X169.3Y-91.9
X169.4Y-107.2
X169.4Y-123.6
X170.0Y-62.5
X170.0Y-65.0
X170.0Y-112.0
X170.0Y-125.0
X170.0Y-127.5
X170.0Y-130.0
X170.0Y-133.5
X170.0Y-137.5
X170.053Y-92.975
X170.2Y-115.0
X170.4Y-87.2
X170.4Y-107.1
X170.5Y-77.5
X170.6Y-101.5
X170.6Y-102.3
X170.6Y-116.4
X170.6Y-118.1
X170.6Y-119.8
X170.6Y-121.6
X170.7Y-94.4
X170.7Y-98.2
X170.729Y-98.975
X170.9Y-89.7
X171.0Y-70.0
X171.0Y-72.0
X171.0Y-74.0
X171.0Y-75.5
X171.0Y-79.5
X171.0Y-81.0
X171.6Y-107.2
X172.1Y-88.3
X172.5Y-62.5
X172.5Y-117.5
X172.5Y-120.0
X172.5Y-122.5
X172.5Y-125.0
X172.5Y-127.5
X172.5Y-130.0
X172.5Y-133.5
X172.5Y-137.5
X172.6Y-87.1
X173.0Y-70.0
X173.0Y-72.0
X173.0Y-74.0
X173.0Y-115.0
X173.395Y-81.0
X173.4Y-79.4
X173.4Y-91.2
X173.5Y-75.5
X174.0Y-119.0
X174.0Y-121.0
X174.0Y-123.0
X174.0Y-125.0
X174.0Y-127.0
X174.0Y-129.0
X174.0Y-131.0
X174.0Y-133.0
X174.2Y-87.0
X175.0Y-62.5
X175.0Y-65.0
X175.0Y-70.0
X175.0Y-72.0
X175.0Y-74.0
X175.0Y-91.2
X175.0Y-112.5
X175.0Y-115.0
X175.0Y-137.5
X175.4Y-117.5
X175.4Y-119.4
X176.0Y-75.5
X176.0Y-79.5
X176.0Y-81.0
X176.0Y-110.0
X176.3Y-119.4
X176.4Y-117.5
X176.5Y-77.5
X176.6Y-88.0
X177.0Y-70.0
X177.0Y-72.0
X177.0Y-74.0
X177.0Y-106.0
X177.2Y-119.4
X177.4Y-116.15
X177.5Y-62.5
X177.5Y-137.5
X178.4Y-106.4
X178.4Y-108.0
X178.4Y-109.8
X178.5Y-97.24
X180.0Y-62.5
X180.0Y-65.0
X180.0Y-112.5
X180.0Y-115.0
X180.0Y-120.0
X180.0Y-125.0
X180.0Y-130.0
X180.0Y-135.0
X180.0Y-137.5
X180.2Y-85.8
X180.35Y-105.55
X180.35Y-110.45
X180.9Y-99.7
X181.7Y-81.0
X182.4Y-106.2
X182.4Y-108.0
X182.4Y-109.8
X182.5Y-62.5
X182.5Y-137.5
X183.1Y-100.8
X183.9Y-85.6
X184.8Y-79.625
X185.0Y-62.5
X185.0Y-65.0
X185.0Y-110.0
X185.0Y-112.5
X185.0Y-115.0
X185.0Y-120.0
X185.0Y-125.0
X185.0Y-130.0
X185.0Y-135.0
X185.0Y-137.5
X185.575Y-90.759
X185.598Y-89.908
X185.6Y-91.6
X187.5Y-62.5
X187.5Y-137.5
X187.737Y-90.362
X188.4Y-101.0
X188.4Y-102.0
X188.5Y-91.2
X189.175Y-83.7
X189.7Y-85.2
X189.8Y-87.3
X190.0Y-102.6
X190.0Y-62.5
X190.0Y-65.0
X190.0Y-104.0
X190.0Y-105.5
X190.0Y-110.0
X190.0Y-112.5
X190.0Y-115.0
X190.0Y-120.0
X190.0Y-125.0
X190.0Y-130.0
X190.0Y-135.0
X190.0Y-137.5
X191.0Y-84.2
X191.204Y-91.796
X192.2Y-91.8
X192.5Y-62.5
X192.5Y-137.5
X192.7Y-96.7
X192.8Y-87.49
X193.4Y-96.7
X193.452Y-86.947
X194.0Y-104.0
X194.0Y-108.0
X194.0Y-113.0
X194.1Y-96.7
X195.0Y-62.5
X195.0Y-65.0
X195.0Y-120.0
X195.0Y-125.0
X195.0Y-130.0
X195.0Y-135.0
X195.0Y-137.5
X197.5Y-62.5
X197.5Y-137.5
X200.0Y-62.5
X200.0Y-65.0
X200.0Y-120.0
X200.0Y-125.0
X200.0Y-130.0
X200.0Y-135.0
X200.0Y-137.5
X200.2Y-96.1
X202.7Y-111.0
X205.0Y-70.0
X205.0Y-75.0
X205.0Y-90.0
X205.0Y-95.0
X205.0Y-120.0
X205.0Y-125.0
X205.0Y-130.0
X207.5Y-70.0
X207.5Y-72.5
X207.5Y-75.0
X207.5Y-77.5
X207.5Y-117.5
X207.5Y-120.0
X207.5Y-122.5
X207.5Y-125.0
X207.5Y-127.5
X207.5Y-130.0
X208.0Y-82.5
X208.0Y-85.0
X208.0Y-87.5
X208.0Y-90.0
X208.0Y-92.5
X208.0Y-95.0
X208.0Y-97.5
X208.0Y-100.0
X208.0Y-102.5
X208.0Y-105.0
X208.0Y-107.5
X208.0Y-110.0
X208.0Y-112.5
X208.0Y-115.0
T2
X202.6Y-65.0
X203.303Y-63.303
X203.303Y-66.697
X205.0Y-62.6
X205.0Y-67.4
X206.697Y-63.303
X206.697Y-66.697
X207.4Y-65.0
X112.6Y-65.0
X113.303Y-63.303
X113.303Y-66.697
X115.0Y-62.6
X115.0Y-67.4
X116.697Y-63.303
X116.697Y-66.697
X117.4Y-65.0
X112.6Y-135.0
X113.303Y-133.303
X113.303Y-136.697
X115.0Y-132.6
X115.0Y-137.4
X116.697Y-133.303
X116.697Y-136.697
X117.4Y-135.0
X202.6Y-135.0
X203.303Y-133.303
X203.303Y-136.697
X205.0Y-132.6
X205.0Y-137.4
X206.697Y-133.303
X206.697Y-136.697
X207.4Y-135.0
T3
X201.305Y-107.645
X201.305Y-110.145
X204.505Y-107.645
X204.505Y-110.145
T4
X185.42Y-77.2
X187.96Y-77.2
X190.5Y-77.2
X181.2Y-72.1
X183.74Y-72.1
X186.28Y-72.1
X188.82Y-72.1
X191.36Y-72.1
T5
X204.015Y-102.875
X204.015Y-114.915
T6
X205.0Y-65.0
X115.0Y-65.0
X115.0Y-135.0
X205.0Y-135.0
T4
G00X199.8Y-86.0
M15
G01X199.8Y-84.0
M16
G05
G00X203.8Y-80.3
M15
G01X201.8Y-80.3
M16
G05
G00X205.8Y-86.0
M15
G01X205.8Y-84.0
M16
G05
T0
M30
